<svg id="Слой_1" data-name="Слой 1" xmlns="http://www.w3.org/2000/svg" viewBox="0 0 180 180"><defs><style>.cls-1{fill:#010201;}.cls-2{fill:#b3b3b3;}</style></defs><path class="cls-1" d="M181.47,93A90,90,0,1,0,77.41,181.9V119H54.55V93H77.41V73.17c0-22.55,13.43-35,34-35a139,139,0,0,1,20.15,1.75V62.06H120.2c-11.18,0-14.67,6.94-14.67,14.06V93h25l-4,26h-21V181.9A90,90,0,0,0,181.47,93" transform="translate(-1.47 -3)"/><path class="cls-2" d="M181.47,93A90,90,0,1,0,77.41,181.9V119H54.55V93H77.41V73.17c0-22.55,13.43-35,34-35a139,139,0,0,1,20.15,1.75V62.06H120.2c-11.18,0-14.67,6.94-14.67,14.06V93h25l-4,26h-21V181.9A90,90,0,0,0,181.47,93" transform="translate(-1.47 -3)"/><path d="M126.5,119l4-26h-25V76.12c0-7.12,3.49-14.06,14.67-14.06h11.35V39.91a139,139,0,0,0-20.15-1.75c-20.56,0-34,12.46-34,35V93H54.55v26H77.41V181.9a90.41,90.41,0,0,0,28.12,0V119Z" transform="translate(-1.47 -3)"/></svg>