<?xml version="1.0" encoding="utf-8"?>
<svg viewBox="0 0 500 500" xmlns="http://www.w3.org/2000/svg">
  <path d="M 1779.639 -314.99 C 1829.345 -314.99 1869.639 -274.697 1869.639 -224.99 C 1869.639 -175.285 1829.345 -134.99 1779.639 -134.99 C 1729.934 -134.99 1689.639 -175.285 1689.639 -224.99 C 1689.639 -274.697 1729.934 -314.99 1779.639 -314.99 Z" fill="#010201"/>
  <path d="M 1779.639 -281.657 C 1764.249 -281.657 1762.319 -281.592 1756.275 -281.316 C 1750.245 -281.041 1746.125 -280.084 1742.521 -278.683 C 1738.794 -277.235 1735.634 -275.297 1732.483 -272.147 C 1729.333 -268.996 1727.395 -265.836 1725.947 -262.109 C 1724.547 -258.505 1723.589 -254.386 1723.314 -248.354 C 1723.038 -242.309 1722.973 -240.381 1722.973 -224.991 C 1722.973 -209.601 1723.038 -207.67 1723.314 -201.626 C 1723.589 -195.596 1724.547 -191.476 1725.947 -187.872 C 1727.395 -184.145 1729.333 -180.985 1732.483 -177.836 C 1735.634 -174.685 1738.794 -172.748 1742.521 -171.298 C 1746.125 -169.898 1750.245 -168.94 1756.275 -168.665 C 1762.319 -168.389 1764.249 -168.324 1779.639 -168.324 C 1795.029 -168.324 1796.958 -168.389 1803.002 -168.665 C 1809.034 -168.94 1813.154 -169.898 1816.758 -171.298 C 1820.485 -172.748 1823.645 -174.685 1826.795 -177.836 C 1829.945 -180.985 1831.883 -184.145 1833.331 -187.872 C 1834.731 -191.476 1835.69 -195.596 1835.965 -201.626 C 1836.241 -207.67 1836.306 -209.601 1836.306 -224.991 C 1836.306 -240.38 1836.241 -242.309 1835.965 -248.354 C 1835.69 -254.386 1834.731 -258.505 1833.331 -262.109 C 1831.883 -265.836 1829.945 -268.996 1826.795 -272.147 C 1823.645 -275.297 1820.485 -277.235 1816.758 -278.683 C 1813.154 -280.084 1809.034 -281.041 1803.002 -281.316 C 1796.958 -281.592 1795.029 -281.657 1779.639 -281.657 Z M 1779.639 -271.447 C 1794.77 -271.447 1796.562 -271.389 1802.538 -271.117 C 1808.062 -270.864 1811.062 -269.941 1813.059 -269.165 C 1815.705 -268.137 1817.593 -266.909 1819.575 -264.926 C 1821.558 -262.944 1822.786 -261.056 1823.814 -258.412 C 1824.59 -256.415 1825.513 -253.415 1825.766 -247.889 C 1826.038 -241.913 1826.095 -240.121 1826.095 -224.991 C 1826.095 -209.86 1826.038 -208.068 1825.766 -202.092 C 1825.513 -196.568 1824.59 -193.566 1823.814 -191.57 C 1822.786 -188.925 1821.558 -187.037 1819.575 -185.054 C 1817.593 -183.072 1815.705 -181.844 1813.059 -180.816 C 1811.062 -180.04 1808.062 -179.116 1802.538 -178.865 C 1796.562 -178.592 1794.771 -178.535 1779.639 -178.535 C 1764.507 -178.535 1762.715 -178.592 1756.741 -178.865 C 1751.217 -179.116 1748.215 -180.04 1746.219 -180.816 C 1743.574 -181.844 1741.686 -183.072 1739.703 -185.054 C 1737.721 -187.037 1736.493 -188.925 1735.465 -191.57 C 1734.689 -193.566 1733.766 -196.568 1733.513 -202.092 C 1733.241 -208.068 1733.183 -209.86 1733.183 -224.991 C 1733.183 -240.121 1733.241 -241.913 1733.513 -247.889 C 1733.766 -253.415 1734.689 -256.415 1735.465 -258.412 C 1736.493 -261.056 1737.719 -262.944 1739.703 -264.926 C 1741.686 -266.909 1743.574 -268.137 1746.219 -269.165 C 1748.215 -269.941 1751.217 -270.864 1756.741 -271.117 C 1762.717 -271.389 1764.509 -271.447 1779.639 -271.447 Z" fill="white"/>
  <path d="M 1779.639 -206.101 C 1769.207 -206.101 1760.75 -214.558 1760.75 -224.99 C 1760.75 -235.422 1769.207 -243.88 1779.639 -243.88 C 1790.071 -243.88 1798.529 -235.422 1798.529 -224.99 C 1798.529 -214.558 1790.071 -206.101 1779.639 -206.101 Z M 1779.639 -254.089 C 1763.569 -254.089 1750.541 -241.061 1750.541 -224.99 C 1750.541 -208.92 1763.569 -195.892 1779.639 -195.892 C 1795.71 -195.892 1808.738 -208.92 1808.738 -224.99 C 1808.738 -241.061 1795.71 -254.089 1779.639 -254.089 Z" fill="white"/>
  <path d="M 1816.687 -255.24 C 1816.687 -251.484 1813.643 -248.44 1809.889 -248.44 C 1806.133 -248.44 1803.089 -251.484 1803.089 -255.24 C 1803.089 -258.996 1806.133 -262.04 1809.889 -262.04 C 1813.643 -262.04 1816.687 -258.996 1816.687 -255.24 Z" fill="white"/>
  <path d="M 1570.753 -224.99 C 1570.753 -175.285 1530.458 -134.99 1480.753 -134.99 C 1431.048 -134.99 1390.753 -175.285 1390.753 -224.99 C 1390.753 -274.697 1431.048 -314.99 1480.753 -314.99 C 1530.458 -314.99 1570.753 -274.697 1570.753 -224.99 Z" fill="#010201"/>
  <path fill-rule="evenodd" clip-rule="evenodd" d="M 1480.753 -291.657 C 1442.446 -291.657 1412.753 -263.597 1412.753 -225.697 C 1412.753 -205.873 1420.878 -188.742 1434.109 -176.91 C 1435.219 -175.916 1435.889 -174.524 1435.935 -173.032 L 1436.305 -160.937 C 1436.423 -157.078 1440.409 -154.568 1443.939 -156.126 L 1457.437 -162.085 C 1458.581 -162.589 1459.863 -162.682 1461.069 -162.35 C 1467.271 -160.645 1473.873 -159.737 1480.753 -159.737 C 1519.06 -159.737 1548.753 -187.797 1548.753 -225.697 C 1548.753 -263.597 1519.06 -291.657 1480.753 -291.657" fill="white"/>
  <path fill-rule="evenodd" clip-rule="evenodd" d="M 1439.918 -206.408 L 1459.894 -238.098 C 1463.071 -243.14 1469.875 -244.394 1474.642 -240.82 L 1490.53 -228.904 C 1491.987 -227.81 1493.994 -227.817 1495.445 -228.918 L 1516.901 -245.202 C 1519.765 -247.376 1523.503 -243.948 1521.586 -240.906 L 1501.611 -209.216 C 1498.434 -204.174 1491.63 -202.92 1486.862 -206.494 L 1470.975 -218.41 C 1469.518 -219.504 1467.511 -219.498 1466.061 -218.396 L 1444.605 -202.112 C 1441.741 -199.94 1438.002 -203.366 1439.918 -206.408 Z" fill="#010201"/>
  <path d="M 2168.526 -224.99 C 2168.526 -175.285 2128.236 -134.99 2078.526 -134.99 C 2028.821 -134.99 1988.526 -175.285 1988.526 -224.99 C 1988.526 -274.697 2028.821 -314.99 2078.526 -314.99 C 2128.236 -314.99 2168.526 -274.697 2168.526 -224.99 Z" fill="#010201"/>
  <path fill-rule="evenodd" clip-rule="evenodd" d="M 2107.466 -214.892 C 2106.036 -215.605 2099.026 -219.056 2097.716 -219.532 C 2096.406 -220.006 2095.456 -220.245 2094.506 -218.817 C 2093.556 -217.39 2090.819 -214.177 2089.987 -213.225 C 2089.155 -212.274 2088.323 -212.154 2086.897 -212.869 C 2085.47 -213.582 2080.874 -215.088 2075.425 -219.948 C 2071.183 -223.728 2068.321 -228.398 2067.489 -229.826 C 2066.657 -231.254 2067.399 -232.026 2068.114 -232.737 C 2068.755 -233.376 2069.541 -234.402 2070.254 -235.236 C 2070.967 -236.068 2071.205 -236.664 2071.679 -237.614 C 2072.157 -238.566 2071.918 -239.4 2071.561 -240.113 C 2071.205 -240.828 2068.351 -247.846 2067.163 -250.702 C 2066.005 -253.482 2064.83 -253.106 2063.953 -253.15 C 2063.122 -253.192 2062.17 -253.2 2061.219 -253.2 C 2060.269 -253.2 2058.723 -252.844 2057.415 -251.416 C 2056.107 -249.988 2052.422 -246.538 2052.422 -239.518 C 2052.422 -232.5 2057.534 -225.718 2058.247 -224.766 C 2058.961 -223.814 2068.306 -209.409 2082.617 -203.232 C 2086.021 -201.762 2088.678 -200.885 2090.75 -200.228 C 2094.166 -199.142 2097.276 -199.296 2099.736 -199.662 C 2102.476 -200.072 2108.176 -203.113 2109.366 -206.445 C 2110.556 -209.776 2110.556 -212.63 2110.196 -213.225 C 2109.836 -213.82 2108.886 -214.177 2107.466 -214.892 L 2107.466 -214.892 Z M 2081.433 -179.362 L 2081.413 -179.362 C 2072.898 -179.365 2064.547 -181.652 2057.261 -185.974 L 2055.527 -187.004 L 2037.567 -182.293 L 2042.362 -199.798 L 2041.233 -201.593 C 2036.483 -209.146 2033.974 -217.876 2033.978 -226.84 C 2033.989 -252.996 2055.277 -274.276 2081.451 -274.276 C 2094.126 -274.27 2106.046 -269.329 2114.996 -260.364 C 2123.956 -251.396 2128.886 -239.477 2128.886 -226.801 C 2128.876 -200.642 2107.586 -179.362 2081.433 -179.362 Z M 2121.816 -267.176 C 2111.036 -277.965 2096.706 -283.909 2081.433 -283.916 C 2049.962 -283.916 2024.35 -258.313 2024.338 -226.842 C 2024.334 -216.784 2026.963 -206.965 2031.959 -198.309 L 2023.859 -168.733 L 2054.125 -176.67 C 2062.465 -172.122 2071.854 -169.726 2081.409 -169.722 L 2081.433 -169.722 C 2081.435 -169.722 2081.431 -169.722 2081.433 -169.722 C 2112.896 -169.722 2138.516 -195.328 2138.526 -226.797 C 2138.536 -242.048 2132.596 -256.389 2121.816 -267.176" fill="white"/>
  <path fill-rule="evenodd" clip-rule="evenodd" d="M 2467.416 -224.99 C 2467.416 -175.285 2427.116 -134.99 2377.416 -134.99 C 2327.706 -134.99 2287.416 -175.285 2287.416 -224.99 C 2287.416 -274.697 2327.706 -314.99 2377.416 -314.99 C 2427.116 -314.99 2467.416 -274.697 2467.416 -224.99 Z" fill="#010201"/>
  <path d="M 1271.866 -224.99 C 1271.866 -274.697 1231.571 -314.99 1181.867 -314.99 C 1132.161 -314.99 1091.866 -274.697 1091.866 -224.99 C 1091.866 -180.069 1124.779 -142.836 1167.804 -136.085 L 1167.804 -198.976 L 1144.952 -198.976 L 1144.952 -224.99 L 1167.804 -224.99 L 1167.804 -244.818 C 1167.804 -267.374 1181.241 -279.834 1201.798 -279.834 C 1211.645 -279.834 1221.945 -278.077 1221.945 -278.077 L 1221.945 -255.928 L 1210.595 -255.928 C 1199.415 -255.928 1195.929 -248.99 1195.929 -241.873 L 1195.929 -224.99 L 1220.89 -224.99 L 1216.899 -198.976 L 1195.929 -198.976 L 1195.929 -136.085 C 1238.954 -142.836 1271.866 -180.069 1271.866 -224.99" fill="#010201"/>
  <path d="M 1271.866 -224.99 C 1271.866 -274.697 1231.571 -314.99 1181.867 -314.99 C 1132.161 -314.99 1091.866 -274.697 1091.866 -224.99 C 1091.866 -180.069 1124.779 -142.836 1167.804 -136.085 L 1167.804 -198.976 L 1144.952 -198.976 L 1144.952 -224.99 L 1167.804 -224.99 L 1167.804 -244.818 C 1167.804 -267.374 1181.241 -279.834 1201.798 -279.834 C 1211.645 -279.834 1221.945 -278.077 1221.945 -278.077 L 1221.945 -255.928 L 1210.595 -255.928 C 1199.415 -255.928 1195.929 -248.99 1195.929 -241.873 L 1195.929 -224.99 L 1220.89 -224.99 L 1216.899 -198.976 L 1195.929 -198.976 L 1195.929 -136.085 C 1238.954 -142.836 1271.866 -180.069 1271.866 -224.99" fill="#010201"/>
  <path d="M 1216.899 -198.976 L 1220.89 -224.99 L 1195.929 -224.99 L 1195.929 -241.873 C 1195.929 -248.99 1199.415 -255.928 1210.595 -255.928 L 1221.945 -255.928 L 1221.945 -278.077 C 1221.945 -278.077 1211.645 -279.834 1201.798 -279.834 C 1181.241 -279.834 1167.804 -267.374 1167.804 -244.818 L 1167.804 -224.99 L 1144.952 -224.99 L 1144.952 -198.976 L 1167.804 -198.976 L 1167.804 -136.085 C 1172.387 -135.365 1177.083 -134.99 1181.867 -134.99 C 1186.651 -134.99 1191.347 -135.365 1195.929 -136.085 L 1195.929 -198.976 L 1216.899 -198.976 Z" fill="white"/>
  <path d="M 2424.446 -265.541 C 2424.106 -266.554 2423.696 -266.821 2423.056 -267.074 C 2421.656 -267.594 2419.276 -266.807 2419.276 -266.807 C 2419.276 -266.807 2335.166 -236.567 2330.356 -233.221 C 2329.326 -232.501 2328.976 -232.074 2328.806 -231.581 C 2327.976 -229.207 2330.566 -228.154 2330.566 -228.154 L 2352.246 -221.087 C 2352.246 -221.087 2353.046 -220.967 2353.336 -221.154 C 2358.266 -224.274 2402.956 -252.487 2405.536 -253.434 C 2405.946 -253.554 2406.246 -253.421 2406.166 -253.141 C 2405.136 -249.514 2366.316 -215.021 2366.316 -215.021 C 2366.316 -215.021 2366.166 -214.834 2366.076 -214.621 L 2366.026 -214.647 L 2364.006 -193.141 C 2364.006 -193.141 2363.156 -186.554 2369.746 -193.141 C 2374.386 -197.794 2378.886 -201.687 2381.136 -203.567 C 2388.596 -198.421 2396.616 -192.727 2400.076 -189.754 C 2401.816 -188.261 2403.276 -188.021 2404.466 -188.061 C 2407.756 -188.181 2408.676 -191.794 2408.676 -191.794 C 2408.676 -191.794 2424.006 -253.487 2424.516 -261.754 C 2424.566 -262.567 2424.636 -263.074 2424.636 -263.634 C 2424.646 -264.407 2424.576 -265.181 2424.446 -265.541" fill="white"/>
  <path d="M 1775.6 -91.729 C 1825.306 -91.729 1865.6 -51.436 1865.6 -1.729 C 1865.6 47.976 1825.306 88.271 1775.6 88.271 C 1725.895 88.271 1685.6 47.976 1685.6 -1.729 C 1685.6 -51.436 1725.895 -91.729 1775.6 -91.729 Z" style="fill: rgb(102, 102, 102);"/>
  <path d="M 1775.6 -58.396 C 1760.21 -58.396 1758.28 -58.331 1752.236 -58.055 C 1746.206 -57.78 1742.086 -56.823 1738.482 -55.422 C 1734.755 -53.974 1731.595 -52.036 1728.444 -48.886 C 1725.294 -45.735 1723.356 -42.575 1721.908 -38.848 C 1720.508 -35.244 1719.55 -31.125 1719.275 -25.093 C 1718.999 -19.048 1718.934 -17.12 1718.934 -1.73 C 1718.934 13.66 1718.999 15.591 1719.275 21.635 C 1719.55 27.665 1720.508 31.785 1721.908 35.389 C 1723.356 39.116 1725.294 42.276 1728.444 45.425 C 1731.595 48.576 1734.755 50.513 1738.482 51.963 C 1742.086 53.363 1746.206 54.321 1752.236 54.596 C 1758.28 54.872 1760.21 54.937 1775.6 54.937 C 1790.99 54.937 1792.919 54.872 1798.963 54.596 C 1804.995 54.321 1809.115 53.363 1812.719 51.963 C 1816.446 50.513 1819.606 48.576 1822.756 45.425 C 1825.906 42.276 1827.844 39.116 1829.292 35.389 C 1830.692 31.785 1831.651 27.665 1831.926 21.635 C 1832.202 15.591 1832.267 13.66 1832.267 -1.73 C 1832.267 -17.119 1832.202 -19.048 1831.926 -25.093 C 1831.651 -31.125 1830.692 -35.244 1829.292 -38.848 C 1827.844 -42.575 1825.906 -45.735 1822.756 -48.886 C 1819.606 -52.036 1816.446 -53.974 1812.719 -55.422 C 1809.115 -56.823 1804.995 -57.78 1798.963 -58.055 C 1792.919 -58.331 1790.99 -58.396 1775.6 -58.396 Z M 1775.6 -48.186 C 1790.731 -48.186 1792.523 -48.128 1798.499 -47.856 C 1804.023 -47.603 1807.023 -46.68 1809.02 -45.904 C 1811.666 -44.876 1813.554 -43.648 1815.536 -41.665 C 1817.519 -39.683 1818.747 -37.795 1819.775 -35.151 C 1820.551 -33.154 1821.474 -30.154 1821.727 -24.628 C 1821.999 -18.652 1822.056 -16.86 1822.056 -1.73 C 1822.056 13.401 1821.999 15.193 1821.727 21.169 C 1821.474 26.693 1820.551 29.695 1819.775 31.691 C 1818.747 34.336 1817.519 36.224 1815.536 38.207 C 1813.554 40.189 1811.666 41.417 1809.02 42.445 C 1807.023 43.221 1804.023 44.145 1798.499 44.396 C 1792.523 44.669 1790.732 44.726 1775.6 44.726 C 1760.468 44.726 1758.676 44.669 1752.702 44.396 C 1747.178 44.145 1744.176 43.221 1742.18 42.445 C 1739.535 41.417 1737.647 40.189 1735.664 38.207 C 1733.682 36.224 1732.454 34.336 1731.426 31.691 C 1730.65 29.695 1729.727 26.693 1729.474 21.169 C 1729.202 15.193 1729.144 13.401 1729.144 -1.73 C 1729.144 -16.86 1729.202 -18.652 1729.474 -24.628 C 1729.727 -30.154 1730.65 -33.154 1731.426 -35.151 C 1732.454 -37.795 1733.68 -39.683 1735.664 -41.665 C 1737.647 -43.648 1739.535 -44.876 1742.18 -45.904 C 1744.176 -46.68 1747.178 -47.603 1752.702 -47.856 C 1758.678 -48.128 1760.47 -48.186 1775.6 -48.186 Z" fill="white"/>
  <path d="M 1775.6 17.16 C 1765.168 17.16 1756.711 8.703 1756.711 -1.729 C 1756.711 -12.161 1765.168 -20.619 1775.6 -20.619 C 1786.032 -20.619 1794.49 -12.161 1794.49 -1.729 C 1794.49 8.703 1786.032 17.16 1775.6 17.16 Z M 1775.6 -30.828 C 1759.53 -30.828 1746.502 -17.8 1746.502 -1.729 C 1746.502 14.341 1759.53 27.369 1775.6 27.369 C 1791.671 27.369 1804.699 14.341 1804.699 -1.729 C 1804.699 -17.8 1791.671 -30.828 1775.6 -30.828 Z" fill="white"/>
  <path d="M 1812.648 -31.979 C 1812.648 -28.223 1809.604 -25.179 1805.85 -25.179 C 1802.094 -25.179 1799.05 -28.223 1799.05 -31.979 C 1799.05 -35.735 1802.094 -38.779 1805.85 -38.779 C 1809.604 -38.779 1812.648 -35.735 1812.648 -31.979 Z" fill="white"/>
  <path d="M 1566.714 -1.729 C 1566.714 47.976 1526.419 88.271 1476.714 88.271 C 1427.009 88.271 1386.714 47.976 1386.714 -1.729 C 1386.714 -51.436 1427.009 -91.729 1476.714 -91.729 C 1526.419 -91.729 1566.714 -51.436 1566.714 -1.729 Z" style="fill: rgb(102, 102, 102);"/>
  <path fill-rule="evenodd" clip-rule="evenodd" d="M 1476.714 -68.396 C 1438.407 -68.396 1408.714 -40.336 1408.714 -2.436 C 1408.714 17.388 1416.839 34.519 1430.07 46.351 C 1431.18 47.345 1431.85 48.737 1431.896 50.229 L 1432.266 62.324 C 1432.384 66.183 1436.37 68.693 1439.9 67.135 L 1453.398 61.176 C 1454.542 60.672 1455.824 60.579 1457.03 60.911 C 1463.232 62.616 1469.834 63.524 1476.714 63.524 C 1515.021 63.524 1544.714 35.464 1544.714 -2.436 C 1544.714 -40.336 1515.021 -68.396 1476.714 -68.396" fill="white"/>
  <path fill-rule="evenodd" clip-rule="evenodd" d="M 1435.879 16.853 L 1455.855 -14.837 C 1459.032 -19.879 1465.836 -21.133 1470.603 -17.559 L 1486.491 -5.643 C 1487.948 -4.549 1489.955 -4.556 1491.406 -5.657 L 1512.862 -21.941 C 1515.726 -24.115 1519.464 -20.687 1517.547 -17.645 L 1497.572 14.045 C 1494.395 19.087 1487.591 20.341 1482.823 16.767 L 1466.936 4.851 C 1465.479 3.757 1463.472 3.763 1462.022 4.865 L 1440.566 21.149 C 1437.702 23.321 1433.963 19.895 1435.879 16.853 Z" style="fill: rgb(102, 102, 102);"/>
  <path d="M 2164.487 -1.729 C 2164.487 47.976 2124.197 88.271 2074.487 88.271 C 2024.782 88.271 1984.487 47.976 1984.487 -1.729 C 1984.487 -51.436 2024.782 -91.729 2074.487 -91.729 C 2124.197 -91.729 2164.487 -51.436 2164.487 -1.729 Z" style="fill: rgb(102, 102, 102);"/>
  <path fill-rule="evenodd" clip-rule="evenodd" d="M 2103.427 8.369 C 2101.997 7.656 2094.987 4.205 2093.677 3.729 C 2092.367 3.255 2091.417 3.016 2090.467 4.444 C 2089.517 5.871 2086.78 9.084 2085.948 10.036 C 2085.116 10.987 2084.284 11.107 2082.858 10.392 C 2081.431 9.679 2076.835 8.173 2071.386 3.313 C 2067.144 -0.467 2064.282 -5.137 2063.45 -6.565 C 2062.618 -7.993 2063.36 -8.765 2064.075 -9.476 C 2064.716 -10.115 2065.502 -11.141 2066.215 -11.975 C 2066.928 -12.807 2067.166 -13.403 2067.64 -14.353 C 2068.118 -15.305 2067.879 -16.139 2067.522 -16.852 C 2067.166 -17.567 2064.312 -24.585 2063.124 -27.441 C 2061.966 -30.221 2060.791 -29.845 2059.914 -29.889 C 2059.083 -29.931 2058.131 -29.939 2057.18 -29.939 C 2056.23 -29.939 2054.684 -29.583 2053.376 -28.155 C 2052.068 -26.727 2048.383 -23.277 2048.383 -16.257 C 2048.383 -9.239 2053.495 -2.457 2054.208 -1.505 C 2054.922 -0.553 2064.267 13.852 2078.578 20.029 C 2081.982 21.499 2084.639 22.376 2086.711 23.033 C 2090.127 24.119 2093.237 23.965 2095.697 23.599 C 2098.437 23.189 2104.137 20.148 2105.327 16.816 C 2106.517 13.485 2106.517 10.631 2106.157 10.036 C 2105.797 9.441 2104.847 9.084 2103.427 8.369 L 2103.427 8.369 Z M 2077.394 43.899 L 2077.374 43.899 C 2068.859 43.896 2060.508 41.609 2053.222 37.287 L 2051.488 36.257 L 2033.528 40.968 L 2038.323 23.463 L 2037.194 21.668 C 2032.444 14.115 2029.935 5.385 2029.939 -3.579 C 2029.95 -29.735 2051.238 -51.015 2077.412 -51.015 C 2090.087 -51.009 2102.007 -46.068 2110.957 -37.103 C 2119.917 -28.135 2124.847 -16.216 2124.847 -3.54 C 2124.837 22.619 2103.547 43.899 2077.394 43.899 Z M 2117.777 -43.915 C 2106.997 -54.704 2092.667 -60.648 2077.394 -60.655 C 2045.923 -60.655 2020.311 -35.052 2020.299 -3.581 C 2020.295 6.477 2022.924 16.296 2027.92 24.952 L 2019.82 54.528 L 2050.086 46.591 C 2058.426 51.139 2067.815 53.535 2077.37 53.539 L 2077.394 53.539 C 2077.396 53.539 2077.392 53.539 2077.394 53.539 C 2108.857 53.539 2134.477 27.933 2134.487 -3.536 C 2134.497 -18.787 2128.557 -33.128 2117.777 -43.915" fill="white"/>
  <path fill-rule="evenodd" clip-rule="evenodd" d="M 2463.377 -1.729 C 2463.377 47.976 2423.077 88.271 2373.377 88.271 C 2323.667 88.271 2283.377 47.976 2283.377 -1.729 C 2283.377 -51.436 2323.667 -91.729 2373.377 -91.729 C 2423.077 -91.729 2463.377 -51.436 2463.377 -1.729 Z" style="fill: rgb(102, 102, 102);"/>
  <path d="M 300 210 C 300 160.293 259.705 120 210.001 120 C 160.295 120 120 160.293 120 210 C 120 254.921 152.913 292.154 195.938 298.905 L 195.938 236.014 L 173.086 236.014 L 173.086 210 L 195.938 210 L 195.938 190.172 C 195.938 167.616 209.375 155.156 229.932 155.156 C 239.779 155.156 250.079 156.913 250.079 156.913 L 250.079 179.062 L 238.729 179.062 C 227.549 179.062 224.063 186 224.063 193.117 L 224.063 210 L 249.024 210 L 245.033 236.014 L 224.063 236.014 L 224.063 298.905 C 267.088 292.154 300 254.921 300 210" fill="#010201"/>
  <path d="M 300 210 C 300 160.293 259.705 120 210.001 120 C 160.295 120 120 160.293 120 210 C 120 254.921 152.913 292.154 195.938 298.905 L 195.938 236.014 L 173.086 236.014 L 173.086 210 L 195.938 210 L 195.938 190.172 C 195.938 167.616 209.375 155.156 229.932 155.156 C 239.779 155.156 250.079 156.913 250.079 156.913 L 250.079 179.062 L 238.729 179.062 C 227.549 179.062 224.063 186 224.063 193.117 L 224.063 210 L 249.024 210 L 245.033 236.014 L 224.063 236.014 L 224.063 298.905 C 267.088 292.154 300 254.921 300 210" style="paint-order: fill; fill: rgb(179, 179, 179);"/>
  <path d="M 245.033 236.014 L 249.024 210 L 224.063 210 L 224.063 193.117 C 224.063 186 227.549 179.062 238.729 179.062 L 250.079 179.062 L 250.079 156.913 C 250.079 156.913 239.779 155.156 229.932 155.156 C 209.375 155.156 195.938 167.616 195.938 190.172 L 195.938 210 L 173.086 210 L 173.086 236.014 L 195.938 236.014 L 195.938 298.905 C 200.521 299.625 205.217 300 210.001 300 C 214.785 300 219.481 299.625 224.063 298.905 L 224.063 236.014 L 245.033 236.014 Z" style=""/>
  <path d="M 2420.407 -42.28 C 2420.067 -43.293 2419.657 -43.56 2419.017 -43.813 C 2417.617 -44.333 2415.237 -43.546 2415.237 -43.546 C 2415.237 -43.546 2331.127 -13.306 2326.317 -9.96 C 2325.287 -9.24 2324.937 -8.813 2324.767 -8.32 C 2323.937 -5.946 2326.527 -4.893 2326.527 -4.893 L 2348.207 2.174 C 2348.207 2.174 2349.007 2.294 2349.297 2.107 C 2354.227 -1.013 2398.917 -29.226 2401.497 -30.173 C 2401.907 -30.293 2402.207 -30.16 2402.127 -29.88 C 2401.097 -26.253 2362.277 8.24 2362.277 8.24 C 2362.277 8.24 2362.127 8.427 2362.037 8.64 L 2361.987 8.614 L 2359.967 30.12 C 2359.967 30.12 2359.117 36.707 2365.707 30.12 C 2370.347 25.467 2374.847 21.574 2377.097 19.694 C 2384.557 24.84 2392.577 30.534 2396.037 33.507 C 2397.777 35 2399.237 35.24 2400.427 35.2 C 2403.717 35.08 2404.637 31.467 2404.637 31.467 C 2404.637 31.467 2419.967 -30.226 2420.477 -38.493 C 2420.527 -39.306 2420.597 -39.813 2420.597 -40.373 C 2420.607 -41.146 2420.537 -41.92 2420.407 -42.28" fill="white"/>
</svg>