<svg id="Слой_1" data-name="Слой 1" xmlns="http://www.w3.org/2000/svg" viewBox="0 0 180 180"><defs><style>.cls-1{fill:#010201;}.cls-2{fill:#636363;}</style></defs><path class="cls-1" d="M182,92.45A90,90,0,1,0,77.92,181.36V118.47H55.06v-26H77.92V72.62c0-22.55,13.43-35,34-35a138.26,138.26,0,0,1,20.15,1.76V61.51H120.71c-11.18,0-14.67,6.94-14.67,14.06V92.45h25l-4,26H106v62.89A90,90,0,0,0,182,92.45" transform="translate(-1.98 -2.45)"/><path class="cls-2" d="M182,92.45A90,90,0,1,0,77.92,181.36V118.47H55.06v-26H77.92V72.62c0-22.55,13.43-35,34-35a138.26,138.26,0,0,1,20.15,1.76V61.51H120.71c-11.18,0-14.67,6.94-14.67,14.06V92.45h25l-4,26H106v62.89A90,90,0,0,0,182,92.45" transform="translate(-1.98 -2.45)"/><path d="M127,118.47l4-26H106V75.57c0-7.12,3.49-14.06,14.67-14.06h11.35V39.37a138.26,138.26,0,0,0-20.15-1.76c-20.56,0-34,12.46-34,35V92.45H55.06v26H77.92v62.89a91.23,91.23,0,0,0,28.12,0V118.47Z" transform="translate(-1.98 -2.45)"/></svg>