<svg id="Слой_1" data-name="Слой 1" xmlns="http://www.w3.org/2000/svg" viewBox="0 0 180 180"><defs><style>.cls-1{fill:#b3b3b3;}</style></defs><path class="cls-1" d="M90,0A90,90,0,1,1,0,90,90,90,0,0,1,90,0Z" transform="translate(-0.03 0.01)"/><path d="M90,33.32c-15.39,0-17.33.07-23.37.34A41.67,41.67,0,0,0,52.91,36.3,29,29,0,0,0,36.33,52.87,41.45,41.45,0,0,0,33.7,66.63c-.28,6-.34,8-.34,23.36s.06,17.32.34,23.36a41.56,41.56,0,0,0,2.63,13.76,29,29,0,0,0,16.58,16.57,41.67,41.67,0,0,0,13.75,2.64c6,.27,8,.34,23.37.34s17.31-.07,23.36-.34a41.67,41.67,0,0,0,13.75-2.64,29,29,0,0,0,16.58-16.57,41.56,41.56,0,0,0,2.63-13.76c.28-6,.34-8,.34-23.36s-.06-17.32-.34-23.36a41.45,41.45,0,0,0-2.63-13.76A29,29,0,0,0,127.14,36.3a41.67,41.67,0,0,0-13.75-2.64C107.34,33.39,105.42,33.32,90,33.32Zm0,10.21c15.13,0,16.92.06,22.89.33a31.64,31.64,0,0,1,10.52,2A18.76,18.76,0,0,1,134.2,56.57a31.12,31.12,0,0,1,2,10.52c.27,6,.33,7.77.33,22.9s-.06,16.92-.33,22.9a31.24,31.24,0,0,1-2,10.52,17.66,17.66,0,0,1-4.24,6.52,17.43,17.43,0,0,1-6.52,4.23,31.12,31.12,0,0,1-10.52,2c-6,.28-7.76.33-22.89.33s-16.93-.05-22.9-.33a31.12,31.12,0,0,1-10.52-2,17.43,17.43,0,0,1-6.52-4.23,17.66,17.66,0,0,1-4.24-6.52,31.5,31.5,0,0,1-2-10.52c-.27-6-.33-7.77-.33-22.9s.06-16.92.33-22.9a31.38,31.38,0,0,1,2-10.52A18.76,18.76,0,0,1,56.61,45.81a31.64,31.64,0,0,1,10.52-2C73.1,43.59,74.89,43.53,90,43.53Z" transform="translate(-0.03 0.01)"/><path d="M90,108.88A18.89,18.89,0,1,1,108.92,90,18.89,18.89,0,0,1,90,108.88Zm0-48A29.1,29.1,0,1,0,119.12,90,29.1,29.1,0,0,0,90,60.89Z" transform="translate(-0.03 0.01)"/><path d="M127.07,59.74a6.8,6.8,0,1,1-6.79-6.8A6.79,6.79,0,0,1,127.07,59.74Z" transform="translate(-0.03 0.01)"/></svg>