<?xml version="1.0" encoding="utf-8"?>
<svg viewBox="0 0 500 500" xmlns="http://www.w3.org/2000/svg">
  <path d="M 210 120 C 259.706 120 300 160.293 300 210 C 300 259.705 259.706 300 210 300 C 160.295 300 120 259.705 120 210 C 120 160.293 160.295 120 210 120 Z" style="fill: rgb(99, 99, 99);"/>
  <path d="M 210 153.333 C 194.61 153.333 192.68 153.398 186.636 153.674 C 180.606 153.949 176.486 154.906 172.882 156.307 C 169.155 157.755 165.995 159.693 162.844 162.843 C 159.694 165.994 157.756 169.154 156.308 172.881 C 154.908 176.485 153.95 180.604 153.675 186.636 C 153.399 192.681 153.334 194.609 153.334 209.999 C 153.334 225.389 153.399 227.32 153.675 233.364 C 153.95 239.394 154.908 243.514 156.308 247.118 C 157.756 250.845 159.694 254.005 162.844 257.154 C 165.995 260.305 169.155 262.242 172.882 263.692 C 176.486 265.092 180.606 266.05 186.636 266.325 C 192.68 266.601 194.61 266.666 210 266.666 C 225.39 266.666 227.319 266.601 233.363 266.325 C 239.395 266.05 243.515 265.092 247.119 263.692 C 250.846 262.242 254.006 260.305 257.156 257.154 C 260.306 254.005 262.244 250.845 263.692 247.118 C 265.092 243.514 266.051 239.394 266.326 233.364 C 266.602 227.32 266.667 225.389 266.667 209.999 C 266.667 194.61 266.602 192.681 266.326 186.636 C 266.051 180.604 265.092 176.485 263.692 172.881 C 262.244 169.154 260.306 165.994 257.156 162.843 C 254.006 159.693 250.846 157.755 247.119 156.307 C 243.515 154.906 239.395 153.949 233.363 153.674 C 227.319 153.398 225.39 153.333 210 153.333 Z M 210 163.543 C 225.131 163.543 226.923 163.601 232.899 163.873 C 238.423 164.126 241.423 165.049 243.42 165.825 C 246.066 166.853 247.954 168.081 249.936 170.064 C 251.919 172.046 253.147 173.934 254.175 176.578 C 254.951 178.575 255.874 181.575 256.127 187.101 C 256.399 193.077 256.456 194.869 256.456 209.999 C 256.456 225.13 256.399 226.922 256.127 232.898 C 255.874 238.422 254.951 241.424 254.175 243.42 C 253.147 246.065 251.919 247.953 249.936 249.936 C 247.954 251.918 246.066 253.146 243.42 254.174 C 241.423 254.95 238.423 255.874 232.899 256.125 C 226.923 256.398 225.132 256.455 210 256.455 C 194.868 256.455 193.076 256.398 187.102 256.125 C 181.578 255.874 178.576 254.95 176.58 254.174 C 173.935 253.146 172.047 251.918 170.064 249.936 C 168.082 247.953 166.854 246.065 165.826 243.42 C 165.05 241.424 164.127 238.422 163.874 232.898 C 163.602 226.922 163.544 225.13 163.544 209.999 C 163.544 194.869 163.602 193.077 163.874 187.101 C 164.127 181.575 165.05 178.575 165.826 176.578 C 166.854 173.934 168.08 172.046 170.064 170.064 C 172.047 168.081 173.935 166.853 176.58 165.825 C 178.576 165.049 181.578 164.126 187.102 163.873 C 193.078 163.601 194.87 163.543 210 163.543 Z" style=""/>
  <path d="M 210 228.889 C 199.568 228.889 191.111 220.432 191.111 210 C 191.111 199.568 199.568 191.11 210 191.11 C 220.432 191.11 228.89 199.568 228.89 210 C 228.89 220.432 220.432 228.889 210 228.889 Z M 210 180.901 C 193.93 180.901 180.902 193.929 180.902 210 C 180.902 226.07 193.93 239.098 210 239.098 C 226.071 239.098 239.099 226.07 239.099 210 C 239.099 193.929 226.071 180.901 210 180.901 Z" style=""/>
  <path d="M 247.048 179.75 C 247.048 183.506 244.004 186.55 240.25 186.55 C 236.494 186.55 233.45 183.506 233.45 179.75 C 233.45 175.994 236.494 172.95 240.25 172.95 C 244.004 172.95 247.048 175.994 247.048 179.75 Z" style=""/>
  <path d="M 1570.753 -224.99 C 1570.753 -175.285 1530.458 -134.99 1480.753 -134.99 C 1431.048 -134.99 1390.753 -175.285 1390.753 -224.99 C 1390.753 -274.697 1431.048 -314.99 1480.753 -314.99 C 1530.458 -314.99 1570.753 -274.697 1570.753 -224.99 Z" fill="#010201"/>
  <path fill-rule="evenodd" clip-rule="evenodd" d="M 1480.753 -291.657 C 1442.446 -291.657 1412.753 -263.597 1412.753 -225.697 C 1412.753 -205.873 1420.878 -188.742 1434.109 -176.91 C 1435.219 -175.916 1435.889 -174.524 1435.935 -173.032 L 1436.305 -160.937 C 1436.423 -157.078 1440.409 -154.568 1443.939 -156.126 L 1457.437 -162.085 C 1458.581 -162.589 1459.863 -162.682 1461.069 -162.35 C 1467.271 -160.645 1473.873 -159.737 1480.753 -159.737 C 1519.06 -159.737 1548.753 -187.797 1548.753 -225.697 C 1548.753 -263.597 1519.06 -291.657 1480.753 -291.657" fill="white"/>
  <path fill-rule="evenodd" clip-rule="evenodd" d="M 1439.918 -206.408 L 1459.894 -238.098 C 1463.071 -243.14 1469.875 -244.394 1474.642 -240.82 L 1490.53 -228.904 C 1491.987 -227.81 1493.994 -227.817 1495.445 -228.918 L 1516.901 -245.202 C 1519.765 -247.376 1523.503 -243.948 1521.586 -240.906 L 1501.611 -209.216 C 1498.434 -204.174 1491.63 -202.92 1486.862 -206.494 L 1470.975 -218.41 C 1469.518 -219.504 1467.511 -219.498 1466.061 -218.396 L 1444.605 -202.112 C 1441.741 -199.94 1438.002 -203.366 1439.918 -206.408 Z" fill="#010201"/>
  <path d="M 2168.526 -224.99 C 2168.526 -175.285 2128.236 -134.99 2078.526 -134.99 C 2028.821 -134.99 1988.526 -175.285 1988.526 -224.99 C 1988.526 -274.697 2028.821 -314.99 2078.526 -314.99 C 2128.236 -314.99 2168.526 -274.697 2168.526 -224.99 Z" fill="#010201"/>
  <path fill-rule="evenodd" clip-rule="evenodd" d="M 2107.466 -214.892 C 2106.036 -215.605 2099.026 -219.056 2097.716 -219.532 C 2096.406 -220.006 2095.456 -220.245 2094.506 -218.817 C 2093.556 -217.39 2090.819 -214.177 2089.987 -213.225 C 2089.155 -212.274 2088.323 -212.154 2086.897 -212.869 C 2085.47 -213.582 2080.874 -215.088 2075.425 -219.948 C 2071.183 -223.728 2068.321 -228.398 2067.489 -229.826 C 2066.657 -231.254 2067.399 -232.026 2068.114 -232.737 C 2068.755 -233.376 2069.541 -234.402 2070.254 -235.236 C 2070.967 -236.068 2071.205 -236.664 2071.679 -237.614 C 2072.157 -238.566 2071.918 -239.4 2071.561 -240.113 C 2071.205 -240.828 2068.351 -247.846 2067.163 -250.702 C 2066.005 -253.482 2064.83 -253.106 2063.953 -253.15 C 2063.122 -253.192 2062.17 -253.2 2061.219 -253.2 C 2060.269 -253.2 2058.723 -252.844 2057.415 -251.416 C 2056.107 -249.988 2052.422 -246.538 2052.422 -239.518 C 2052.422 -232.5 2057.534 -225.718 2058.247 -224.766 C 2058.961 -223.814 2068.306 -209.409 2082.617 -203.232 C 2086.021 -201.762 2088.678 -200.885 2090.75 -200.228 C 2094.166 -199.142 2097.276 -199.296 2099.736 -199.662 C 2102.476 -200.072 2108.176 -203.113 2109.366 -206.445 C 2110.556 -209.776 2110.556 -212.63 2110.196 -213.225 C 2109.836 -213.82 2108.886 -214.177 2107.466 -214.892 L 2107.466 -214.892 Z M 2081.433 -179.362 L 2081.413 -179.362 C 2072.898 -179.365 2064.547 -181.652 2057.261 -185.974 L 2055.527 -187.004 L 2037.567 -182.293 L 2042.362 -199.798 L 2041.233 -201.593 C 2036.483 -209.146 2033.974 -217.876 2033.978 -226.84 C 2033.989 -252.996 2055.277 -274.276 2081.451 -274.276 C 2094.126 -274.27 2106.046 -269.329 2114.996 -260.364 C 2123.956 -251.396 2128.886 -239.477 2128.886 -226.801 C 2128.876 -200.642 2107.586 -179.362 2081.433 -179.362 Z M 2121.816 -267.176 C 2111.036 -277.965 2096.706 -283.909 2081.433 -283.916 C 2049.962 -283.916 2024.35 -258.313 2024.338 -226.842 C 2024.334 -216.784 2026.963 -206.965 2031.959 -198.309 L 2023.859 -168.733 L 2054.125 -176.67 C 2062.465 -172.122 2071.854 -169.726 2081.409 -169.722 L 2081.433 -169.722 C 2081.435 -169.722 2081.431 -169.722 2081.433 -169.722 C 2112.896 -169.722 2138.516 -195.328 2138.526 -226.797 C 2138.536 -242.048 2132.596 -256.389 2121.816 -267.176" fill="white"/>
  <path fill-rule="evenodd" clip-rule="evenodd" d="M 2467.416 -224.99 C 2467.416 -175.285 2427.116 -134.99 2377.416 -134.99 C 2327.706 -134.99 2287.416 -175.285 2287.416 -224.99 C 2287.416 -274.697 2327.706 -314.99 2377.416 -314.99 C 2427.116 -314.99 2467.416 -274.697 2467.416 -224.99 Z" fill="#010201"/>
  <path d="M 1271.866 -224.99 C 1271.866 -274.697 1231.571 -314.99 1181.867 -314.99 C 1132.161 -314.99 1091.866 -274.697 1091.866 -224.99 C 1091.866 -180.069 1124.779 -142.836 1167.804 -136.085 L 1167.804 -198.976 L 1144.952 -198.976 L 1144.952 -224.99 L 1167.804 -224.99 L 1167.804 -244.818 C 1167.804 -267.374 1181.241 -279.834 1201.798 -279.834 C 1211.645 -279.834 1221.945 -278.077 1221.945 -278.077 L 1221.945 -255.928 L 1210.595 -255.928 C 1199.415 -255.928 1195.929 -248.99 1195.929 -241.873 L 1195.929 -224.99 L 1220.89 -224.99 L 1216.899 -198.976 L 1195.929 -198.976 L 1195.929 -136.085 C 1238.954 -142.836 1271.866 -180.069 1271.866 -224.99" fill="#010201"/>
  <path d="M 1271.866 -224.99 C 1271.866 -274.697 1231.571 -314.99 1181.867 -314.99 C 1132.161 -314.99 1091.866 -274.697 1091.866 -224.99 C 1091.866 -180.069 1124.779 -142.836 1167.804 -136.085 L 1167.804 -198.976 L 1144.952 -198.976 L 1144.952 -224.99 L 1167.804 -224.99 L 1167.804 -244.818 C 1167.804 -267.374 1181.241 -279.834 1201.798 -279.834 C 1211.645 -279.834 1221.945 -278.077 1221.945 -278.077 L 1221.945 -255.928 L 1210.595 -255.928 C 1199.415 -255.928 1195.929 -248.99 1195.929 -241.873 L 1195.929 -224.99 L 1220.89 -224.99 L 1216.899 -198.976 L 1195.929 -198.976 L 1195.929 -136.085 C 1238.954 -142.836 1271.866 -180.069 1271.866 -224.99" fill="#010201"/>
  <path d="M 1216.899 -198.976 L 1220.89 -224.99 L 1195.929 -224.99 L 1195.929 -241.873 C 1195.929 -248.99 1199.415 -255.928 1210.595 -255.928 L 1221.945 -255.928 L 1221.945 -278.077 C 1221.945 -278.077 1211.645 -279.834 1201.798 -279.834 C 1181.241 -279.834 1167.804 -267.374 1167.804 -244.818 L 1167.804 -224.99 L 1144.952 -224.99 L 1144.952 -198.976 L 1167.804 -198.976 L 1167.804 -136.085 C 1172.387 -135.365 1177.083 -134.99 1181.867 -134.99 C 1186.651 -134.99 1191.347 -135.365 1195.929 -136.085 L 1195.929 -198.976 L 1216.899 -198.976 Z" fill="white"/>
  <path d="M 2424.446 -265.541 C 2424.106 -266.554 2423.696 -266.821 2423.056 -267.074 C 2421.656 -267.594 2419.276 -266.807 2419.276 -266.807 C 2419.276 -266.807 2335.166 -236.567 2330.356 -233.221 C 2329.326 -232.501 2328.976 -232.074 2328.806 -231.581 C 2327.976 -229.207 2330.566 -228.154 2330.566 -228.154 L 2352.246 -221.087 C 2352.246 -221.087 2353.046 -220.967 2353.336 -221.154 C 2358.266 -224.274 2402.956 -252.487 2405.536 -253.434 C 2405.946 -253.554 2406.246 -253.421 2406.166 -253.141 C 2405.136 -249.514 2366.316 -215.021 2366.316 -215.021 C 2366.316 -215.021 2366.166 -214.834 2366.076 -214.621 L 2366.026 -214.647 L 2364.006 -193.141 C 2364.006 -193.141 2363.156 -186.554 2369.746 -193.141 C 2374.386 -197.794 2378.886 -201.687 2381.136 -203.567 C 2388.596 -198.421 2396.616 -192.727 2400.076 -189.754 C 2401.816 -188.261 2403.276 -188.021 2404.466 -188.061 C 2407.756 -188.181 2408.676 -191.794 2408.676 -191.794 C 2408.676 -191.794 2424.006 -253.487 2424.516 -261.754 C 2424.566 -262.567 2424.636 -263.074 2424.636 -263.634 C 2424.646 -264.407 2424.576 -265.181 2424.446 -265.541" fill="white"/>
  <path d="M 410 -780 C 459.706 -780 500 -739.707 500 -690 C 500 -640.295 459.706 -600 410 -600 C 360.295 -600 320 -640.295 320 -690 C 320 -739.707 360.295 -780 410 -780 Z" style="fill: rgb(102, 102, 102);"/>
  <path d="M 409.824 -750.712 C 394.434 -750.712 392.504 -750.647 386.46 -750.371 C 380.43 -750.096 376.31 -749.139 372.706 -747.738 C 368.979 -746.29 365.819 -744.352 362.668 -741.202 C 359.518 -738.051 357.58 -734.891 356.132 -731.164 C 354.732 -727.56 353.774 -723.441 353.499 -717.409 C 353.223 -711.364 353.158 -709.436 353.158 -694.046 C 353.158 -678.656 353.223 -676.725 353.499 -670.681 C 353.774 -664.651 354.732 -660.531 356.132 -656.927 C 357.58 -653.2 359.518 -650.04 362.668 -646.891 C 365.819 -643.74 368.979 -641.803 372.706 -640.353 C 376.31 -638.953 380.43 -637.995 386.46 -637.72 C 392.504 -637.444 394.434 -637.379 409.824 -637.379 C 425.214 -637.379 427.143 -637.444 433.187 -637.72 C 439.219 -637.995 443.339 -638.953 446.943 -640.353 C 450.67 -641.803 453.83 -643.74 456.98 -646.891 C 460.13 -650.04 462.068 -653.2 463.516 -656.927 C 464.916 -660.531 465.875 -664.651 466.15 -670.681 C 466.426 -676.725 466.491 -678.656 466.491 -694.046 C 466.491 -709.435 466.426 -711.364 466.15 -717.409 C 465.875 -723.441 464.916 -727.56 463.516 -731.164 C 462.068 -734.891 460.13 -738.051 456.98 -741.202 C 453.83 -744.352 450.67 -746.29 446.943 -747.738 C 443.339 -749.139 439.219 -750.096 433.187 -750.371 C 427.143 -750.647 425.214 -750.712 409.824 -750.712 Z M 409.824 -740.502 C 424.955 -740.502 426.747 -740.444 432.723 -740.172 C 438.247 -739.919 441.247 -738.996 443.244 -738.22 C 445.89 -737.192 447.778 -735.964 449.76 -733.981 C 451.743 -731.999 452.971 -730.111 453.999 -727.467 C 454.775 -725.47 455.698 -722.47 455.951 -716.944 C 456.223 -710.968 456.28 -709.176 456.28 -694.046 C 456.28 -678.915 456.223 -677.123 455.951 -671.147 C 455.698 -665.623 454.775 -662.621 453.999 -660.625 C 452.971 -657.98 451.743 -656.092 449.76 -654.109 C 447.778 -652.127 445.89 -650.899 443.244 -649.871 C 441.247 -649.095 438.247 -648.171 432.723 -647.92 C 426.747 -647.647 424.956 -647.59 409.824 -647.59 C 394.692 -647.59 392.9 -647.647 386.926 -647.92 C 381.402 -648.171 378.4 -649.095 376.404 -649.871 C 373.759 -650.899 371.871 -652.127 369.888 -654.109 C 367.906 -656.092 366.678 -657.98 365.65 -660.625 C 364.874 -662.621 363.951 -665.623 363.698 -671.147 C 363.426 -677.123 363.368 -678.915 363.368 -694.046 C 363.368 -709.176 363.426 -710.968 363.698 -716.944 C 363.951 -722.47 364.874 -725.47 365.65 -727.467 C 366.678 -730.111 367.904 -731.999 369.888 -733.981 C 371.871 -735.964 373.759 -737.192 376.404 -738.22 C 378.4 -738.996 381.402 -739.919 386.926 -740.172 C 392.902 -740.444 394.694 -740.502 409.824 -740.502 Z" style=""/>
  <path d="M 410.413 -676.91 C 399.981 -676.91 391.524 -685.367 391.524 -695.799 C 391.524 -706.231 399.981 -714.689 410.413 -714.689 C 420.845 -714.689 429.303 -706.231 429.303 -695.799 C 429.303 -685.367 420.845 -676.91 410.413 -676.91 Z M 410.413 -724.898 C 394.343 -724.898 381.315 -711.87 381.315 -695.799 C 381.315 -679.729 394.343 -666.701 410.413 -666.701 C 426.484 -666.701 439.512 -679.729 439.512 -695.799 C 439.512 -711.87 426.484 -724.898 410.413 -724.898 Z" style=""/>
  <path d="M 447.461 -726.049 C 447.461 -722.293 444.417 -719.249 440.663 -719.249 C 436.907 -719.249 433.863 -722.293 433.863 -726.049 C 433.863 -729.805 436.907 -732.849 440.663 -732.849 C 444.417 -732.849 447.461 -729.805 447.461 -726.049 Z" style=""/>
  <path d="M 1566.714 -1.729 C 1566.714 47.976 1526.419 88.271 1476.714 88.271 C 1427.009 88.271 1386.714 47.976 1386.714 -1.729 C 1386.714 -51.436 1427.009 -91.729 1476.714 -91.729 C 1526.419 -91.729 1566.714 -51.436 1566.714 -1.729 Z" style="fill: rgb(102, 102, 102);"/>
  <path fill-rule="evenodd" clip-rule="evenodd" d="M 1476.714 -68.396 C 1438.407 -68.396 1408.714 -40.336 1408.714 -2.436 C 1408.714 17.388 1416.839 34.519 1430.07 46.351 C 1431.18 47.345 1431.85 48.737 1431.896 50.229 L 1432.266 62.324 C 1432.384 66.183 1436.37 68.693 1439.9 67.135 L 1453.398 61.176 C 1454.542 60.672 1455.824 60.579 1457.03 60.911 C 1463.232 62.616 1469.834 63.524 1476.714 63.524 C 1515.021 63.524 1544.714 35.464 1544.714 -2.436 C 1544.714 -40.336 1515.021 -68.396 1476.714 -68.396" fill="white"/>
  <path fill-rule="evenodd" clip-rule="evenodd" d="M 1435.879 16.853 L 1455.855 -14.837 C 1459.032 -19.879 1465.836 -21.133 1470.603 -17.559 L 1486.491 -5.643 C 1487.948 -4.549 1489.955 -4.556 1491.406 -5.657 L 1512.862 -21.941 C 1515.726 -24.115 1519.464 -20.687 1517.547 -17.645 L 1497.572 14.045 C 1494.395 19.087 1487.591 20.341 1482.823 16.767 L 1466.936 4.851 C 1465.479 3.757 1463.472 3.763 1462.022 4.865 L 1440.566 21.149 C 1437.702 23.321 1433.963 19.895 1435.879 16.853 Z" style="fill: rgb(102, 102, 102);"/>
  <path d="M 2164.487 -1.729 C 2164.487 47.976 2124.197 88.271 2074.487 88.271 C 2024.782 88.271 1984.487 47.976 1984.487 -1.729 C 1984.487 -51.436 2024.782 -91.729 2074.487 -91.729 C 2124.197 -91.729 2164.487 -51.436 2164.487 -1.729 Z" style="fill: rgb(102, 102, 102);"/>
  <path fill-rule="evenodd" clip-rule="evenodd" d="M 2103.427 8.369 C 2101.997 7.656 2094.987 4.205 2093.677 3.729 C 2092.367 3.255 2091.417 3.016 2090.467 4.444 C 2089.517 5.871 2086.78 9.084 2085.948 10.036 C 2085.116 10.987 2084.284 11.107 2082.858 10.392 C 2081.431 9.679 2076.835 8.173 2071.386 3.313 C 2067.144 -0.467 2064.282 -5.137 2063.45 -6.565 C 2062.618 -7.993 2063.36 -8.765 2064.075 -9.476 C 2064.716 -10.115 2065.502 -11.141 2066.215 -11.975 C 2066.928 -12.807 2067.166 -13.403 2067.64 -14.353 C 2068.118 -15.305 2067.879 -16.139 2067.522 -16.852 C 2067.166 -17.567 2064.312 -24.585 2063.124 -27.441 C 2061.966 -30.221 2060.791 -29.845 2059.914 -29.889 C 2059.083 -29.931 2058.131 -29.939 2057.18 -29.939 C 2056.23 -29.939 2054.684 -29.583 2053.376 -28.155 C 2052.068 -26.727 2048.383 -23.277 2048.383 -16.257 C 2048.383 -9.239 2053.495 -2.457 2054.208 -1.505 C 2054.922 -0.553 2064.267 13.852 2078.578 20.029 C 2081.982 21.499 2084.639 22.376 2086.711 23.033 C 2090.127 24.119 2093.237 23.965 2095.697 23.599 C 2098.437 23.189 2104.137 20.148 2105.327 16.816 C 2106.517 13.485 2106.517 10.631 2106.157 10.036 C 2105.797 9.441 2104.847 9.084 2103.427 8.369 L 2103.427 8.369 Z M 2077.394 43.899 L 2077.374 43.899 C 2068.859 43.896 2060.508 41.609 2053.222 37.287 L 2051.488 36.257 L 2033.528 40.968 L 2038.323 23.463 L 2037.194 21.668 C 2032.444 14.115 2029.935 5.385 2029.939 -3.579 C 2029.95 -29.735 2051.238 -51.015 2077.412 -51.015 C 2090.087 -51.009 2102.007 -46.068 2110.957 -37.103 C 2119.917 -28.135 2124.847 -16.216 2124.847 -3.54 C 2124.837 22.619 2103.547 43.899 2077.394 43.899 Z M 2117.777 -43.915 C 2106.997 -54.704 2092.667 -60.648 2077.394 -60.655 C 2045.923 -60.655 2020.311 -35.052 2020.299 -3.581 C 2020.295 6.477 2022.924 16.296 2027.92 24.952 L 2019.82 54.528 L 2050.086 46.591 C 2058.426 51.139 2067.815 53.535 2077.37 53.539 L 2077.394 53.539 C 2077.396 53.539 2077.392 53.539 2077.394 53.539 C 2108.857 53.539 2134.477 27.933 2134.487 -3.536 C 2134.497 -18.787 2128.557 -33.128 2117.777 -43.915" fill="white"/>
  <path fill-rule="evenodd" clip-rule="evenodd" d="M 2463.377 -1.729 C 2463.377 47.976 2423.077 88.271 2373.377 88.271 C 2323.667 88.271 2283.377 47.976 2283.377 -1.729 C 2283.377 -51.436 2323.667 -91.729 2373.377 -91.729 C 2423.077 -91.729 2463.377 -51.436 2463.377 -1.729 Z" style="fill: rgb(102, 102, 102);"/>
  <path d="M 980 -710 C 980 -759.707 939.705 -800 890.001 -800 C 840.295 -800 800 -759.707 800 -710 C 800 -665.079 832.913 -627.846 875.938 -621.095 L 875.938 -683.986 L 853.086 -683.986 L 853.086 -710 L 875.938 -710 L 875.938 -729.828 C 875.938 -752.384 889.375 -764.844 909.932 -764.844 C 919.779 -764.844 930.079 -763.087 930.079 -763.087 L 930.079 -740.938 L 918.729 -740.938 C 907.549 -740.938 904.063 -734 904.063 -726.883 L 904.063 -710 L 929.024 -710 L 925.033 -683.986 L 904.063 -683.986 L 904.063 -621.095 C 947.088 -627.846 980 -665.079 980 -710" fill="#010201"/>
  <path d="M 980 -710 C 980 -759.707 939.705 -800 890.001 -800 C 840.295 -800 800 -759.707 800 -710 C 800 -665.079 832.913 -627.846 875.938 -621.095 L 875.938 -683.986 L 853.086 -683.986 L 853.086 -710 L 875.938 -710 L 875.938 -729.828 C 875.938 -752.384 889.375 -764.844 909.932 -764.844 C 919.779 -764.844 930.079 -763.087 930.079 -763.087 L 930.079 -740.938 L 918.729 -740.938 C 907.549 -740.938 904.063 -734 904.063 -726.883 L 904.063 -710 L 929.024 -710 L 925.033 -683.986 L 904.063 -683.986 L 904.063 -621.095 C 947.088 -627.846 980 -665.079 980 -710" style="paint-order: fill; fill: rgba(155, 152, 152, 0.7);"/>
  <path d="M 925.033 -683.986 L 929.024 -710 L 904.063 -710 L 904.063 -726.883 C 904.063 -734 907.549 -740.938 918.729 -740.938 L 930.079 -740.938 L 930.079 -763.087 C 930.079 -763.087 919.779 -764.844 909.932 -764.844 C 889.375 -764.844 875.938 -752.384 875.938 -729.828 L 875.938 -710 L 853.086 -710 L 853.086 -683.986 L 875.938 -683.986 L 875.938 -621.095 C 880.521 -620.375 885.217 -620 890.001 -620 C 894.785 -620 899.481 -620.375 904.063 -621.095 L 904.063 -683.986 L 925.033 -683.986 Z" style=""/>
  <path d="M 2420.407 -42.28 C 2420.067 -43.293 2419.657 -43.56 2419.017 -43.813 C 2417.617 -44.333 2415.237 -43.546 2415.237 -43.546 C 2415.237 -43.546 2331.127 -13.306 2326.317 -9.96 C 2325.287 -9.24 2324.937 -8.813 2324.767 -8.32 C 2323.937 -5.946 2326.527 -4.893 2326.527 -4.893 L 2348.207 2.174 C 2348.207 2.174 2349.007 2.294 2349.297 2.107 C 2354.227 -1.013 2398.917 -29.226 2401.497 -30.173 C 2401.907 -30.293 2402.207 -30.16 2402.127 -29.88 C 2401.097 -26.253 2362.277 8.24 2362.277 8.24 C 2362.277 8.24 2362.127 8.427 2362.037 8.64 L 2361.987 8.614 L 2359.967 30.12 C 2359.967 30.12 2359.117 36.707 2365.707 30.12 C 2370.347 25.467 2374.847 21.574 2377.097 19.694 C 2384.557 24.84 2392.577 30.534 2396.037 33.507 C 2397.777 35 2399.237 35.24 2400.427 35.2 C 2403.717 35.08 2404.637 31.467 2404.637 31.467 C 2404.637 31.467 2419.967 -30.226 2420.477 -38.493 C 2420.527 -39.306 2420.597 -39.813 2420.597 -40.373 C 2420.607 -41.146 2420.537 -41.92 2420.407 -42.28" fill="white"/>
</svg>