<svg id="Слой_1" data-name="Слой 1" xmlns="http://www.w3.org/2000/svg" viewBox="0 0 180 180"><defs><style>.cls-1{fill:#636363;}</style></defs><path class="cls-1" d="M92,2.32a90,90,0,1,1-90,90A90,90,0,0,1,92,2.32Z" transform="translate(-1.98 -2.32)"/><path d="M92,35.66c-15.39,0-17.32.06-23.37.34a41.44,41.44,0,0,0-13.75,2.63A29,29,0,0,0,38.29,55.21,41.67,41.67,0,0,0,35.65,69c-.27,6.05-.34,8-.34,23.36s.07,17.32.34,23.37a41.67,41.67,0,0,0,2.64,13.75A29,29,0,0,0,54.86,146a41.7,41.7,0,0,0,13.75,2.63c6,.28,8,.34,23.37.34s17.32-.06,23.36-.34A41.82,41.82,0,0,0,129.1,146a29,29,0,0,0,16.57-16.58,41.44,41.44,0,0,0,2.63-13.75c.28-6,.35-8,.35-23.37S148.58,75,148.3,69a41.44,41.44,0,0,0-2.63-13.75A29,29,0,0,0,129.1,38.63,41.56,41.56,0,0,0,115.34,36C109.3,35.72,107.37,35.66,92,35.66Zm0,10.21c15.13,0,16.92.06,22.9.33a31.24,31.24,0,0,1,10.52,1.95,17.62,17.62,0,0,1,6.51,4.24,17.37,17.37,0,0,1,4.24,6.51,31.44,31.44,0,0,1,2,10.53c.27,6,.32,7.76.32,22.89s-.05,16.93-.32,22.9a31.31,31.31,0,0,1-2,10.52,17.33,17.33,0,0,1-4.24,6.52,17.62,17.62,0,0,1-6.51,4.24,31.5,31.5,0,0,1-10.52,1.95c-6,.27-7.77.33-22.9.33s-16.93-.06-22.9-.33a31.44,31.44,0,0,1-10.52-1.95A18.76,18.76,0,0,1,47.8,125.74a31.64,31.64,0,0,1-1.95-10.52c-.27-6-.33-7.77-.33-22.9s.06-16.92.33-22.89A31.78,31.78,0,0,1,47.8,58.9,18.78,18.78,0,0,1,58.56,48.15,31.18,31.18,0,0,1,69.08,46.2C75.06,45.93,76.85,45.87,92,45.87Z" transform="translate(-1.98 -2.32)"/><path d="M92,111.21a18.89,18.89,0,1,1,18.89-18.89A18.89,18.89,0,0,1,92,111.21Zm0-48a29.1,29.1,0,1,0,29.1,29.09A29.09,29.09,0,0,0,92,63.23Z" transform="translate(-1.98 -2.32)"/><path d="M129,62.07a6.8,6.8,0,1,1-6.8-6.8A6.8,6.8,0,0,1,129,62.07Z" transform="translate(-1.98 -2.32)"/></svg>