<?xml version="1.0" encoding="utf-8"?>
<svg viewBox="0 0 1537.581 560.704" height="1600" width="1600" id="svg2" version="1.1" xmlns="http://www.w3.org/2000/svg">
  <path d="M 759.05 60.504 C 808.756 60.504 849.05 100.797 849.05 150.504 C 849.05 200.209 808.756 240.504 759.05 240.504 C 709.345 240.504 669.05 200.209 669.05 150.504 C 669.05 100.797 709.345 60.504 759.05 60.504 Z" fill="#010201"/>
  <path d="M 759.05 93.837 C 743.66 93.837 741.73 93.902 735.686 94.178 C 729.656 94.453 725.536 95.41 721.932 96.811 C 718.205 98.259 715.045 100.197 711.894 103.347 C 708.744 106.498 706.806 109.658 705.358 113.385 C 703.958 116.989 703 121.108 702.725 127.14 C 702.449 133.185 702.384 135.113 702.384 150.503 C 702.384 165.893 702.449 167.824 702.725 173.868 C 703 179.898 703.958 184.018 705.358 187.622 C 706.806 191.349 708.744 194.509 711.894 197.658 C 715.045 200.809 718.205 202.746 721.932 204.196 C 725.536 205.596 729.656 206.554 735.686 206.829 C 741.73 207.105 743.66 207.17 759.05 207.17 C 774.44 207.17 776.369 207.105 782.413 206.829 C 788.445 206.554 792.565 205.596 796.169 204.196 C 799.896 202.746 803.056 200.809 806.206 197.658 C 809.356 194.509 811.294 191.349 812.742 187.622 C 814.142 184.018 815.101 179.898 815.376 173.868 C 815.652 167.824 815.717 165.893 815.717 150.503 C 815.717 135.114 815.652 133.185 815.376 127.14 C 815.101 121.108 814.142 116.989 812.742 113.385 C 811.294 109.658 809.356 106.498 806.206 103.347 C 803.056 100.197 799.896 98.259 796.169 96.811 C 792.565 95.41 788.445 94.453 782.413 94.178 C 776.369 93.902 774.44 93.837 759.05 93.837 Z M 759.05 104.047 C 774.181 104.047 775.973 104.105 781.949 104.377 C 787.473 104.63 790.473 105.553 792.47 106.329 C 795.116 107.357 797.004 108.585 798.986 110.568 C 800.969 112.55 802.197 114.438 803.225 117.082 C 804.001 119.079 804.924 122.079 805.177 127.605 C 805.449 133.581 805.506 135.373 805.506 150.503 C 805.506 165.634 805.449 167.426 805.177 173.402 C 804.924 178.926 804.001 181.928 803.225 183.924 C 802.197 186.569 800.969 188.457 798.986 190.44 C 797.004 192.422 795.116 193.65 792.47 194.678 C 790.473 195.454 787.473 196.378 781.949 196.629 C 775.973 196.902 774.182 196.959 759.05 196.959 C 743.918 196.959 742.126 196.902 736.152 196.629 C 730.628 196.378 727.626 195.454 725.63 194.678 C 722.985 193.65 721.097 192.422 719.114 190.44 C 717.132 188.457 715.904 186.569 714.876 183.924 C 714.1 181.928 713.177 178.926 712.924 173.402 C 712.652 167.426 712.594 165.634 712.594 150.503 C 712.594 135.373 712.652 133.581 712.924 127.605 C 713.177 122.079 714.1 119.079 714.876 117.082 C 715.904 114.438 717.13 112.55 719.114 110.568 C 721.097 108.585 722.985 107.357 725.63 106.329 C 727.626 105.553 730.628 104.63 736.152 104.377 C 742.128 104.105 743.92 104.047 759.05 104.047 Z" fill="white"/>
  <path d="M 759.05 169.393 C 748.618 169.393 740.161 160.936 740.161 150.504 C 740.161 140.072 748.618 131.614 759.05 131.614 C 769.482 131.614 777.94 140.072 777.94 150.504 C 777.94 160.936 769.482 169.393 759.05 169.393 Z M 759.05 121.405 C 742.98 121.405 729.952 134.433 729.952 150.504 C 729.952 166.574 742.98 179.602 759.05 179.602 C 775.121 179.602 788.149 166.574 788.149 150.504 C 788.149 134.433 775.121 121.405 759.05 121.405 Z" fill="white"/>
  <path d="M 796.098 120.254 C 796.098 124.01 793.054 127.054 789.3 127.054 C 785.544 127.054 782.5 124.01 782.5 120.254 C 782.5 116.498 785.544 113.454 789.3 113.454 C 793.054 113.454 796.098 116.498 796.098 120.254 Z" fill="white"/>
  <path d="M 550.164 150.504 C 550.164 200.209 509.869 240.504 460.164 240.504 C 410.459 240.504 370.164 200.209 370.164 150.504 C 370.164 100.797 410.459 60.504 460.164 60.504 C 509.869 60.504 550.164 100.797 550.164 150.504 Z" fill="#010201"/>
  <path fill-rule="evenodd" clip-rule="evenodd" d="M 460.164 83.837 C 421.857 83.837 392.164 111.897 392.164 149.797 C 392.164 169.621 400.289 186.752 413.52 198.584 C 414.63 199.578 415.3 200.97 415.346 202.462 L 415.716 214.557 C 415.834 218.416 419.82 220.926 423.35 219.368 L 436.848 213.409 C 437.992 212.905 439.274 212.812 440.48 213.144 C 446.682 214.849 453.284 215.757 460.164 215.757 C 498.471 215.757 528.164 187.697 528.164 149.797 C 528.164 111.897 498.471 83.837 460.164 83.837" fill="white"/>
  <path fill-rule="evenodd" clip-rule="evenodd" d="M 419.329 169.086 L 439.305 137.396 C 442.482 132.354 449.286 131.1 454.053 134.674 L 469.941 146.59 C 471.398 147.684 473.405 147.677 474.856 146.576 L 496.312 130.292 C 499.176 128.118 502.914 131.546 500.997 134.588 L 481.022 166.278 C 477.845 171.32 471.041 172.574 466.273 169 L 450.386 157.084 C 448.929 155.99 446.922 155.996 445.472 157.098 L 424.016 173.382 C 421.152 175.554 417.413 172.128 419.329 169.086 Z" fill="#010201"/>
  <path d="M 1147.937 150.504 C 1147.937 200.209 1107.647 240.504 1057.937 240.504 C 1008.232 240.504 967.937 200.209 967.937 150.504 C 967.937 100.797 1008.232 60.504 1057.937 60.504 C 1107.647 60.504 1147.937 100.797 1147.937 150.504 Z" fill="#010201"/>
  <path fill-rule="evenodd" clip-rule="evenodd" d="M 1086.877 160.602 C 1085.447 159.889 1078.437 156.438 1077.127 155.962 C 1075.817 155.488 1074.867 155.249 1073.917 156.677 C 1072.967 158.104 1070.23 161.317 1069.398 162.269 C 1068.566 163.22 1067.734 163.34 1066.308 162.625 C 1064.881 161.912 1060.285 160.406 1054.836 155.546 C 1050.594 151.766 1047.732 147.096 1046.9 145.668 C 1046.068 144.24 1046.81 143.468 1047.525 142.757 C 1048.166 142.118 1048.952 141.092 1049.665 140.258 C 1050.378 139.426 1050.616 138.83 1051.09 137.88 C 1051.568 136.928 1051.329 136.094 1050.972 135.381 C 1050.616 134.666 1047.762 127.648 1046.574 124.792 C 1045.416 122.012 1044.241 122.388 1043.364 122.344 C 1042.533 122.302 1041.581 122.294 1040.63 122.294 C 1039.68 122.294 1038.134 122.65 1036.826 124.078 C 1035.518 125.506 1031.833 128.956 1031.833 135.976 C 1031.833 142.994 1036.945 149.776 1037.658 150.728 C 1038.372 151.68 1047.717 166.085 1062.028 172.262 C 1065.432 173.732 1068.089 174.609 1070.161 175.266 C 1073.577 176.352 1076.687 176.198 1079.147 175.832 C 1081.887 175.422 1087.587 172.381 1088.777 169.049 C 1089.967 165.718 1089.967 162.864 1089.607 162.269 C 1089.247 161.674 1088.297 161.317 1086.877 160.602 L 1086.877 160.602 Z M 1060.844 196.132 L 1060.824 196.132 C 1052.309 196.129 1043.958 193.842 1036.672 189.52 L 1034.938 188.49 L 1016.978 193.201 L 1021.773 175.696 L 1020.644 173.901 C 1015.894 166.348 1013.385 157.618 1013.389 148.654 C 1013.4 122.498 1034.688 101.218 1060.862 101.218 C 1073.537 101.224 1085.457 106.165 1094.407 115.13 C 1103.367 124.098 1108.297 136.017 1108.297 148.693 C 1108.287 174.852 1086.997 196.132 1060.844 196.132 Z M 1101.227 108.318 C 1090.447 97.529 1076.117 91.585 1060.844 91.578 C 1029.373 91.578 1003.761 117.181 1003.749 148.652 C 1003.745 158.71 1006.374 168.529 1011.37 177.185 L 1003.27 206.761 L 1033.536 198.824 C 1041.876 203.372 1051.265 205.768 1060.82 205.772 L 1060.844 205.772 C 1060.846 205.772 1060.842 205.772 1060.844 205.772 C 1092.307 205.772 1117.927 180.166 1117.937 148.697 C 1117.947 133.446 1112.007 119.105 1101.227 108.318" fill="white"/>
  <path fill-rule="evenodd" clip-rule="evenodd" d="M 1446.827 150.504 C 1446.827 200.209 1406.527 240.504 1356.827 240.504 C 1307.117 240.504 1266.827 200.209 1266.827 150.504 C 1266.827 100.797 1307.117 60.504 1356.827 60.504 C 1406.527 60.504 1446.827 100.797 1446.827 150.504 Z" fill="#010201"/>
  <path d="M 251.277 150.504 C 251.277 100.797 210.982 60.504 161.278 60.504 C 111.572 60.504 71.277 100.797 71.277 150.504 C 71.277 195.425 104.19 232.658 147.215 239.409 L 147.215 176.518 L 124.363 176.518 L 124.363 150.504 L 147.215 150.504 L 147.215 130.676 C 147.215 108.12 160.652 95.66 181.209 95.66 C 191.056 95.66 201.356 97.417 201.356 97.417 L 201.356 119.566 L 190.006 119.566 C 178.826 119.566 175.34 126.504 175.34 133.621 L 175.34 150.504 L 200.301 150.504 L 196.31 176.518 L 175.34 176.518 L 175.34 239.409 C 218.365 232.658 251.277 195.425 251.277 150.504" fill="#010201"/>
  <path d="M 251.277 150.504 C 251.277 100.797 210.982 60.504 161.278 60.504 C 111.572 60.504 71.277 100.797 71.277 150.504 C 71.277 195.425 104.19 232.658 147.215 239.409 L 147.215 176.518 L 124.363 176.518 L 124.363 150.504 L 147.215 150.504 L 147.215 130.676 C 147.215 108.12 160.652 95.66 181.209 95.66 C 191.056 95.66 201.356 97.417 201.356 97.417 L 201.356 119.566 L 190.006 119.566 C 178.826 119.566 175.34 126.504 175.34 133.621 L 175.34 150.504 L 200.301 150.504 L 196.31 176.518 L 175.34 176.518 L 175.34 239.409 C 218.365 232.658 251.277 195.425 251.277 150.504" fill="#010201"/>
  <path d="M 196.31 176.518 L 200.301 150.504 L 175.34 150.504 L 175.34 133.621 C 175.34 126.504 178.826 119.566 190.006 119.566 L 201.356 119.566 L 201.356 97.417 C 201.356 97.417 191.056 95.66 181.209 95.66 C 160.652 95.66 147.215 108.12 147.215 130.676 L 147.215 150.504 L 124.363 150.504 L 124.363 176.518 L 147.215 176.518 L 147.215 239.409 C 151.798 240.129 156.494 240.504 161.278 240.504 C 166.062 240.504 170.758 240.129 175.34 239.409 L 175.34 176.518 L 196.31 176.518 Z" fill="white"/>
  <path d="M 1403.857 109.953 C 1403.517 108.94 1403.107 108.673 1402.467 108.42 C 1401.067 107.9 1398.687 108.687 1398.687 108.687 C 1398.687 108.687 1314.577 138.927 1309.767 142.273 C 1308.737 142.993 1308.387 143.42 1308.217 143.913 C 1307.387 146.287 1309.977 147.34 1309.977 147.34 L 1331.657 154.407 C 1331.657 154.407 1332.457 154.527 1332.747 154.34 C 1337.677 151.22 1382.367 123.007 1384.947 122.06 C 1385.357 121.94 1385.657 122.073 1385.577 122.353 C 1384.547 125.98 1345.727 160.473 1345.727 160.473 C 1345.727 160.473 1345.577 160.66 1345.487 160.873 L 1345.437 160.847 L 1343.417 182.353 C 1343.417 182.353 1342.567 188.94 1349.157 182.353 C 1353.797 177.7 1358.297 173.807 1360.547 171.927 C 1368.007 177.073 1376.027 182.767 1379.487 185.74 C 1381.227 187.233 1382.687 187.473 1383.877 187.433 C 1387.167 187.313 1388.087 183.7 1388.087 183.7 C 1388.087 183.7 1403.417 122.007 1403.927 113.74 C 1403.977 112.927 1404.047 112.42 1404.047 111.86 C 1404.057 111.087 1403.987 110.313 1403.857 109.953" fill="white"/>
  <path d="M 755.011 283.765 C 804.717 283.765 845.011 324.058 845.011 373.765 C 845.011 423.47 804.717 463.765 755.011 463.765 C 705.306 463.765 665.011 423.47 665.011 373.765 C 665.011 324.058 705.306 283.765 755.011 283.765 Z" style="fill: rgb(102, 102, 102);"/>
  <path d="M 755.011 317.098 C 739.621 317.098 737.691 317.163 731.647 317.439 C 725.617 317.714 721.497 318.671 717.893 320.072 C 714.166 321.52 711.006 323.458 707.855 326.608 C 704.705 329.759 702.767 332.919 701.319 336.646 C 699.919 340.25 698.961 344.369 698.686 350.401 C 698.41 356.446 698.345 358.374 698.345 373.764 C 698.345 389.154 698.41 391.085 698.686 397.129 C 698.961 403.159 699.919 407.279 701.319 410.883 C 702.767 414.61 704.705 417.77 707.855 420.919 C 711.006 424.07 714.166 426.007 717.893 427.457 C 721.497 428.857 725.617 429.815 731.647 430.09 C 737.691 430.366 739.621 430.431 755.011 430.431 C 770.401 430.431 772.33 430.366 778.374 430.09 C 784.406 429.815 788.526 428.857 792.13 427.457 C 795.857 426.007 799.017 424.07 802.167 420.919 C 805.317 417.77 807.255 414.61 808.703 410.883 C 810.103 407.279 811.062 403.159 811.337 397.129 C 811.613 391.085 811.678 389.154 811.678 373.764 C 811.678 358.375 811.613 356.446 811.337 350.401 C 811.062 344.369 810.103 340.25 808.703 336.646 C 807.255 332.919 805.317 329.759 802.167 326.608 C 799.017 323.458 795.857 321.52 792.13 320.072 C 788.526 318.671 784.406 317.714 778.374 317.439 C 772.33 317.163 770.401 317.098 755.011 317.098 Z M 755.011 327.308 C 770.142 327.308 771.934 327.366 777.91 327.638 C 783.434 327.891 786.434 328.814 788.431 329.59 C 791.077 330.618 792.965 331.846 794.947 333.829 C 796.93 335.811 798.158 337.699 799.186 340.343 C 799.962 342.34 800.885 345.34 801.138 350.866 C 801.41 356.842 801.467 358.634 801.467 373.764 C 801.467 388.895 801.41 390.687 801.138 396.663 C 800.885 402.187 799.962 405.189 799.186 407.185 C 798.158 409.83 796.93 411.718 794.947 413.701 C 792.965 415.683 791.077 416.911 788.431 417.939 C 786.434 418.715 783.434 419.639 777.91 419.89 C 771.934 420.163 770.143 420.22 755.011 420.22 C 739.879 420.22 738.087 420.163 732.113 419.89 C 726.589 419.639 723.587 418.715 721.591 417.939 C 718.946 416.911 717.058 415.683 715.075 413.701 C 713.093 411.718 711.865 409.83 710.837 407.185 C 710.061 405.189 709.138 402.187 708.885 396.663 C 708.613 390.687 708.555 388.895 708.555 373.764 C 708.555 358.634 708.613 356.842 708.885 350.866 C 709.138 345.34 710.061 342.34 710.837 340.343 C 711.865 337.699 713.091 335.811 715.075 333.829 C 717.058 331.846 718.946 330.618 721.591 329.59 C 723.587 328.814 726.589 327.891 732.113 327.638 C 738.089 327.366 739.881 327.308 755.011 327.308 Z" fill="white"/>
  <path d="M 755.011 392.654 C 744.579 392.654 736.122 384.197 736.122 373.765 C 736.122 363.333 744.579 354.875 755.011 354.875 C 765.443 354.875 773.901 363.333 773.901 373.765 C 773.901 384.197 765.443 392.654 755.011 392.654 Z M 755.011 344.666 C 738.941 344.666 725.913 357.694 725.913 373.765 C 725.913 389.835 738.941 402.863 755.011 402.863 C 771.082 402.863 784.11 389.835 784.11 373.765 C 784.11 357.694 771.082 344.666 755.011 344.666 Z" fill="white"/>
  <path d="M 792.059 343.515 C 792.059 347.271 789.015 350.315 785.261 350.315 C 781.505 350.315 778.461 347.271 778.461 343.515 C 778.461 339.759 781.505 336.715 785.261 336.715 C 789.015 336.715 792.059 339.759 792.059 343.515 Z" fill="white"/>
  <path d="M 546.125 373.765 C 546.125 423.47 505.83 463.765 456.125 463.765 C 406.42 463.765 366.125 423.47 366.125 373.765 C 366.125 324.058 406.42 283.765 456.125 283.765 C 505.83 283.765 546.125 324.058 546.125 373.765 Z" style="fill: rgb(102, 102, 102);"/>
  <path fill-rule="evenodd" clip-rule="evenodd" d="M 456.125 307.098 C 417.818 307.098 388.125 335.158 388.125 373.058 C 388.125 392.882 396.25 410.013 409.481 421.845 C 410.591 422.839 411.261 424.231 411.307 425.723 L 411.677 437.818 C 411.795 441.677 415.781 444.187 419.311 442.629 L 432.809 436.67 C 433.953 436.166 435.235 436.073 436.441 436.405 C 442.643 438.11 449.245 439.018 456.125 439.018 C 494.432 439.018 524.125 410.958 524.125 373.058 C 524.125 335.158 494.432 307.098 456.125 307.098" fill="white"/>
  <path fill-rule="evenodd" clip-rule="evenodd" d="M 415.29 392.347 L 435.266 360.657 C 438.443 355.615 445.247 354.361 450.014 357.935 L 465.902 369.851 C 467.359 370.945 469.366 370.938 470.817 369.837 L 492.273 353.553 C 495.137 351.379 498.875 354.807 496.958 357.849 L 476.983 389.539 C 473.806 394.581 467.002 395.835 462.234 392.261 L 446.347 380.345 C 444.89 379.251 442.883 379.257 441.433 380.359 L 419.977 396.643 C 417.113 398.815 413.374 395.389 415.29 392.347 Z" style="fill: rgb(102, 102, 102);"/>
  <path d="M 1143.898 373.765 C 1143.898 423.47 1103.608 463.765 1053.898 463.765 C 1004.193 463.765 963.898 423.47 963.898 373.765 C 963.898 324.058 1004.193 283.765 1053.898 283.765 C 1103.608 283.765 1143.898 324.058 1143.898 373.765 Z" style="fill: rgb(102, 102, 102);"/>
  <path fill-rule="evenodd" clip-rule="evenodd" d="M 1082.838 383.863 C 1081.408 383.15 1074.398 379.699 1073.088 379.223 C 1071.778 378.749 1070.828 378.51 1069.878 379.938 C 1068.928 381.365 1066.191 384.578 1065.359 385.53 C 1064.527 386.481 1063.695 386.601 1062.269 385.886 C 1060.842 385.173 1056.246 383.667 1050.797 378.807 C 1046.555 375.027 1043.693 370.357 1042.861 368.929 C 1042.029 367.501 1042.771 366.729 1043.486 366.018 C 1044.127 365.379 1044.913 364.353 1045.626 363.519 C 1046.339 362.687 1046.577 362.091 1047.051 361.141 C 1047.529 360.189 1047.29 359.355 1046.933 358.642 C 1046.577 357.927 1043.723 350.909 1042.535 348.053 C 1041.377 345.273 1040.202 345.649 1039.325 345.605 C 1038.494 345.563 1037.542 345.555 1036.591 345.555 C 1035.641 345.555 1034.095 345.911 1032.787 347.339 C 1031.479 348.767 1027.794 352.217 1027.794 359.237 C 1027.794 366.255 1032.906 373.037 1033.619 373.989 C 1034.333 374.941 1043.678 389.346 1057.989 395.523 C 1061.393 396.993 1064.05 397.87 1066.122 398.527 C 1069.538 399.613 1072.648 399.459 1075.108 399.093 C 1077.848 398.683 1083.548 395.642 1084.738 392.31 C 1085.928 388.979 1085.928 386.125 1085.568 385.53 C 1085.208 384.935 1084.258 384.578 1082.838 383.863 L 1082.838 383.863 Z M 1056.805 419.393 L 1056.785 419.393 C 1048.27 419.39 1039.919 417.103 1032.633 412.781 L 1030.899 411.751 L 1012.939 416.462 L 1017.734 398.957 L 1016.605 397.162 C 1011.855 389.609 1009.346 380.879 1009.35 371.915 C 1009.361 345.759 1030.649 324.479 1056.823 324.479 C 1069.498 324.485 1081.418 329.426 1090.368 338.391 C 1099.328 347.359 1104.258 359.278 1104.258 371.954 C 1104.248 398.113 1082.958 419.393 1056.805 419.393 Z M 1097.188 331.579 C 1086.408 320.79 1072.078 314.846 1056.805 314.839 C 1025.334 314.839 999.722 340.442 999.71 371.913 C 999.706 381.971 1002.335 391.79 1007.331 400.446 L 999.231 430.022 L 1029.497 422.085 C 1037.837 426.633 1047.226 429.029 1056.781 429.033 L 1056.805 429.033 C 1056.807 429.033 1056.803 429.033 1056.805 429.033 C 1088.268 429.033 1113.888 403.427 1113.898 371.958 C 1113.908 356.707 1107.968 342.366 1097.188 331.579" fill="white"/>
  <path fill-rule="evenodd" clip-rule="evenodd" d="M 1442.788 373.765 C 1442.788 423.47 1402.488 463.765 1352.788 463.765 C 1303.078 463.765 1262.788 423.47 1262.788 373.765 C 1262.788 324.058 1303.078 283.765 1352.788 283.765 C 1402.488 283.765 1442.788 324.058 1442.788 373.765 Z" style="fill: rgb(102, 102, 102);"/>
  <path d="M 247.238 373.765 C 247.238 324.058 206.943 283.765 157.239 283.765 C 107.533 283.765 67.238 324.058 67.238 373.765 C 67.238 418.686 100.151 455.919 143.176 462.67 L 143.176 399.779 L 120.324 399.779 L 120.324 373.765 L 143.176 373.765 L 143.176 353.937 C 143.176 331.381 156.613 318.921 177.17 318.921 C 187.017 318.921 197.317 320.678 197.317 320.678 L 197.317 342.827 L 185.967 342.827 C 174.787 342.827 171.301 349.765 171.301 356.882 L 171.301 373.765 L 196.262 373.765 L 192.271 399.779 L 171.301 399.779 L 171.301 462.67 C 214.326 455.919 247.238 418.686 247.238 373.765" fill="#010201"/>
  <path d="M 247.238 373.765 C 247.238 324.058 206.943 283.765 157.239 283.765 C 107.533 283.765 67.238 324.058 67.238 373.765 C 67.238 418.686 100.151 455.919 143.176 462.67 L 143.176 399.779 L 120.324 399.779 L 120.324 373.765 L 143.176 373.765 L 143.176 353.937 C 143.176 331.381 156.613 318.921 177.17 318.921 C 187.017 318.921 197.317 320.678 197.317 320.678 L 197.317 342.827 L 185.967 342.827 C 174.787 342.827 171.301 349.765 171.301 356.882 L 171.301 373.765 L 196.262 373.765 L 192.271 399.779 L 171.301 399.779 L 171.301 462.67 C 214.326 455.919 247.238 418.686 247.238 373.765" style="paint-order: fill; fill: rgb(102, 102, 102);"/>
  <path d="M 192.271 399.779 L 196.262 373.765 L 171.301 373.765 L 171.301 356.882 C 171.301 349.765 174.787 342.827 185.967 342.827 L 197.317 342.827 L 197.317 320.678 C 197.317 320.678 187.017 318.921 177.17 318.921 C 156.613 318.921 143.176 331.381 143.176 353.937 L 143.176 373.765 L 120.324 373.765 L 120.324 399.779 L 143.176 399.779 L 143.176 462.67 C 147.759 463.39 152.455 463.765 157.239 463.765 C 162.023 463.765 166.719 463.39 171.301 462.67 L 171.301 399.779 L 192.271 399.779 Z" fill="white"/>
  <path d="M 1399.818 333.214 C 1399.478 332.201 1399.068 331.934 1398.428 331.681 C 1397.028 331.161 1394.648 331.948 1394.648 331.948 C 1394.648 331.948 1310.538 362.188 1305.728 365.534 C 1304.698 366.254 1304.348 366.681 1304.178 367.174 C 1303.348 369.548 1305.938 370.601 1305.938 370.601 L 1327.618 377.668 C 1327.618 377.668 1328.418 377.788 1328.708 377.601 C 1333.638 374.481 1378.328 346.268 1380.908 345.321 C 1381.318 345.201 1381.618 345.334 1381.538 345.614 C 1380.508 349.241 1341.688 383.734 1341.688 383.734 C 1341.688 383.734 1341.538 383.921 1341.448 384.134 L 1341.398 384.108 L 1339.378 405.614 C 1339.378 405.614 1338.528 412.201 1345.118 405.614 C 1349.758 400.961 1354.258 397.068 1356.508 395.188 C 1363.968 400.334 1371.988 406.028 1375.448 409.001 C 1377.188 410.494 1378.648 410.734 1379.838 410.694 C 1383.128 410.574 1384.048 406.961 1384.048 406.961 C 1384.048 406.961 1399.378 345.268 1399.888 337.001 C 1399.938 336.188 1400.008 335.681 1400.008 335.121 C 1400.018 334.348 1399.948 333.574 1399.818 333.214" fill="white"/>
</svg>