<?xml version="1.0" encoding="utf-8"?>
<svg viewBox="0 0 500 500" xmlns="http://www.w3.org/2000/svg">
  <path d="M 1557.596 -103.261 C 1607.302 -103.261 1647.596 -62.968 1647.596 -13.261 C 1647.596 36.444 1607.302 76.739 1557.596 76.739 C 1507.891 76.739 1467.596 36.444 1467.596 -13.261 C 1467.596 -62.968 1507.891 -103.261 1557.596 -103.261 Z" fill="#010201"/>
  <path d="M 1557.596 -69.928 C 1542.206 -69.928 1540.276 -69.863 1534.232 -69.587 C 1528.202 -69.312 1524.082 -68.355 1520.478 -66.954 C 1516.751 -65.506 1513.591 -63.568 1510.44 -60.418 C 1507.29 -57.267 1505.352 -54.107 1503.904 -50.38 C 1502.504 -46.776 1501.546 -42.657 1501.271 -36.625 C 1500.995 -30.58 1500.93 -28.652 1500.93 -13.262 C 1500.93 2.128 1500.995 4.059 1501.271 10.103 C 1501.546 16.133 1502.504 20.253 1503.904 23.857 C 1505.352 27.584 1507.29 30.744 1510.44 33.893 C 1513.591 37.044 1516.751 38.981 1520.478 40.431 C 1524.082 41.831 1528.202 42.789 1534.232 43.064 C 1540.276 43.34 1542.206 43.405 1557.596 43.405 C 1572.986 43.405 1574.915 43.34 1580.959 43.064 C 1586.991 42.789 1591.111 41.831 1594.715 40.431 C 1598.442 38.981 1601.602 37.044 1604.752 33.893 C 1607.902 30.744 1609.84 27.584 1611.288 23.857 C 1612.688 20.253 1613.647 16.133 1613.922 10.103 C 1614.198 4.059 1614.263 2.128 1614.263 -13.262 C 1614.263 -28.651 1614.198 -30.58 1613.922 -36.625 C 1613.647 -42.657 1612.688 -46.776 1611.288 -50.38 C 1609.84 -54.107 1607.902 -57.267 1604.752 -60.418 C 1601.602 -63.568 1598.442 -65.506 1594.715 -66.954 C 1591.111 -68.355 1586.991 -69.312 1580.959 -69.587 C 1574.915 -69.863 1572.986 -69.928 1557.596 -69.928 Z M 1557.596 -59.718 C 1572.727 -59.718 1574.519 -59.66 1580.495 -59.388 C 1586.019 -59.135 1589.019 -58.212 1591.016 -57.436 C 1593.662 -56.408 1595.55 -55.18 1597.532 -53.197 C 1599.515 -51.215 1600.743 -49.327 1601.771 -46.683 C 1602.547 -44.686 1603.47 -41.686 1603.723 -36.16 C 1603.995 -30.184 1604.052 -28.392 1604.052 -13.262 C 1604.052 1.869 1603.995 3.661 1603.723 9.637 C 1603.47 15.161 1602.547 18.163 1601.771 20.159 C 1600.743 22.804 1599.515 24.692 1597.532 26.675 C 1595.55 28.657 1593.662 29.885 1591.016 30.913 C 1589.019 31.689 1586.019 32.613 1580.495 32.864 C 1574.519 33.137 1572.728 33.194 1557.596 33.194 C 1542.464 33.194 1540.672 33.137 1534.698 32.864 C 1529.174 32.613 1526.172 31.689 1524.176 30.913 C 1521.531 29.885 1519.643 28.657 1517.66 26.675 C 1515.678 24.692 1514.45 22.804 1513.422 20.159 C 1512.646 18.163 1511.723 15.161 1511.47 9.637 C 1511.198 3.661 1511.14 1.869 1511.14 -13.262 C 1511.14 -28.392 1511.198 -30.184 1511.47 -36.16 C 1511.723 -41.686 1512.646 -44.686 1513.422 -46.683 C 1514.45 -49.327 1515.676 -51.215 1517.66 -53.197 C 1519.643 -55.18 1521.531 -56.408 1524.176 -57.436 C 1526.172 -58.212 1529.174 -59.135 1534.698 -59.388 C 1540.674 -59.66 1542.466 -59.718 1557.596 -59.718 Z" fill="white"/>
  <path d="M 1557.596 5.628 C 1547.164 5.628 1538.707 -2.829 1538.707 -13.261 C 1538.707 -23.693 1547.164 -32.151 1557.596 -32.151 C 1568.028 -32.151 1576.486 -23.693 1576.486 -13.261 C 1576.486 -2.829 1568.028 5.628 1557.596 5.628 Z M 1557.596 -42.36 C 1541.526 -42.36 1528.498 -29.332 1528.498 -13.261 C 1528.498 2.809 1541.526 15.837 1557.596 15.837 C 1573.667 15.837 1586.695 2.809 1586.695 -13.261 C 1586.695 -29.332 1573.667 -42.36 1557.596 -42.36 Z" fill="white"/>
  <path d="M 1594.644 -43.511 C 1594.644 -39.755 1591.6 -36.711 1587.846 -36.711 C 1584.09 -36.711 1581.046 -39.755 1581.046 -43.511 C 1581.046 -47.267 1584.09 -50.311 1587.846 -50.311 C 1591.6 -50.311 1594.644 -47.267 1594.644 -43.511 Z" fill="white"/>
  <path d="M 1348.71 -13.261 C 1348.71 36.444 1308.415 76.739 1258.71 76.739 C 1209.005 76.739 1168.71 36.444 1168.71 -13.261 C 1168.71 -62.968 1209.005 -103.261 1258.71 -103.261 C 1308.415 -103.261 1348.71 -62.968 1348.71 -13.261 Z" fill="#010201"/>
  <path fill-rule="evenodd" clip-rule="evenodd" d="M 1258.71 -79.928 C 1220.403 -79.928 1190.71 -51.868 1190.71 -13.968 C 1190.71 5.856 1198.835 22.987 1212.066 34.819 C 1213.176 35.813 1213.846 37.205 1213.892 38.697 L 1214.262 50.792 C 1214.38 54.651 1218.366 57.161 1221.896 55.603 L 1235.394 49.644 C 1236.538 49.14 1237.82 49.047 1239.026 49.379 C 1245.228 51.084 1251.83 51.992 1258.71 51.992 C 1297.017 51.992 1326.71 23.932 1326.71 -13.968 C 1326.71 -51.868 1297.017 -79.928 1258.71 -79.928" fill="white"/>
  <path fill-rule="evenodd" clip-rule="evenodd" d="M 1217.875 5.321 L 1237.851 -26.369 C 1241.028 -31.411 1247.832 -32.665 1252.599 -29.091 L 1268.487 -17.175 C 1269.944 -16.081 1271.951 -16.088 1273.402 -17.189 L 1294.858 -33.473 C 1297.722 -35.647 1301.46 -32.219 1299.543 -29.177 L 1279.568 2.513 C 1276.391 7.555 1269.587 8.809 1264.819 5.235 L 1248.932 -6.681 C 1247.475 -7.775 1245.468 -7.769 1244.018 -6.667 L 1222.562 9.617 C 1219.698 11.789 1215.959 8.363 1217.875 5.321 Z" fill="#010201"/>
  <path d="M 1946.483 -13.261 C 1946.483 36.444 1906.193 76.739 1856.483 76.739 C 1806.778 76.739 1766.483 36.444 1766.483 -13.261 C 1766.483 -62.968 1806.778 -103.261 1856.483 -103.261 C 1906.193 -103.261 1946.483 -62.968 1946.483 -13.261 Z" fill="#010201"/>
  <path fill-rule="evenodd" clip-rule="evenodd" d="M 1885.423 -3.163 C 1883.993 -3.876 1876.983 -7.327 1875.673 -7.803 C 1874.363 -8.277 1873.413 -8.516 1872.463 -7.088 C 1871.513 -5.661 1868.776 -2.448 1867.944 -1.496 C 1867.112 -0.545 1866.28 -0.425 1864.854 -1.14 C 1863.427 -1.853 1858.831 -3.359 1853.382 -8.219 C 1849.14 -11.999 1846.278 -16.669 1845.446 -18.097 C 1844.614 -19.525 1845.356 -20.297 1846.071 -21.008 C 1846.712 -21.647 1847.498 -22.673 1848.211 -23.507 C 1848.924 -24.339 1849.162 -24.935 1849.636 -25.885 C 1850.114 -26.837 1849.875 -27.671 1849.518 -28.384 C 1849.162 -29.099 1846.308 -36.117 1845.12 -38.973 C 1843.962 -41.753 1842.787 -41.377 1841.91 -41.421 C 1841.079 -41.463 1840.127 -41.471 1839.176 -41.471 C 1838.226 -41.471 1836.68 -41.115 1835.372 -39.687 C 1834.064 -38.259 1830.379 -34.809 1830.379 -27.789 C 1830.379 -20.771 1835.491 -13.989 1836.204 -13.037 C 1836.918 -12.085 1846.263 2.32 1860.574 8.497 C 1863.978 9.967 1866.635 10.844 1868.707 11.501 C 1872.123 12.587 1875.233 12.433 1877.693 12.067 C 1880.433 11.657 1886.133 8.616 1887.323 5.284 C 1888.513 1.953 1888.513 -0.901 1888.153 -1.496 C 1887.793 -2.091 1886.843 -2.448 1885.423 -3.163 L 1885.423 -3.163 Z M 1859.39 32.367 L 1859.37 32.367 C 1850.855 32.364 1842.504 30.077 1835.218 25.755 L 1833.484 24.725 L 1815.524 29.436 L 1820.319 11.931 L 1819.19 10.136 C 1814.44 2.583 1811.931 -6.147 1811.935 -15.111 C 1811.946 -41.267 1833.234 -62.547 1859.408 -62.547 C 1872.083 -62.541 1884.003 -57.6 1892.953 -48.635 C 1901.913 -39.667 1906.843 -27.748 1906.843 -15.072 C 1906.833 11.087 1885.543 32.367 1859.39 32.367 Z M 1899.773 -55.447 C 1888.993 -66.236 1874.663 -72.18 1859.39 -72.187 C 1827.919 -72.187 1802.307 -46.584 1802.295 -15.113 C 1802.291 -5.055 1804.92 4.764 1809.916 13.42 L 1801.816 42.996 L 1832.082 35.059 C 1840.422 39.607 1849.811 42.003 1859.366 42.007 L 1859.39 42.007 C 1859.392 42.007 1859.388 42.007 1859.39 42.007 C 1890.853 42.007 1916.473 16.401 1916.483 -15.068 C 1916.493 -30.319 1910.553 -44.66 1899.773 -55.447" fill="white"/>
  <path fill-rule="evenodd" clip-rule="evenodd" d="M 2245.373 -13.261 C 2245.373 36.444 2205.073 76.739 2155.373 76.739 C 2105.663 76.739 2065.373 36.444 2065.373 -13.261 C 2065.373 -62.968 2105.663 -103.261 2155.373 -103.261 C 2205.073 -103.261 2245.373 -62.968 2245.373 -13.261 Z" fill="#010201"/>
  <path d="M 1049.823 -13.261 C 1049.823 -62.968 1009.528 -103.261 959.824 -103.261 C 910.118 -103.261 869.823 -62.968 869.823 -13.261 C 869.823 31.66 902.736 68.893 945.761 75.644 L 945.761 12.753 L 922.909 12.753 L 922.909 -13.261 L 945.761 -13.261 L 945.761 -33.089 C 945.761 -55.645 959.198 -68.105 979.755 -68.105 C 989.602 -68.105 999.902 -66.348 999.902 -66.348 L 999.902 -44.199 L 988.552 -44.199 C 977.372 -44.199 973.886 -37.261 973.886 -30.144 L 973.886 -13.261 L 998.847 -13.261 L 994.856 12.753 L 973.886 12.753 L 973.886 75.644 C 1016.911 68.893 1049.823 31.66 1049.823 -13.261" fill="#010201"/>
  <path d="M 1049.823 -13.261 C 1049.823 -62.968 1009.528 -103.261 959.824 -103.261 C 910.118 -103.261 869.823 -62.968 869.823 -13.261 C 869.823 31.66 902.736 68.893 945.761 75.644 L 945.761 12.753 L 922.909 12.753 L 922.909 -13.261 L 945.761 -13.261 L 945.761 -33.089 C 945.761 -55.645 959.198 -68.105 979.755 -68.105 C 989.602 -68.105 999.902 -66.348 999.902 -66.348 L 999.902 -44.199 L 988.552 -44.199 C 977.372 -44.199 973.886 -37.261 973.886 -30.144 L 973.886 -13.261 L 998.847 -13.261 L 994.856 12.753 L 973.886 12.753 L 973.886 75.644 C 1016.911 68.893 1049.823 31.66 1049.823 -13.261" fill="#010201"/>
  <path d="M 994.856 12.753 L 998.847 -13.261 L 973.886 -13.261 L 973.886 -30.144 C 973.886 -37.261 977.372 -44.199 988.552 -44.199 L 999.902 -44.199 L 999.902 -66.348 C 999.902 -66.348 989.602 -68.105 979.755 -68.105 C 959.198 -68.105 945.761 -55.645 945.761 -33.089 L 945.761 -13.261 L 922.909 -13.261 L 922.909 12.753 L 945.761 12.753 L 945.761 75.644 C 950.344 76.364 955.04 76.739 959.824 76.739 C 964.608 76.739 969.304 76.364 973.886 75.644 L 973.886 12.753 L 994.856 12.753 Z" fill="white"/>
  <path d="M 2202.403 -53.812 C 2202.063 -54.825 2201.653 -55.092 2201.013 -55.345 C 2199.613 -55.865 2197.233 -55.078 2197.233 -55.078 C 2197.233 -55.078 2113.123 -24.838 2108.313 -21.492 C 2107.283 -20.772 2106.933 -20.345 2106.763 -19.852 C 2105.933 -17.478 2108.523 -16.425 2108.523 -16.425 L 2130.203 -9.358 C 2130.203 -9.358 2131.003 -9.238 2131.293 -9.425 C 2136.223 -12.545 2180.913 -40.758 2183.493 -41.705 C 2183.903 -41.825 2184.203 -41.692 2184.123 -41.412 C 2183.093 -37.785 2144.273 -3.292 2144.273 -3.292 C 2144.273 -3.292 2144.123 -3.105 2144.033 -2.892 L 2143.983 -2.918 L 2141.963 18.588 C 2141.963 18.588 2141.113 25.175 2147.703 18.588 C 2152.343 13.935 2156.843 10.042 2159.093 8.162 C 2166.553 13.308 2174.573 19.002 2178.033 21.975 C 2179.773 23.468 2181.233 23.708 2182.423 23.668 C 2185.713 23.548 2186.633 19.935 2186.633 19.935 C 2186.633 19.935 2201.963 -41.758 2202.473 -50.025 C 2202.523 -50.838 2202.593 -51.345 2202.593 -51.905 C 2202.603 -52.678 2202.533 -53.452 2202.403 -53.812" fill="white"/>
  <path d="M 1553.557 120 C 1603.263 120 1643.557 160.293 1643.557 210 C 1643.557 259.705 1603.263 300 1553.557 300 C 1503.852 300 1463.557 259.705 1463.557 210 C 1463.557 160.293 1503.852 120 1553.557 120 Z" style="fill: rgb(102, 102, 102);"/>
  <path d="M 1553.557 153.333 C 1538.167 153.333 1536.237 153.398 1530.193 153.674 C 1524.163 153.949 1520.043 154.906 1516.439 156.307 C 1512.712 157.755 1509.552 159.693 1506.401 162.843 C 1503.251 165.994 1501.313 169.154 1499.865 172.881 C 1498.465 176.485 1497.507 180.604 1497.232 186.636 C 1496.956 192.681 1496.891 194.609 1496.891 209.999 C 1496.891 225.389 1496.956 227.32 1497.232 233.364 C 1497.507 239.394 1498.465 243.514 1499.865 247.118 C 1501.313 250.845 1503.251 254.005 1506.401 257.154 C 1509.552 260.305 1512.712 262.242 1516.439 263.692 C 1520.043 265.092 1524.163 266.05 1530.193 266.325 C 1536.237 266.601 1538.167 266.666 1553.557 266.666 C 1568.947 266.666 1570.876 266.601 1576.92 266.325 C 1582.952 266.05 1587.072 265.092 1590.676 263.692 C 1594.403 262.242 1597.563 260.305 1600.713 257.154 C 1603.863 254.005 1605.801 250.845 1607.249 247.118 C 1608.649 243.514 1609.608 239.394 1609.883 233.364 C 1610.159 227.32 1610.224 225.389 1610.224 209.999 C 1610.224 194.61 1610.159 192.681 1609.883 186.636 C 1609.608 180.604 1608.649 176.485 1607.249 172.881 C 1605.801 169.154 1603.863 165.994 1600.713 162.843 C 1597.563 159.693 1594.403 157.755 1590.676 156.307 C 1587.072 154.906 1582.952 153.949 1576.92 153.674 C 1570.876 153.398 1568.947 153.333 1553.557 153.333 Z M 1553.557 163.543 C 1568.688 163.543 1570.48 163.601 1576.456 163.873 C 1581.98 164.126 1584.98 165.049 1586.977 165.825 C 1589.623 166.853 1591.511 168.081 1593.493 170.064 C 1595.476 172.046 1596.704 173.934 1597.732 176.578 C 1598.508 178.575 1599.431 181.575 1599.684 187.101 C 1599.956 193.077 1600.013 194.869 1600.013 209.999 C 1600.013 225.13 1599.956 226.922 1599.684 232.898 C 1599.431 238.422 1598.508 241.424 1597.732 243.42 C 1596.704 246.065 1595.476 247.953 1593.493 249.936 C 1591.511 251.918 1589.623 253.146 1586.977 254.174 C 1584.98 254.95 1581.98 255.874 1576.456 256.125 C 1570.48 256.398 1568.689 256.455 1553.557 256.455 C 1538.425 256.455 1536.633 256.398 1530.659 256.125 C 1525.135 255.874 1522.133 254.95 1520.137 254.174 C 1517.492 253.146 1515.604 251.918 1513.621 249.936 C 1511.639 247.953 1510.411 246.065 1509.383 243.42 C 1508.607 241.424 1507.684 238.422 1507.431 232.898 C 1507.159 226.922 1507.101 225.13 1507.101 209.999 C 1507.101 194.869 1507.159 193.077 1507.431 187.101 C 1507.684 181.575 1508.607 178.575 1509.383 176.578 C 1510.411 173.934 1511.637 172.046 1513.621 170.064 C 1515.604 168.081 1517.492 166.853 1520.137 165.825 C 1522.133 165.049 1525.135 164.126 1530.659 163.873 C 1536.635 163.601 1538.427 163.543 1553.557 163.543 Z" fill="white"/>
  <path d="M 1553.557 228.889 C 1543.125 228.889 1534.668 220.432 1534.668 210 C 1534.668 199.568 1543.125 191.11 1553.557 191.11 C 1563.989 191.11 1572.447 199.568 1572.447 210 C 1572.447 220.432 1563.989 228.889 1553.557 228.889 Z M 1553.557 180.901 C 1537.487 180.901 1524.459 193.929 1524.459 210 C 1524.459 226.07 1537.487 239.098 1553.557 239.098 C 1569.628 239.098 1582.656 226.07 1582.656 210 C 1582.656 193.929 1569.628 180.901 1553.557 180.901 Z" fill="white"/>
  <path d="M 1590.605 179.75 C 1590.605 183.506 1587.561 186.55 1583.807 186.55 C 1580.051 186.55 1577.007 183.506 1577.007 179.75 C 1577.007 175.994 1580.051 172.95 1583.807 172.95 C 1587.561 172.95 1590.605 175.994 1590.605 179.75 Z" fill="white"/>
  <path d="M 1344.671 210 C 1344.671 259.705 1304.376 300 1254.671 300 C 1204.966 300 1164.671 259.705 1164.671 210 C 1164.671 160.293 1204.966 120 1254.671 120 C 1304.376 120 1344.671 160.293 1344.671 210 Z" style="fill: rgb(102, 102, 102);"/>
  <path fill-rule="evenodd" clip-rule="evenodd" d="M 1254.671 143.333 C 1216.364 143.333 1186.671 171.393 1186.671 209.293 C 1186.671 229.117 1194.796 246.248 1208.027 258.08 C 1209.137 259.074 1209.807 260.466 1209.853 261.958 L 1210.223 274.053 C 1210.341 277.912 1214.327 280.422 1217.857 278.864 L 1231.355 272.905 C 1232.499 272.401 1233.781 272.308 1234.987 272.64 C 1241.189 274.345 1247.791 275.253 1254.671 275.253 C 1292.978 275.253 1322.671 247.193 1322.671 209.293 C 1322.671 171.393 1292.978 143.333 1254.671 143.333" fill="white"/>
  <path fill-rule="evenodd" clip-rule="evenodd" d="M 1213.836 228.582 L 1233.812 196.892 C 1236.989 191.85 1243.793 190.596 1248.56 194.17 L 1264.448 206.086 C 1265.905 207.18 1267.912 207.173 1269.363 206.072 L 1290.819 189.788 C 1293.683 187.614 1297.421 191.042 1295.504 194.084 L 1275.529 225.774 C 1272.352 230.816 1265.548 232.07 1260.78 228.496 L 1244.893 216.58 C 1243.436 215.486 1241.429 215.492 1239.979 216.594 L 1218.523 232.878 C 1215.659 235.05 1211.92 231.624 1213.836 228.582 Z" style="fill: rgb(102, 102, 102);"/>
  <path d="M 1942.444 210 C 1942.444 259.705 1902.154 300 1852.444 300 C 1802.739 300 1762.444 259.705 1762.444 210 C 1762.444 160.293 1802.739 120 1852.444 120 C 1902.154 120 1942.444 160.293 1942.444 210 Z" style="fill: rgb(102, 102, 102);"/>
  <path fill-rule="evenodd" clip-rule="evenodd" d="M 1881.384 220.098 C 1879.954 219.385 1872.944 215.934 1871.634 215.458 C 1870.324 214.984 1869.374 214.745 1868.424 216.173 C 1867.474 217.6 1864.737 220.813 1863.905 221.765 C 1863.073 222.716 1862.241 222.836 1860.815 222.121 C 1859.388 221.408 1854.792 219.902 1849.343 215.042 C 1845.101 211.262 1842.239 206.592 1841.407 205.164 C 1840.575 203.736 1841.317 202.964 1842.032 202.253 C 1842.673 201.614 1843.459 200.588 1844.172 199.754 C 1844.885 198.922 1845.123 198.326 1845.597 197.376 C 1846.075 196.424 1845.836 195.59 1845.479 194.877 C 1845.123 194.162 1842.269 187.144 1841.081 184.288 C 1839.923 181.508 1838.748 181.884 1837.871 181.84 C 1837.04 181.798 1836.088 181.79 1835.137 181.79 C 1834.187 181.79 1832.641 182.146 1831.333 183.574 C 1830.025 185.002 1826.34 188.452 1826.34 195.472 C 1826.34 202.49 1831.452 209.272 1832.165 210.224 C 1832.879 211.176 1842.224 225.581 1856.535 231.758 C 1859.939 233.228 1862.596 234.105 1864.668 234.762 C 1868.084 235.848 1871.194 235.694 1873.654 235.328 C 1876.394 234.918 1882.094 231.877 1883.284 228.545 C 1884.474 225.214 1884.474 222.36 1884.114 221.765 C 1883.754 221.17 1882.804 220.813 1881.384 220.098 L 1881.384 220.098 Z M 1855.351 255.628 L 1855.331 255.628 C 1846.816 255.625 1838.465 253.338 1831.179 249.016 L 1829.445 247.986 L 1811.485 252.697 L 1816.28 235.192 L 1815.151 233.397 C 1810.401 225.844 1807.892 217.114 1807.896 208.15 C 1807.907 181.994 1829.195 160.714 1855.369 160.714 C 1868.044 160.72 1879.964 165.661 1888.914 174.626 C 1897.874 183.594 1902.804 195.513 1902.804 208.189 C 1902.794 234.348 1881.504 255.628 1855.351 255.628 Z M 1895.734 167.814 C 1884.954 157.025 1870.624 151.081 1855.351 151.074 C 1823.88 151.074 1798.268 176.677 1798.256 208.148 C 1798.252 218.206 1800.881 228.025 1805.877 236.681 L 1797.777 266.257 L 1828.043 258.32 C 1836.383 262.868 1845.772 265.264 1855.327 265.268 L 1855.351 265.268 C 1855.353 265.268 1855.349 265.268 1855.351 265.268 C 1886.814 265.268 1912.434 239.662 1912.444 208.193 C 1912.454 192.942 1906.514 178.601 1895.734 167.814" fill="white"/>
  <path fill-rule="evenodd" clip-rule="evenodd" d="M 300 210 C 300 259.705 259.7 300 210 300 C 160.29 300 120 259.705 120 210 C 120 160.293 160.29 120 210 120 C 259.7 120 300 160.293 300 210 Z" style="fill: rgb(99, 99, 99);"/>
  <path d="M 1045.784 210 C 1045.784 160.293 1005.489 120 955.785 120 C 906.079 120 865.784 160.293 865.784 210 C 865.784 254.921 898.697 292.154 941.722 298.905 L 941.722 236.014 L 918.87 236.014 L 918.87 210 L 941.722 210 L 941.722 190.172 C 941.722 167.616 955.159 155.156 975.716 155.156 C 985.563 155.156 995.863 156.913 995.863 156.913 L 995.863 179.062 L 984.513 179.062 C 973.333 179.062 969.847 186 969.847 193.117 L 969.847 210 L 994.808 210 L 990.817 236.014 L 969.847 236.014 L 969.847 298.905 C 1012.872 292.154 1045.784 254.921 1045.784 210" fill="#010201"/>
  <path d="M 1045.784 210 C 1045.784 160.293 1005.489 120 955.785 120 C 906.079 120 865.784 160.293 865.784 210 C 865.784 254.921 898.697 292.154 941.722 298.905 L 941.722 236.014 L 918.87 236.014 L 918.87 210 L 941.722 210 L 941.722 190.172 C 941.722 167.616 955.159 155.156 975.716 155.156 C 985.563 155.156 995.863 156.913 995.863 156.913 L 995.863 179.062 L 984.513 179.062 C 973.333 179.062 969.847 186 969.847 193.117 L 969.847 210 L 994.808 210 L 990.817 236.014 L 969.847 236.014 L 969.847 298.905 C 1012.872 292.154 1045.784 254.921 1045.784 210" style="paint-order: fill; fill: rgb(102, 102, 102);"/>
  <path d="M 990.817 236.014 L 994.808 210 L 969.847 210 L 969.847 193.117 C 969.847 186 973.333 179.062 984.513 179.062 L 995.863 179.062 L 995.863 156.913 C 995.863 156.913 985.563 155.156 975.716 155.156 C 955.159 155.156 941.722 167.616 941.722 190.172 L 941.722 210 L 918.87 210 L 918.87 236.014 L 941.722 236.014 L 941.722 298.905 C 946.305 299.625 951.001 300 955.785 300 C 960.569 300 965.265 299.625 969.847 298.905 L 969.847 236.014 L 990.817 236.014 Z" fill="white"/>
  <path d="M 257.03 169.449 C 256.69 168.436 256.28 168.169 255.64 167.916 C 254.24 167.396 251.86 168.183 251.86 168.183 C 251.86 168.183 167.75 198.423 162.94 201.769 C 161.91 202.489 161.56 202.916 161.39 203.409 C 160.56 205.783 163.15 206.836 163.15 206.836 L 184.83 213.903 C 184.83 213.903 185.63 214.023 185.92 213.836 C 190.85 210.716 235.54 182.503 238.12 181.556 C 238.53 181.436 238.83 181.569 238.75 181.849 C 237.72 185.476 198.9 219.969 198.9 219.969 C 198.9 219.969 198.75 220.156 198.66 220.369 L 198.61 220.343 L 196.59 241.849 C 196.59 241.849 195.74 248.436 202.33 241.849 C 206.97 237.196 211.47 233.303 213.72 231.423 C 221.18 236.569 229.2 242.263 232.66 245.236 C 234.4 246.729 235.86 246.969 237.05 246.929 C 240.34 246.809 241.26 243.196 241.26 243.196 C 241.26 243.196 256.59 181.503 257.1 173.236 C 257.15 172.423 257.22 171.916 257.22 171.356 C 257.23 170.583 257.16 169.809 257.03 169.449" style=""/>
</svg>