<?xml version="1.0" encoding="UTF-8" standalone="no"?>
<svg
   xmlns:dc="http://purl.org/dc/elements/1.1/"
   xmlns:cc="http://creativecommons.org/ns#"
   xmlns:rdf="http://www.w3.org/1999/02/22-rdf-syntax-ns#"
   xmlns:svg="http://www.w3.org/2000/svg"
   xmlns="http://www.w3.org/2000/svg"
   viewBox="0 0 1600 1600"
   height="1600"
   width="1600"
   xml:space="preserve"
   id="svg2"
   version="1.1"><metadata
     id="metadata8"><rdf:RDF><cc:Work
         rdf:about=""><dc:format>image/svg+xml</dc:format><dc:type
           rdf:resource="http://purl.org/dc/dcmitype/StillImage" /></cc:Work></rdf:RDF></metadata><defs
     id="defs6"><clipPath
       id="clipPath188"
       clipPathUnits="userSpaceOnUse"><path
         id="path186"
         d="m 6454.3,3181 v 0 c 0,-0.01 0,-0.02 0,-0.03 z" /></clipPath><linearGradient
       id="linearGradient194"
       spreadMethod="pad"
       gradientTransform="matrix(0.0134235,0.0232499,0.0232499,-0.0134235,6454.29,3180.97)"
       gradientUnits="userSpaceOnUse"
       y2="0"
       x2="1"
       y1="0"
       x1="0"><stop
         id="stop190"
         offset="0"
         style="stop-opacity:1;stop-color:#00b7f0" /><stop
         id="stop192"
         offset="1"
         style="stop-opacity:1;stop-color:#007cc1" /></linearGradient></defs><g
     transform="matrix(1.3333333,0,0,-1.3333333,0,1600)"
     id="g10"><g
       transform="scale(0.1)"
       id="g12"><path
         id="path14"
         style="fill:#f7f6f5;fill-opacity:1;fill-rule:nonzero;stroke:none"
         d="M 12000,0 H 0 V 12000 H 12000 V 0" /><path
         id="path16"
         style="fill:#000000;fill-opacity:1;fill-rule:nonzero;stroke:none"
         d="m 1740.91,10721.5 c -30.56,9.1 -55.44,21.5 -74.61,37.1 -10.26,7.6 -15.39,18.3 -15.39,32.2 0,9.3 2.78,17.5 8.37,24.4 5.57,6.9 12.15,10.4 19.74,10.4 8.03,0 17.16,-3.2 27.43,-9.4 19.18,-13.8 39.25,-23.9 60.22,-30.1 20.97,-6.3 44.16,-9.4 69.59,-9.4 32.56,0 57.55,5.7 74.95,17.1 17.4,11.4 26.09,28 26.09,49.8 0,17 -8.13,30 -24.42,39.2 -16.28,9.1 -43.39,17.9 -81.3,26.4 -39.26,8.5 -71.16,18.3 -95.69,29.4 -24.54,11.2 -43.05,25.5 -55.54,42.9 -12.49,17.4 -18.73,39.5 -18.73,66.2 0,27.7 7.79,52.4 23.42,74.3 15.6,21.8 37.36,38.9 65.24,51.2 27.87,12.2 59.22,18.4 94.01,18.4 63.8,0 115.77,-17 155.92,-50.9 5.79,-4.9 9.92,-9.7 12.38,-14.4 2.44,-4.6 3.67,-10.6 3.67,-17.7 0,-9.4 -2.78,-17.5 -8.36,-24.4 -5.58,-6.9 -12.16,-10.4 -19.74,-10.4 -4.46,0 -8.59,0.7 -12.37,2 -3.8,1.4 -8.82,3.8 -15.06,7.4 -18.3,13.4 -36.03,23.3 -53.2,29.8 -17.18,6.4 -38.25,9.7 -63.24,9.7 -30.34,0 -54.31,-6.2 -71.93,-18.4 -17.63,-12.3 -26.43,-29.4 -26.43,-51.2 0,-18.3 7.81,-32.4 23.42,-42.2 15.61,-9.8 42.16,-19 79.63,-27.4 39.7,-8.9 71.93,-18.9 96.69,-29.8 24.76,-10.9 43.72,-24.9 56.88,-41.8 13.15,-17 19.74,-38.2 19.74,-63.6 0,-27.7 -7.7,-52.1 -23.09,-73.3 -15.39,-21.2 -37.03,-37.7 -64.9,-49.5 -27.89,-11.8 -59.89,-17.7 -96.03,-17.7 -34.35,0 -66.81,4.6 -97.36,13.7" /><path
         id="path18"
         style="fill:#000000;fill-opacity:1;fill-rule:nonzero;stroke:none"
         d="m 2513.77,10821.5 c 24.31,29.9 36.47,72.8 36.47,128.5 0,55.8 -12.16,98.5 -36.47,128.2 -24.32,29.6 -58.11,44.5 -101.37,44.5 -43.73,0 -77.74,-14.9 -102.05,-44.5 -24.32,-29.7 -36.47,-72.4 -36.47,-128.2 0,-55.7 12.15,-98.6 36.47,-128.5 24.31,-29.8 58.32,-44.8 102.05,-44.8 43.26,0 77.05,15 101.37,44.8 z m -220.82,-84.3 c -33.69,19.7 -59.67,47.8 -77.95,84.3 -18.3,36.6 -27.44,79.4 -27.44,128.5 0,49.1 9.04,91.8 27.1,128.2 18.07,36.3 44.05,64.3 77.96,83.9 33.89,19.7 73.82,29.5 119.78,29.5 45.93,0 85.75,-9.8 119.44,-29.5 33.67,-19.6 59.55,-47.6 77.62,-83.9 18.06,-36.4 27.1,-79.1 27.1,-128.2 0,-49.1 -9.15,-91.9 -27.43,-128.5 -18.3,-36.5 -44.29,-64.6 -77.96,-84.3 -33.69,-19.6 -73.27,-29.4 -118.77,-29.4 -45.96,0 -85.77,9.8 -119.45,29.4" /><path
         id="path20"
         style="fill:#000000;fill-opacity:1;fill-rule:nonzero;stroke:none"
         d="m 2915.25,10737.2 c -34.12,19.7 -60.34,47.8 -78.62,84.3 -18.3,36.6 -27.44,79.4 -27.44,128.5 0,49.1 9.14,91.8 27.44,128.2 18.28,36.3 44.5,64.3 78.62,83.9 34.13,19.7 73.94,29.5 119.45,29.5 29.44,0 57.09,-4.4 82.97,-13.1 25.87,-8.7 48.85,-21.3 68.92,-37.8 5.79,-4.4 9.81,-9.1 12.04,-14 2.23,-4.9 3.35,-11 3.35,-18.1 0,-9.8 -2.68,-18.1 -8.03,-24.8 -5.35,-6.6 -11.82,-10 -19.4,-10 -8.93,0 -18.07,3.1 -27.44,9.4 -19.19,14.3 -37.03,24.2 -53.53,29.8 -16.51,5.5 -34.8,8.3 -54.87,8.3 -46.4,0 -81.53,-14.5 -105.39,-43.5 -23.87,-29 -35.8,-71.6 -35.8,-127.8 0,-56.6 11.93,-99.5 35.8,-128.5 23.86,-29 58.99,-43.4 105.39,-43.4 19.18,0 36.91,2.8 53.2,8.7 16.27,5.7 34.68,15.6 55.2,29.4 4.45,2.7 8.92,4.9 13.38,6.7 4.46,1.8 9.14,2.7 14.06,2.7 7.58,0 14.05,-3.4 19.4,-10.1 5.35,-6.7 8.03,-14.9 8.03,-24.7 0,-6.7 -1.12,-12.6 -3.35,-17.8 -2.23,-5.1 -6.25,-9.9 -12.04,-14.4 -20.07,-16.5 -43.05,-29.1 -68.92,-37.8 -25.88,-8.7 -53.53,-13 -82.97,-13 -45.51,0 -85.32,9.8 -119.45,29.4" /><path
         id="path22"
         style="fill:#000000;fill-opacity:1;fill-rule:nonzero;stroke:none"
         d="m 3389.68,10721.8 c -7.81,8.1 -11.72,18.6 -11.72,31.5 v 392.8 c 0,12.9 3.91,23.3 11.72,31.1 7.8,7.8 18.17,11.7 31.11,11.7 13.38,0 23.98,-3.9 31.79,-11.7 7.8,-7.8 11.71,-18.2 11.71,-31.1 v -392.8 c 0,-12.9 -3.91,-23.4 -11.71,-31.5 -7.81,-8 -18.41,-12 -31.79,-12 -12.94,0 -23.31,4 -31.11,12" /><path
         id="path24"
         style="fill:#000000;fill-opacity:1;fill-rule:nonzero;stroke:none"
         d="m 3776.1,10891.1 h 176.65 l -88.32,198.8 z m 321.86,-143.2 c 0,-10.2 -4.13,-18.9 -12.38,-26.1 -8.26,-7.1 -17.73,-10.7 -28.44,-10.7 -7.14,0 -13.83,1.9 -20.07,5.7 -6.25,3.8 -11.16,9.7 -14.72,17.8 l -40.15,89.6 h -235.54 l -40.15,-89.6 c -3.58,-8.1 -8.48,-14 -14.72,-17.8 -6.25,-3.8 -13.17,-5.7 -20.75,-5.7 -10.26,0 -19.63,3.6 -28.1,10.7 -8.48,7.2 -12.71,15.9 -12.71,26.1 0,5.8 1.34,11.6 4.01,17.4 l 184.69,396.8 c 4.01,9 10.14,15.8 18.4,20.5 8.25,4.6 17.06,7 26.43,7 9.36,0 18.17,-2.4 26.43,-7 8.25,-4.7 14.39,-11.5 18.4,-20.5 l 185.36,-396.8 c 2.67,-5.8 4.01,-11.6 4.01,-17.4" /><path
         id="path26"
         style="fill:#000000;fill-opacity:1;fill-rule:nonzero;stroke:none"
         d="m 4273.94,10724.5 c -7.14,7.2 -10.7,17 -10.7,29.5 v 392.1 c 0,12.9 3.89,23.3 11.71,31.1 7.79,7.8 18.17,11.7 31.11,11.7 13.38,0 23.97,-3.9 31.79,-11.7 7.79,-7.8 11.71,-18.2 11.71,-31.1 v -361.4 h 188.02 c 26.77,0 40.16,-11.8 40.16,-35.4 0,-23.7 -13.39,-35.5 -40.16,-35.5 h -233.53 c -12.94,0 -22.98,3.6 -30.11,10.7" /><path
         id="path28"
         style="fill:#000000;fill-opacity:1;fill-rule:nonzero;stroke:none"
         d="m 5465.69,11177.2 c 7.58,-7.8 11.37,-18.2 11.37,-31.1 v -396.2 c 0,-12.5 -3.58,-22.3 -10.71,-29.4 -7.14,-7.1 -16.51,-10.7 -28.1,-10.7 -11.61,0 -20.75,3.6 -27.44,10.7 -6.68,7.1 -10.03,16.9 -10.03,29.4 v 275.7 l -113.76,-215.4 c -5.35,-9.8 -11.16,-17.1 -17.4,-21.8 -6.25,-4.7 -13.61,-7 -22.08,-7 -8.48,0 -15.84,2.2 -22.08,6.7 -6.25,4.4 -12.05,11.8 -17.4,22.1 l -114.42,212.1 v -272.4 c 0,-12 -3.46,-21.7 -10.37,-29.1 -6.92,-7.3 -16.18,-11 -27.77,-11 -11.61,0 -20.75,3.6 -27.44,10.7 -6.69,7.1 -10.04,16.9 -10.04,29.4 v 396.2 c 0,12.9 3.69,23.3 11.05,31.1 7.36,7.8 17.28,11.7 29.77,11.7 17.4,0 31,-9.6 40.82,-28.8 l 148.55,-283 147.88,283 c 9.81,19.2 22.97,28.8 39.48,28.8 12.49,0 22.53,-3.9 30.12,-11.7" /><path
         id="path30"
         style="fill:#000000;fill-opacity:1;fill-rule:nonzero;stroke:none"
         d="m 5690.84,10724.5 c -7.36,7.2 -11.04,17.2 -11.04,30.1 v 390.1 c 0,13 3.68,23 11.04,30.2 7.36,7.1 17.51,10.7 30.45,10.7 h 241.56 c 12.94,0 22.98,-2.9 30.11,-8.7 7.14,-5.8 10.71,-14.1 10.71,-24.8 0,-11.2 -3.57,-19.7 -10.71,-25.8 -7.13,-6 -17.17,-9 -30.11,-9 h -198.73 v -129.8 h 185.35 c 12.93,0 22.97,-2.9 30.11,-8.7 7.13,-5.8 10.71,-14.3 10.71,-25.4 0,-10.7 -3.58,-19 -10.71,-24.8 -7.14,-5.8 -17.18,-8.7 -30.11,-8.7 h -185.35 v -137.8 h 198.73 c 12.94,0 22.98,-3 30.11,-9.1 7.14,-6 10.71,-14.6 10.71,-25.7 0,-10.7 -3.57,-19 -10.71,-24.8 -7.13,-5.8 -17.17,-8.7 -30.11,-8.7 h -241.56 c -12.94,0 -23.09,3.6 -30.45,10.7" /><path
         id="path32"
         style="fill:#000000;fill-opacity:1;fill-rule:nonzero;stroke:none"
         d="m 6342.92,10784.1 c 108.4,0 162.61,55.3 162.61,165.9 0,110.2 -54.21,165.3 -162.61,165.3 h -82.3 v -331.2 z m -157.58,-59.6 c -7.36,7.2 -11.04,17.2 -11.04,30.1 v 390.1 c 0,13 3.68,23 11.04,30.2 7.36,7.1 17.5,10.7 30.44,10.7 h 132.49 c 77.17,0 137.07,-20.7 179.68,-61.9 42.58,-41.3 63.9,-99.2 63.9,-173.7 0,-74.9 -21.32,-133 -63.9,-174.3 -42.61,-41.3 -102.51,-61.9 -179.68,-61.9 h -132.49 c -12.94,0 -23.08,3.6 -30.44,10.7" /><path
         id="path34"
         style="fill:#000000;fill-opacity:1;fill-rule:nonzero;stroke:none"
         d="m 6790.91,10721.8 c -7.81,8.1 -11.7,18.6 -11.7,31.5 v 392.8 c 0,12.9 3.89,23.3 11.7,31.1 7.8,7.8 18.17,11.7 31.11,11.7 13.39,0 23.98,-3.9 31.79,-11.7 7.8,-7.8 11.72,-18.2 11.72,-31.1 v -392.8 c 0,-12.9 -3.92,-23.4 -11.72,-31.5 -7.81,-8 -18.4,-12 -31.79,-12 -12.94,0 -23.31,4 -31.11,12" /><path
         id="path36"
         style="fill:#000000;fill-opacity:1;fill-rule:nonzero;stroke:none"
         d="m 7177.33,10891.1 h 176.66 l -88.33,198.8 z m 321.88,-143.2 c 0,-10.2 -4.14,-18.9 -12.39,-26.1 -8.26,-7.1 -17.73,-10.7 -28.43,-10.7 -7.15,0 -13.84,1.9 -20.08,5.7 -6.25,3.8 -11.16,9.7 -14.73,17.8 l -40.14,89.6 H 7147.9 l -40.16,-89.6 c -3.57,-8.1 -8.46,-14 -14.71,-17.8 -6.25,-3.8 -13.17,-5.7 -20.74,-5.7 -10.27,0 -19.64,3.6 -28.11,10.7 -8.48,7.2 -12.72,15.9 -12.72,26.1 0,5.8 1.34,11.6 4.03,17.4 l 184.68,396.8 c 4.02,9 10.14,15.8 18.4,20.5 8.25,4.6 17.06,7 26.43,7 9.38,0 18.16,-2.4 26.44,-7 8.24,-4.7 14.38,-11.5 18.39,-20.5 l 185.36,-396.8 c 2.68,-5.8 4.02,-11.6 4.02,-17.4" /><path
         id="path38"
         style="fill:#000000;fill-opacity:1;fill-rule:nonzero;stroke:none"
         d="m 7957.89,10721.8 c -7.81,8.1 -11.71,18.6 -11.71,31.5 v 392.8 c 0,12.9 3.9,23.3 11.71,31.1 7.8,7.8 18.17,11.7 31.11,11.7 13.39,0 23.98,-3.9 31.79,-11.7 7.8,-7.8 11.71,-18.2 11.71,-31.1 v -392.8 c 0,-12.9 -3.91,-23.4 -11.71,-31.5 -7.81,-8 -18.4,-12 -31.79,-12 -12.94,0 -23.31,4 -31.11,12" /><path
         id="path40"
         style="fill:#000000;fill-opacity:1;fill-rule:nonzero;stroke:none"
         d="m 8325.92,10737.2 c -34.13,19.7 -60.34,47.8 -78.63,84.3 -18.3,36.6 -27.44,79.4 -27.44,128.5 0,49.1 9.14,91.8 27.44,128.2 18.29,36.3 44.5,64.3 78.63,83.9 34.13,19.7 73.94,29.5 119.44,29.5 29.44,0 57.09,-4.4 82.97,-13.1 25.87,-8.7 48.85,-21.3 68.93,-37.8 5.79,-4.4 9.81,-9.1 12.05,-14 2.22,-4.9 3.34,-11 3.34,-18.1 0,-9.8 -2.68,-18.1 -8.03,-24.8 -5.35,-6.6 -11.83,-10 -19.41,-10 -8.92,0 -18.06,3.1 -27.44,9.4 -19.18,14.3 -37.03,24.2 -53.52,29.8 -16.52,5.5 -34.8,8.3 -54.87,8.3 -46.4,0 -81.54,-14.5 -105.4,-43.5 -23.86,-29 -35.8,-71.6 -35.8,-127.8 0,-56.6 11.94,-99.5 35.8,-128.5 23.86,-29 59,-43.4 105.4,-43.4 19.17,0 36.91,2.8 53.2,8.7 16.27,5.7 34.68,15.6 55.19,29.4 4.47,2.7 8.93,4.9 13.39,6.7 4.46,1.8 9.13,2.7 14.05,2.7 7.58,0 14.06,-3.4 19.41,-10.1 5.35,-6.7 8.03,-14.9 8.03,-24.7 0,-6.7 -1.12,-12.6 -3.34,-17.8 -2.24,-5.1 -6.26,-9.9 -12.05,-14.4 -20.08,-16.5 -43.06,-29.1 -68.93,-37.8 -25.88,-8.7 -53.53,-13 -82.97,-13 -45.5,0 -85.31,9.8 -119.44,29.4" /><path
         id="path42"
         style="fill:#000000;fill-opacity:1;fill-rule:nonzero;stroke:none"
         d="m 9091.43,10821.5 c 24.3,29.9 36.47,72.8 36.47,128.5 0,55.8 -12.17,98.5 -36.47,128.2 -24.32,29.6 -58.11,44.5 -101.38,44.5 -43.72,0 -77.74,-14.9 -102.04,-44.5 -24.32,-29.7 -36.48,-72.4 -36.48,-128.2 0,-55.7 12.16,-98.6 36.48,-128.5 24.3,-29.8 58.32,-44.8 102.04,-44.8 43.27,0 77.06,15 101.38,44.8 z m -220.82,-84.3 c -33.68,19.7 -59.67,47.8 -77.95,84.3 -18.3,36.6 -27.45,79.4 -27.45,128.5 0,49.1 9.05,91.8 27.11,128.2 18.07,36.3 44.05,64.3 77.95,83.9 33.9,19.7 73.84,29.5 119.78,29.5 45.95,0 85.75,-9.8 119.44,-29.5 33.68,-19.6 59.56,-47.6 77.63,-83.9 18.07,-36.4 27.1,-79.1 27.1,-128.2 0,-49.1 -9.15,-91.9 -27.43,-128.5 -18.3,-36.5 -44.28,-64.6 -77.96,-84.3 -33.68,-19.6 -73.27,-29.4 -118.78,-29.4 -45.94,0 -85.76,9.8 -119.44,29.4" /><path
         id="path44"
         style="fill:#000000;fill-opacity:1;fill-rule:nonzero;stroke:none"
         d="m 9788.68,11177.2 c 7.36,-7.8 11.05,-18.2 11.05,-31.1 v -392.8 c 0,-12.9 -3.8,-23.4 -11.39,-31.5 -7.59,-8 -17.39,-12 -29.43,-12 -14.29,0 -25.22,5.1 -32.8,15.4 l -244.23,317.8 v -289.7 c 0,-12.9 -3.58,-23.4 -10.71,-31.5 -7.15,-8 -16.96,-12 -29.44,-12 -12.5,0 -22.32,4 -29.44,12 -7.14,8.1 -10.71,18.6 -10.71,31.5 v 392.8 c 0,12.9 3.78,23.3 11.37,31.1 7.59,7.8 17.62,11.7 30.12,11.7 13.81,0 24.52,-5.1 32.12,-15.4 l 243.56,-316.5 v 289.1 c 0,12.9 3.68,23.3 11.04,31.1 7.36,7.8 17.08,11.7 29.12,11.7 12.48,0 22.41,-3.9 29.77,-11.7" /><path
         id="path46"
         style="fill:#000000;fill-opacity:1;fill-rule:nonzero;stroke:none"
         d="m 10067.7,10721.5 c -30.6,9.1 -55.4,21.5 -74.6,37.1 -10.27,7.6 -15.39,18.3 -15.39,32.2 0,9.3 2.78,17.5 8.36,24.4 5.58,6.9 12.15,10.4 19.73,10.4 8,0 17.2,-3.2 27.5,-9.4 19.1,-13.8 39.2,-23.9 60.2,-30.1 20.9,-6.3 44.1,-9.4 69.6,-9.4 32.5,0 57.5,5.7 74.9,17.1 17.4,11.4 26.1,28 26.1,49.8 0,17 -8.1,30 -24.4,39.2 -16.3,9.1 -43.4,17.9 -81.3,26.4 -39.3,8.5 -71.2,18.3 -95.7,29.4 -24.5,11.2 -43.1,25.5 -55.5,42.9 -12.54,17.4 -18.78,39.5 -18.78,66.2 0,27.7 7.79,52.4 23.38,74.3 15.7,21.8 37.4,38.9 65.3,51.2 27.9,12.2 59.2,18.4 94,18.4 63.8,0 115.8,-17 155.9,-50.9 5.8,-4.9 9.9,-9.7 12.4,-14.4 2.4,-4.6 3.7,-10.6 3.7,-17.7 0,-9.4 -2.8,-17.5 -8.4,-24.4 -5.6,-6.9 -12.2,-10.4 -19.7,-10.4 -4.5,0 -8.6,0.7 -12.4,2 -3.8,1.4 -8.8,3.8 -15.1,7.4 -18.3,13.4 -36,23.3 -53.2,29.8 -17.2,6.4 -38.2,9.7 -63.2,9.7 -30.3,0 -54.3,-6.2 -71.9,-18.4 -17.7,-12.3 -26.5,-29.4 -26.5,-51.2 0,-18.3 7.8,-32.4 23.5,-42.2 15.6,-9.8 42.1,-19 79.6,-27.4 39.7,-8.9 71.9,-18.9 96.7,-29.8 24.7,-10.9 43.7,-24.9 56.9,-41.8 13.1,-17 19.7,-38.2 19.7,-63.6 0,-27.7 -7.7,-52.1 -23.1,-73.3 -15.4,-21.2 -37,-37.7 -64.9,-49.5 -27.9,-11.8 -59.9,-17.7 -96,-17.7 -34.4,0 -66.8,4.6 -97.4,13.7" /><path
         id="path48"
         style="fill:#010201;fill-opacity:1;fill-rule:nonzero;stroke:none"
         d="m 6000,9920.54 c 372.79,0 675,-302.2 675,-675 0,-372.79 -302.21,-675 -675,-675 -372.79,0 -675,302.21 -675,675 0,372.8 302.21,675 675,675" /><path
         id="path50"
         style="fill:#ffffff;fill-opacity:1;fill-rule:nonzero;stroke:none"
         d="m 6000,9670.54 c -115.43,0 -129.9,-0.49 -175.23,-2.56 -45.23,-2.06 -76.13,-9.24 -103.16,-19.75 -27.95,-10.86 -51.65,-25.39 -75.28,-49.02 -23.63,-23.63 -38.16,-47.33 -49.02,-75.28 -10.5,-27.03 -17.69,-57.92 -19.75,-103.16 -2.07,-45.34 -2.56,-59.8 -2.56,-175.23 0,-115.42 0.49,-129.9 2.56,-175.23 2.06,-45.23 9.25,-76.13 19.75,-103.16 10.86,-27.95 25.39,-51.65 49.02,-75.27 23.63,-23.63 47.33,-38.16 75.28,-49.03 27.03,-10.5 57.93,-17.69 103.16,-19.75 45.33,-2.07 59.8,-2.56 175.23,-2.56 115.42,0 129.89,0.49 175.22,2.56 45.24,2.06 76.14,9.25 103.17,19.75 27.95,10.87 51.65,25.4 75.28,49.03 23.62,23.62 38.16,47.32 49.02,75.27 10.5,27.03 17.69,57.93 19.75,103.16 2.07,45.33 2.56,59.81 2.56,175.23 0,115.42 -0.49,129.89 -2.56,175.23 -2.06,45.24 -9.25,76.13 -19.75,103.16 -10.86,27.95 -25.4,51.65 -49.02,75.28 -23.63,23.63 -47.33,38.16 -75.28,49.02 -27.03,10.51 -57.93,17.69 -103.17,19.75 -45.33,2.07 -59.8,2.56 -175.22,2.56 z m 0,-76.58 c 113.48,0 126.92,-0.43 171.74,-2.47 41.43,-1.9 63.93,-8.82 78.91,-14.64 19.84,-7.71 34,-16.92 48.87,-31.79 14.87,-14.87 24.08,-29.03 31.79,-48.86 5.82,-14.98 12.74,-37.48 14.64,-78.92 2.04,-44.82 2.47,-58.26 2.47,-171.74 0,-113.48 -0.43,-126.92 -2.47,-171.74 -1.9,-41.43 -8.82,-63.94 -14.64,-78.91 -7.71,-19.84 -16.92,-34 -31.79,-48.87 -14.87,-14.87 -29.03,-24.08 -48.87,-31.79 -14.98,-5.82 -37.48,-12.75 -78.91,-14.63 -44.82,-2.05 -58.25,-2.48 -171.74,-2.48 -113.49,0 -126.93,0.43 -171.74,2.48 -41.43,1.88 -63.94,8.81 -78.91,14.63 -19.84,7.71 -34,16.92 -48.87,31.79 -14.87,14.87 -24.08,29.03 -31.79,48.87 -5.82,14.97 -12.74,37.48 -14.64,78.91 -2.04,44.82 -2.47,58.26 -2.47,171.74 0,113.48 0.43,126.92 2.47,171.74 1.9,41.44 8.82,63.94 14.64,78.92 7.71,19.83 16.91,33.99 31.79,48.86 14.87,14.87 29.03,24.08 48.87,31.79 14.97,5.82 37.48,12.74 78.91,14.64 44.82,2.04 58.26,2.47 171.74,2.47" /><path
         id="path52"
         style="fill:#ffffff;fill-opacity:1;fill-rule:nonzero;stroke:none"
         d="m 6000,9103.87 c -78.24,0 -141.67,63.43 -141.67,141.67 0,78.24 63.43,141.67 141.67,141.67 78.24,0 141.67,-63.43 141.67,-141.67 0,-78.24 -63.43,-141.67 -141.67,-141.67 z m 0,359.91 c -120.53,0 -218.24,-97.71 -218.24,-218.24 0,-120.53 97.71,-218.24 218.24,-218.24 120.53,0 218.24,97.71 218.24,218.24 0,120.53 -97.71,218.24 -218.24,218.24" /><path
         id="path54"
         style="fill:#ffffff;fill-opacity:1;fill-rule:nonzero;stroke:none"
         d="m 6277.86,9472.41 c 0,-28.17 -22.83,-51 -50.99,-51 -28.17,0 -51,22.83 -51,51 0,28.17 22.83,51 51,51 28.16,0 50.99,-22.83 50.99,-51" /><path
         id="path56"
         style="fill:#010201;fill-opacity:1;fill-rule:nonzero;stroke:none"
         d="m 4433.35,9245.54 c 0,-372.79 -302.21,-675 -675,-675 -372.79,0 -675,302.21 -675,675 0,372.8 302.21,675 675,675 372.79,0 675,-302.2 675,-675" /><path
         id="path58"
         style="fill:#ffffff;fill-opacity:1;fill-rule:evenodd;stroke:none"
         d="m 3758.35,9745.54 c -287.3,0 -510,-210.45 -510,-494.7 0,-148.68 60.94,-277.16 160.17,-365.9 8.33,-7.46 13.35,-17.9 13.7,-29.09 l 2.77,-90.71 c 0.89,-28.94 30.78,-47.77 57.26,-36.08 l 101.23,44.69 c 8.58,3.78 18.2,4.48 27.24,1.99 46.52,-12.79 96.03,-19.6 147.63,-19.6 287.3,0 510,210.45 510,494.7 0,284.25 -222.7,494.7 -510,494.7" /><path
         id="path60"
         style="fill:#010201;fill-opacity:1;fill-rule:evenodd;stroke:none"
         d="m 3452.09,9106.17 149.82,237.68 c 23.83,37.81 74.86,47.22 110.61,20.41 l 119.16,-89.37 c 10.93,-8.2 25.98,-8.15 36.86,0.11 l 160.92,122.13 c 21.48,16.3 49.52,-9.41 35.14,-32.22 l -149.81,-237.68 c -23.83,-37.81 -74.86,-47.22 -110.62,-20.41 l -119.15,89.37 c -10.93,8.2 -25.98,8.16 -36.86,-0.11 l -160.92,-122.13 c -21.48,-16.29 -49.52,9.41 -35.15,32.22" /><path
         id="path62"
         style="fill:#010201;fill-opacity:1;fill-rule:nonzero;stroke:none"
         d="m 8916.65,9245.54 c 0,-372.79 -302.21,-675 -675,-675 -372.79,0 -675,302.21 -675,675 0,372.8 302.21,675 675,675 372.79,0 675,-302.2 675,-675" /><path
         id="path64"
         style="fill:#ffffff;fill-opacity:1;fill-rule:evenodd;stroke:none"
         d="m 8458.67,9169.8 c -10.7,5.35 -63.3,31.23 -73.11,34.8 -9.81,3.56 -16.94,5.35 -24.08,-5.36 -7.12,-10.7 -27.63,-34.8 -33.87,-41.94 -6.24,-7.13 -12.48,-8.03 -23.18,-2.67 -10.7,5.35 -45.17,16.64 -86.04,53.09 -31.81,28.35 -53.28,63.38 -59.52,74.09 -6.24,10.71 -0.67,16.5 4.69,21.83 4.81,4.79 10.7,12.49 16.05,18.74 5.35,6.24 7.13,10.71 10.69,17.84 3.58,7.14 1.79,13.39 -0.89,18.74 -2.67,5.36 -24.07,58 -32.98,79.42 -8.69,20.85 -17.5,18.03 -24.08,18.36 -6.23,0.31 -13.37,0.37 -20.5,0.37 -7.13,0 -18.72,-2.67 -28.53,-13.38 -9.81,-10.71 -37.45,-36.58 -37.45,-89.23 0,-52.64 38.34,-103.5 43.69,-110.64 5.35,-7.14 75.44,-115.18 182.77,-161.51 25.53,-11.02 45.46,-17.6 61,-22.53 25.63,-8.14 48.96,-6.99 67.39,-4.24 20.55,3.07 63.3,25.88 72.22,50.87 8.92,24.98 8.92,46.39 6.24,50.85 -2.68,4.46 -9.81,7.14 -20.51,12.5 z m -195.22,-266.47 h -0.15 c -63.86,0.02 -126.49,17.17 -181.14,49.59 l -13,7.72 -134.7,-35.33 35.96,131.29 -8.47,13.46 c -35.62,56.65 -54.44,122.12 -54.41,189.35 0.08,196.17 159.74,355.77 356.05,355.77 95.06,-0.04 184.43,-37.1 251.62,-104.34 67.19,-67.26 104.17,-156.65 104.15,-251.72 -0.09,-196.19 -159.75,-355.79 -355.91,-355.79 z m 302.9,658.6 c -80.84,80.92 -188.36,125.5 -302.9,125.55 -236.03,0 -428.12,-192.02 -428.21,-428.05 -0.03,-75.44 19.69,-149.08 57.16,-214 l -60.75,-221.82 226.99,59.53 c 62.55,-34.11 132.97,-52.08 204.63,-52.11 h 0.18 c 0.02,0 -0.01,0 0,0 235.99,0 428.1,192.04 428.2,428.06 0.04,114.38 -44.45,221.94 -125.3,302.84" /><path
         id="path66"
         style="fill:#010201;fill-opacity:1;fill-rule:evenodd;stroke:none"
         d="m 11158.3,9245.54 c 0,-372.79 -302.2,-675 -675,-675 -372.8,0 -675,302.21 -675,675 0,372.8 302.2,675 675,675 372.8,0 675,-302.2 675,-675" /><path
         id="path68"
         style="fill:#ffffff;fill-opacity:1;fill-rule:nonzero;stroke:none"
         d="m 10346.9,8856.79 c 329.7,0 510,273.13 510,509.97 0,7.76 -0.2,15.49 -0.5,23.17 35,25.3 65.4,56.87 89.4,92.8 -32.1,-14.26 -66.7,-23.88 -102.9,-28.21 37,22.18 65.4,57.3 78.8,99.15 -34.7,-20.54 -73,-35.47 -113.8,-43.51 -32.8,34.84 -79.3,56.63 -130.9,56.63 -99,0 -179.2,-80.27 -179.2,-179.22 0,-14.07 1.5,-27.75 4.6,-40.87 -149,7.49 -281,78.81 -369.4,187.26 -15.4,-26.47 -24.3,-57.26 -24.3,-90.08 0,-62.19 31.6,-117.08 79.8,-149.2 -29.4,0.91 -57.1,8.99 -81.2,22.43 -0.1,-0.75 -0.1,-1.5 -0.1,-2.29 0,-86.81 61.8,-159.28 143.8,-175.72 -15,-4.09 -30.9,-6.3 -47.2,-6.3 -11.6,0 -22.8,1.14 -33.7,3.23 22.8,-71.21 89,-123.03 167.4,-124.49 -61.3,-48.07 -138.6,-76.72 -222.6,-76.72 -14.4,0 -28.7,0.82 -42.7,2.48 79.3,-50.83 173.5,-80.51 274.7,-80.51" /><path
         id="path70"
         style="fill:#010201;fill-opacity:1;fill-rule:evenodd;stroke:none"
         d="m 8916.65,5314.49 c 0,-372.79 -302.21,-675 -675,-675 -372.79,0 -675,302.21 -675,675 0,372.8 302.21,675 675,675 372.79,0 675,-302.2 675,-675" /><path
         id="path72"
         style="fill:#ffffff;fill-opacity:1;fill-rule:nonzero;stroke:none"
         d="m 8444.18,4888.61 h -142.27 c -128.1,0 -223.57,65.91 -223.57,223.58 v 252.5 h -116.4 v 136.72 c 128.1,33.26 181.68,143.5 187.85,238.96 h 133.02 v -216.79 h 155.2 v -158.89 h -155.2 v -219.87 c 0,-65.89 33.26,-88.69 86.22,-88.69 h 75.15 v -167.52" /><path
         id="path74"
         style="fill:#010201;fill-opacity:1;fill-rule:nonzero;stroke:none"
         d="m 1517.26,7951.47 c -373.09,0 -675.561,-302.47 -675.561,-675.56 0,-286.34 177.921,-530.99 429.241,-629.4 -6.12,53.38 -11.12,135.67 2.22,194.05 12.24,52.82 78.96,335.83 78.96,335.83 0,0 -20.02,40.59 -20.02,100.08 0,93.96 54.49,164.02 122.32,164.02 57.83,0 85.63,-43.37 85.63,-95.07 0,-57.83 -36.7,-144.57 -56.16,-225.19 -16.12,-67.28 33.92,-122.32 100.08,-122.32 120.1,0 212.4,126.77 212.4,309.14 0,161.8 -116.2,274.67 -282.45,274.67 -192.38,0 -305.25,-144.01 -305.25,-293.02 0,-57.82 22.24,-120.1 50.04,-154.01 5.56,-6.67 6.11,-12.79 4.45,-19.46 -5.01,-21.13 -16.69,-67.28 -18.91,-76.73 -2.78,-12.24 -10.01,-15.01 -22.79,-8.9 -84.52,39.48 -137.34,162.36 -137.34,261.88 0,212.95 154.57,408.67 446.48,408.67 234.08,0 416.45,-166.8 416.45,-390.32 0,-232.96 -146.79,-420.34 -350.29,-420.34 -68.39,0 -132.88,35.58 -154.57,77.84 0,0 -33.91,-129 -42.25,-160.69 -15.02,-58.93 -56.16,-132.33 -83.96,-177.37 63.39,-19.46 130.1,-30.02 200.16,-30.02 373.08,0 675.56,302.47 675.56,675.55 1.11,374.2 -301.36,676.67 -674.44,676.67" /><path
         id="path76"
         style="fill:#010201;fill-opacity:1;fill-rule:nonzero;stroke:none"
         d="m 6675,7275.36 c 0,-372.79 -302.21,-675 -675,-675 -372.79,0 -675,302.21 -675,675 0,372.79 302.21,675 675,675 372.79,0 675,-302.21 675,-675" /><path
         id="path78"
         style="fill:#ffffff;fill-opacity:1;fill-rule:nonzero;stroke:none"
         d="m 5910,7140.36 v 270 l 233.82,-135 z m 521.19,351.62 c -10.35,38.72 -40.84,69.22 -79.57,79.57 -70.18,18.81 -351.62,18.81 -351.62,18.81 0,0 -281.44,0 -351.63,-18.81 -38.72,-10.35 -69.22,-40.85 -79.56,-79.57 C 5550,7421.8 5550,7275.36 5550,7275.36 c 0,0 0,-146.44 18.81,-216.62 10.34,-38.73 40.84,-69.22 79.56,-79.57 70.19,-18.81 351.63,-18.81 351.63,-18.81 0,0 281.44,0 351.62,18.81 38.73,10.35 69.22,40.84 79.57,79.57 18.81,70.18 18.81,216.62 18.81,216.62 0,0 0,146.44 -18.81,216.62" /><path
         id="path80"
         style="fill:#010201;fill-opacity:1;fill-rule:nonzero;stroke:none"
         d="m 11158.3,7275.36 c 0,-372.79 -302.2,-675 -675,-675 -372.8,0 -675,302.21 -675,675 0,372.79 302.2,675 675,675 372.8,0 675,-302.21 675,-675" /><path
         id="path82"
         style="fill:#ffffff;fill-opacity:1;fill-rule:evenodd;stroke:none"
         d="m 10322.1,7366.25 c 179.4,61.85 210,222.96 187.1,371.1 0,5.35 4.5,9.16 9.1,7.64 171.8,-84 365,-267.26 365,-542.14 0,-210.74 -163.4,-397.05 -400.9,-397.05 -210.6,-9.58 -389.1,153.41 -398.7,364.04 -6.3,139.52 64,271.36 183.4,343.78 4.6,3.05 10.7,0 10.7,-5.34 2.3,-28.26 9.9,-99.27 41.2,-142.03 h 3.1" /><path
         id="path84"
         style="fill:#010201;fill-opacity:1;fill-rule:nonzero;stroke:none"
         d="m 8916.65,7275.36 c 0,-372.79 -302.21,-675 -675,-675 -372.79,0 -675,302.21 -675,675 0,372.79 302.21,675 675,675 372.79,0 675,-302.21 675,-675" /><path
         id="path86"
         style="fill:#fefefe;fill-opacity:1;fill-rule:nonzero;stroke:none"
         d="m 8293.88,7367.45 c 11.08,12.45 20.22,25.1 31.61,35.83 35,32.99 76.41,49.64 124.75,49.23 26.57,-0.22 52.84,-2.14 78.45,-9.55 58.59,-16.94 92.64,-57.27 108.87,-114.5 12.18,-42.92 14.42,-86.99 14.5,-131.19 0.16,-93.25 -0.27,-186.49 -0.07,-279.74 0.02,-8.73 -2.42,-11.02 -11.02,-10.94 -48.03,0.39 -96.08,0.4 -144.11,-0.02 -8.45,-0.07 -10.28,2.55 -10.25,10.53 0.27,88.73 0.33,177.45 0.05,266.18 -0.08,22.23 -1.49,44.45 -7.73,66.07 -11.49,39.82 -39.99,60.11 -81.71,57.91 -56.97,-3.01 -86.59,-31.22 -93.85,-89.14 -1.74,-13.84 -2.56,-27.68 -2.55,-41.62 0.08,-86.29 -0.09,-172.58 0.23,-258.86 0.03,-8.61 -2.12,-11.15 -10.91,-11.07 -48.38,0.43 -96.78,0.38 -145.16,0.04 -7.75,-0.06 -10,2.03 -9.99,9.88 0.22,170.83 0.22,341.67 -0.01,512.51 -0.01,8.45 2.76,10.41 10.75,10.35 45.95,-0.34 91.91,-0.38 137.85,0.03 8.46,0.07 10.64,-2.66 10.45,-10.67 -0.47,-20.41 -0.15,-40.84 -0.15,-61.26" /><path
         id="path88"
         style="fill:#fefefe;fill-opacity:1;fill-rule:nonzero;stroke:none"
         d="m 8030.68,7172.21 c 0,-84.51 -0.14,-169.03 0.2,-253.55 0.04,-9.39 -2.3,-12.23 -12.02,-12.12 -48.01,0.53 -96.04,0.4 -144.06,0.07 -7.69,-0.06 -10.01,1.87 -10,9.82 0.23,171.12 0.21,342.24 0.04,513.36 -0.01,7.08 1.71,9.6 9.23,9.56 48.71,-0.32 97.43,-0.41 146.14,0.05 9.36,0.1 10.64,-3.54 10.62,-11.56 -0.23,-85.21 -0.15,-170.42 -0.15,-255.63" /><path
         id="path90"
         style="fill:#fefefe;fill-opacity:1;fill-rule:nonzero;stroke:none"
         d="m 8043.93,7608.92 c 0.04,-53.06 -43.03,-96.29 -95.96,-96.31 -52.27,-0.02 -95.7,43.25 -95.87,95.49 -0.18,52.81 43.23,96.3 96.06,96.25 52.47,-0.05 95.71,-43.14 95.77,-95.43" /><path
         id="path92"
         style="fill:#010201;fill-opacity:1;fill-rule:evenodd;stroke:none"
         d="m 2191.7,1383.4 c 0,-372.7 -302.21,-675.002 -675,-675.002 -372.79,0 -675.001,302.302 -675.001,675.002 0,372.8 302.211,675.05 675.001,675.05 372.79,0 675,-302.25 675,-675.05" /><path
         id="path94"
         style="fill:#ffffff;fill-opacity:1;fill-rule:evenodd;stroke:none"
         d="m 1046.33,1382 c 0,116 93.99,210 209.93,210 115.95,0 209.94,-94 209.94,-210 0,-115.9 -93.99,-209.9 -209.94,-209.9 -115.94,0 -209.93,94 -209.93,209.9" /><path
         id="path96"
         style="fill:#ffffff;fill-opacity:1;fill-rule:evenodd;stroke:none"
         d="m 1568.16,1382 c 0,116 93.99,210 209.94,210 115.94,0 209.93,-94 209.93,-210 0,-115.9 -93.99,-209.9 -209.93,-209.9 -115.95,0 -209.94,94 -209.94,209.9" /><path
         id="path98"
         style="fill:#010201;fill-opacity:1;fill-rule:evenodd;stroke:none"
         d="m 6675,5314.49 c 0,-372.79 -302.21,-675 -675,-675 -372.79,0 -675,302.21 -675,675 0,372.8 302.21,675 675,675 372.79,0 675,-302.2 675,-675" /><path
         id="path100"
         style="fill:#ffffff;fill-opacity:1;fill-rule:nonzero;stroke:none"
         d="m 6232.49,5473.71 c -0.2,-18.55 -1.12,-37.08 -2.5,-55.59 -0.24,-3.15 -0.32,-6.31 -0.37,-9.48 -0.11,-6.87 3.84,-9.67 10.67,-9.05 2.49,0.23 4.99,0.89 7.37,1.72 6.74,2.37 13.44,4.88 20.12,7.42 11.22,4.27 22.45,8.5 34.16,11.25 7.86,1.85 15.75,2.77 23.77,0.94 18.21,-4.17 27.64,-22.26 20.61,-39.6 -1.86,-4.56 -4.62,-8.5 -7.87,-12.13 -4.67,-5.22 -10.03,-9.65 -15.8,-13.56 -6.81,-4.6 -13.69,-9.09 -20.55,-13.61 -11.44,-7.54 -22.91,-15.01 -34.3,-22.63 -4.72,-3.16 -9.33,-6.5 -13.84,-9.98 -2.49,-1.92 -4.8,-4.13 -6.9,-6.46 -4.29,-4.76 -6.27,-10.43 -5.87,-16.85 0.39,-6.11 1.48,-12.1 3.17,-17.99 5.43,-18.97 13.7,-36.65 23.79,-53.52 18.64,-31.08 42.61,-57.49 70.65,-80.3 23.81,-19.39 49.78,-35.33 77.31,-48.82 2.45,-1.2 4.86,-2.53 7.21,-3.91 1.84,-1.07 3.4,-2.52 4.62,-4.27 1.85,-2.64 2.1,-5.4 0.53,-8.32 -1.34,-2.47 -3.29,-4.36 -5.4,-6.11 -3.11,-2.56 -6.59,-4.55 -10.1,-6.46 -15.63,-8.51 -32.2,-14.53 -49.34,-19.15 -7.31,-1.98 -14.59,-4.07 -21.85,-6.21 -5.06,-1.5 -9.82,-3.73 -14.5,-6.16 -7.9,-4.09 -12.38,-10.6 -14.05,-19.15 -0.93,-4.75 -1.49,-9.57 -2.34,-14.34 -2.16,-12 -6.48,-16.42 -18.29,-18.45 -4.14,-0.71 -8.36,-1.15 -12.56,-1.38 -10.52,-0.58 -21.07,-0.86 -31.59,-1.45 -23.85,-1.35 -47.3,-5.02 -70.08,-12.47 -9.65,-3.17 -18.87,-7.27 -27.65,-12.31 -9.31,-5.34 -18.5,-10.91 -27.69,-16.46 -14.62,-8.83 -29.45,-17.22 -45.41,-23.42 -17.8,-6.91 -36.18,-11.02 -55.2,-12.74 -16.03,-1.45 -32.02,-1.24 -47.97,0.55 -23.88,2.68 -46.52,9.65 -67.92,20.61 -9.95,5.09 -19.53,10.79 -29.06,16.61 -7.02,4.28 -14.05,8.51 -21.11,12.71 -16.82,10 -35.01,16.44 -54.07,20.58 -17.33,3.77 -34.88,5.88 -52.61,6.55 -9.27,0.35 -18.54,0.74 -27.8,1.28 -5.25,0.31 -10.47,0.98 -15.6,2.33 -7.19,1.89 -11.8,6.27 -13.28,13.65 -0.82,4.13 -1.47,8.29 -2.18,12.44 -0.14,0.83 -0.18,1.67 -0.3,2.51 -1.56,11.03 -7,19.12 -17.4,23.82 -6.36,2.87 -12.87,5.2 -19.57,7.07 -11.55,3.21 -23.21,6.04 -34.53,10.09 -9.93,3.55 -19.55,7.79 -28.81,12.83 -2.77,1.51 -5.46,3.18 -8.07,4.95 -1.74,1.18 -3.39,2.54 -4.84,4.04 -5.38,5.6 -4.93,10.68 1.24,15.48 3.03,2.35 6.5,3.91 9.9,5.57 24.1,11.8 46.94,25.66 68.2,42.05 30.35,23.36 56.31,50.76 76.43,83.49 10.74,17.47 19.51,35.86 25.22,55.63 1.82,6.3 3.08,12.66 3.34,19.25 0.25,6.49 -1.95,11.96 -6.24,16.7 -2.57,2.82 -5.49,5.23 -8.54,7.51 -8.77,6.57 -17.91,12.61 -27.07,18.62 -11.63,7.62 -23.31,15.17 -34.95,22.77 -5.83,3.82 -11.43,7.93 -16.5,12.74 -3.68,3.49 -6.97,7.3 -9.6,11.69 -5.51,9.2 -5.89,18.71 -1.74,28.45 2.87,6.72 7.84,11.39 14.65,14.05 7.48,2.91 15.2,3.17 23.02,1.87 9.18,-1.51 18.01,-4.33 26.72,-7.49 8.9,-3.22 17.72,-6.7 26.58,-10.04 4.13,-1.55 8.28,-3.09 12.68,-3.77 1.04,-0.15 2.09,-0.47 3.12,-0.44 5.11,0.16 9.33,1.83 9.29,8.66 -0.04,5.69 -0.3,11.38 -0.69,17.06 -2.08,30.73 -2.9,61.5 -1.64,92.27 0.81,19.6 2.84,39.08 7.21,58.26 6.09,26.67 17.18,50.93 33.73,72.8 30.55,40.36 70.89,65.91 119.22,79.54 26.39,7.43 53.36,9.89 80.7,9.02 28.9,-0.92 56.9,-6.27 83.85,-16.74 25.59,-9.93 48.94,-23.69 69.06,-42.43 25.37,-23.63 44.93,-51.22 55.53,-84.65 4.79,-15.11 7.82,-30.57 9.7,-46.29 2.91,-24.34 3.02,-48.79 2.77,-73.25" /><path
         id="path102"
         style="fill:#010201;fill-opacity:1;fill-rule:evenodd;stroke:none"
         d="m 2191.7,3353.63 c 0,-372.79 -302.21,-675 -675,-675 -372.79,0 -675.001,302.21 -675.001,675 0,372.8 302.211,675 675.001,675 372.79,0 675,-302.2 675,-675" /><path
         id="path104"
         style="fill:#ffffff;fill-opacity:1;fill-rule:nonzero;stroke:none"
         d="m 1809,3276.46 c -21.96,0 -39.77,17.82 -39.77,39.78 0,21.96 17.81,39.78 39.77,39.78 21.97,0 39.78,-17.82 39.78,-39.78 0,-21.96 -17.81,-39.78 -39.78,-39.78 z m -193.81,0 c -21.97,0 -39.77,17.82 -39.77,39.78 0,21.96 17.8,39.78 39.77,39.78 21.96,0 39.77,-17.82 39.77,-39.78 0,-21.96 -17.81,-39.78 -39.77,-39.78 z m 385.11,-18.24 c -3.29,15.26 -5.11,31 -10.07,45.69 -20.27,60.09 -60.22,104.5 -114.11,136.34 -70.59,41.71 -147.14,54.44 -227.6,41.25 -72.18,-11.83 -134.39,-43.26 -183.51,-98.78 -66.56,-75.26 -76.29,-180.97 -21.75,-265.23 54.23,-83.76 135.67,-122.14 232.23,-132.37 45.79,-4.86 90.58,2.47 134.86,13.92 4.02,1.04 9.31,1 12.9,-0.79 21.88,-10.9 43.45,-22.43 65.1,-33.78 8.15,-4.26 16.26,-8.63 25.82,-13.71 -0.86,3.05 -1.2,4.44 -1.64,5.79 -7.76,24.25 -15.39,48.55 -23.45,72.7 -1.6,4.8 -1.43,7.66 3.08,10.63 6.1,4.01 11.75,8.73 17.42,13.36 40.32,32.91 70.03,73.17 84.12,123.81 3.62,13.02 5.38,26.55 8,39.85 0,12.12 0,24.25 0,36.37 -0.47,1.65 -1.04,3.28 -1.4,4.95" /><path
         id="path106"
         style="fill:#ffffff;fill-opacity:1;fill-rule:nonzero;stroke:none"
         d="m 1264.13,3511.1 c -27.56,0 -49.9,22.35 -49.9,49.91 0,27.55 22.34,49.9 49.9,49.9 27.56,0 49.9,-22.35 49.9,-49.9 0,-27.56 -22.34,-49.91 -49.9,-49.91 z m 243.04,99.81 c 27.57,0 49.91,-22.35 49.91,-49.9 0,-27.56 -22.34,-49.91 -49.91,-49.91 -27.56,0 -49.89,22.35 -49.89,49.91 0,27.55 22.33,49.9 49.89,49.9 z m -112.12,-323.89 c 14.95,66.01 53.37,116.4 107.43,155.16 64.74,46.43 138.16,64.5 217.07,62.85 5,-0.1 10,-0.01 15.07,-0.01 0.06,1.07 0.28,1.86 0.11,2.55 -1.67,6.59 -3.12,13.26 -5.17,19.73 -27.06,85.57 -83.93,146.06 -162.36,185.82 -96.13,48.72 -197.24,55.52 -300.22,24.84 -81.03,-24.15 -147.57,-69.74 -193.52,-141.94 -34.71,-54.55 -48.52,-114.35 -38.65,-178.73 9.57,-62.4 39,-114.66 84.1,-158.14 16.1,-15.53 33.96,-29.23 51.47,-44.16 -10.91,-32.59 -22.17,-66.24 -34.09,-101.85 5.44,2.81 8.58,4.38 11.68,6.02 32.95,17.55 65.96,34.98 98.76,52.79 5.74,3.12 10.62,3.71 16.96,1.75 39.05,-12.13 79.18,-17.81 120.01,-18.69 5.92,-0.13 11.85,-0.02 18.71,-0.02 -1.31,4.6 -2.16,7.71 -3.06,10.78 -11.78,40.05 -13.51,80.6 -4.3,121.25" /><path
         id="path108"
         style="fill:#010201;fill-opacity:1;fill-rule:nonzero;stroke:none"
         d="m 8916.65,3353.63 c 0,-372.79 -302.21,-675 -675,-675 -372.79,0 -675,302.21 -675,675 0,372.8 302.21,675 675,675 372.79,0 675,-302.2 675,-675" /><path
         id="path110"
         style="fill:#ffffff;fill-opacity:1;fill-rule:nonzero;stroke:none"
         d="m 8396.34,3213 c -38.77,0 -70.31,31.53 -70.31,70.3 0,38.78 31.54,70.33 70.31,70.33 38.77,0 70.31,-31.55 70.31,-70.33 0,-38.77 -31.54,-70.3 -70.31,-70.3 z m 12.38,-115.48 c -47.99,-47.92 -139.95,-51.65 -166.99,-51.65 -27.04,0 -119.01,3.73 -166.94,51.66 -7.11,7.11 -7.11,18.65 0,25.77 7.11,7.11 18.66,7.11 25.78,-0.01 30.24,-30.24 94.95,-40.98 141.16,-40.98 46.22,0 110.94,10.74 141.24,40.99 7.13,7.11 18.66,7.1 25.77,-0.01 7.11,-7.13 7.1,-18.66 -0.02,-25.77 z m -392.07,185.79 c 0,38.77 31.55,70.32 70.34,70.32 38.75,0 70.29,-31.55 70.29,-70.32 0,-38.76 -31.54,-70.3 -70.29,-70.3 -38.79,0 -70.34,31.54 -70.34,70.3 z m 674.89,70.32 c 0,54.37 -44.07,98.44 -98.43,98.44 -26.55,0 -50.58,-10.56 -68.29,-27.63 -67.27,48.57 -159.99,79.93 -263.24,83.53 l 44.84,210.97 146.5,-31.15 c 1.79,-37.24 32.29,-66.97 69.98,-66.97 38.83,0 70.31,31.47 70.31,70.31 0,38.83 -31.48,70.32 -70.31,70.32 -27.62,0 -51.28,-16.08 -62.78,-39.25 l -163.59,34.77 c -4.55,0.99 -9.31,0.1 -13.22,-2.45 -3.92,-2.54 -6.66,-6.53 -7.63,-11.08 l -50.07,-235.41 c -104.77,-2.9 -198.97,-34.31 -267.11,-83.4 -17.69,16.96 -41.64,27.44 -68.08,27.44 -54.37,0 -98.44,-44.07 -98.44,-98.44 0,-40 23.9,-74.35 58.16,-89.75 -1.52,-9.79 -2.35,-19.72 -2.35,-29.78 0,-151.44 176.29,-274.22 393.75,-274.22 217.46,0 393.75,122.78 393.75,274.22 0,10 -0.82,19.86 -2.31,29.58 34.48,15.31 58.56,49.8 58.56,89.95" /><path
         id="path112"
         style="fill:#010201;fill-opacity:1;fill-rule:evenodd;stroke:none"
         d="m 11158.3,3353.63 c 0,-372.79 -302.2,-675 -675,-675 -372.8,0 -675,302.21 -675,675 0,372.8 302.2,675 675,675 372.8,0 675,-302.2 675,-675" /><path
         id="path114"
         style="fill:#ffffff;fill-opacity:1;fill-rule:evenodd;stroke:none"
         d="m 10721.4,2999.51 c -4.4,26.03 -27.1,150.76 -83,304.23 133.9,21.15 251.1,-13.55 265.7,-18.44 -18.4,-118.77 -86.7,-221.26 -182.7,-285.79 z m -238.1,-73.21 c -98.7,0 -189.8,33.62 -261.9,90.02 7.6,15.73 94.3,182.75 335.1,266.81 1.1,0.54 1.6,0.54 2.7,1.09 60.2,-155.65 84.6,-286.34 91.1,-323.75 -51.5,-22.24 -107.9,-34.17 -167,-34.17 z m -427.3,426.79 c 0,4.34 0,8.68 0,13.01 18.4,-0.53 225.6,-3.25 438.7,60.75 12.5,-23.87 23.8,-48.28 34.7,-72.68 -5.4,-1.62 -11.4,-3.25 -16.8,-4.87 -220.2,-71.05 -337.3,-265.19 -347.1,-281.46 -67.8,75.38 -109.5,175.7 -109.5,285.25 z m 245.6,386.66 c 11.4,-15.19 87.3,-120.93 158.4,-246.75 -199.6,-53.15 -375.8,-52.06 -394.8,-52.06 27.6,132.32 117.1,242.41 236.4,298.81 z m 181.7,40.13 c 108.5,0 207.7,-40.67 283.1,-107.38 -7.6,-10.84 -72.1,-97.07 -224,-154.01 -69.9,128.52 -147.5,233.73 -159.4,250 32,7.59 65.6,11.39 100.3,11.39 z m 330.3,-156.73 c 59.6,-72.66 95.4,-165.4 96.5,-265.72 -14.1,2.71 -155.1,31.45 -297.2,13.56 -3.2,7.05 -6,14.63 -9.2,22.23 -8.7,20.61 -18.4,41.76 -28.2,61.82 157.3,63.99 228.8,156.18 238.1,168.11 z m -330.3,230.48 c -276,0 -500,-223.97 -500,-500 0,-276.03 224,-500 500,-500 275.5,0 500,223.97 500,500 0,276.03 -224.5,500 -500,500" /><path
         id="path116"
         style="fill:#000000;fill-opacity:1;fill-rule:evenodd;stroke:none"
         d="m 8916.65,1383.4 c 0,-372.7 -302.21,-675.002 -675,-675.002 -372.79,0 -675,302.302 -675,675.002 0,372.8 302.21,675.05 675,675.05 372.79,0 675,-302.25 675,-675.05" /><path
         id="path118"
         style="fill:#ffffff;fill-opacity:1;fill-rule:nonzero;stroke:none"
         d="m 8049.22,1202.2 c 12.29,0 23.96,1.1 34.94,3.6 11.14,2.4 21.03,6.2 29.36,12 8.33,5.4 15.23,13 20.25,22.5 5.03,9.5 7.44,21.8 7.44,36.7 0,29.2 -8.2,49.9 -24.53,62.5 -16.35,12.3 -38.14,18.5 -64.96,18.5 h -135.46 v -155.8 z m -6.89,240.9 c 22.08,0 40.36,5.2 54.84,15.9 14.33,10.4 21.28,27.7 21.28,51.4 0,13.2 -2.31,24.1 -6.95,32.5 -4.8,8.4 -11.17,15.1 -19.2,19.7 -7.97,4.8 -16.98,8.1 -27.43,9.9 -10.26,2 -21.02,2.8 -32.04,2.8 h -116.57 v -132.2 z m 16.12,228.6 c 27.07,0 51.5,-2.3 73.83,-7.2 22.19,-4.7 41.15,-12.5 57.16,-23.3 15.76,-10.8 28.1,-25.1 36.93,-43.2 8.63,-17.8 12.95,-40 12.95,-66.4 0,-28.5 -6.47,-52.3 -19.39,-71.3 -13.04,-19 -32.17,-34.5 -57.75,-46.7 34.83,-10 60.62,-27.6 77.72,-52.6 17.19,-25.3 25.61,-55.5 25.61,-90.9 0,-28.7 -5.5,-53.4 -16.48,-74.2 -11.07,-21 -26.16,-38.1 -44.75,-51.2 -18.74,-13.3 -40.28,-23 -64.39,-29.4 -23.84,-6.3 -48.6,-9.5 -73.95,-9.5 h -274.29 v 565.9 h 266.8" /><path
         id="path120"
         style="fill:#ffffff;fill-opacity:1;fill-rule:nonzero;stroke:none"
         d="m 8572.43,1419.4 c -13.37,14.8 -36.02,22.8 -63.66,22.8 -17.99,0 -32.87,-3.1 -44.79,-9.2 -11.65,-6.1 -21.19,-13.7 -28.49,-22.6 -7.27,-9.1 -12.22,-18.6 -15.09,-28.9 -2.9,-9.9 -4.62,-19 -5.15,-27 h 183.12 c -2.69,28.7 -12.51,49.9 -25.94,64.9 z m -129.3,-215.3 c 16.84,-16.5 41.21,-24.8 72.77,-24.8 22.7,0 42.32,5.8 58.78,17.2 16.31,11.4 26.23,23.6 30.07,36.3 h 99.11 c -15.93,-49.3 -40.1,-84.5 -73.07,-105.7 -32.59,-21.3 -72.33,-31.9 -118.64,-31.9 -32.28,0 -61.32,5.2 -87.4,15.5 -26.07,10.4 -47.86,25 -66.18,44.1 -17.85,19.1 -31.72,41.7 -41.61,68.3 -9.77,26.4 -14.7,55.6 -14.7,87.3 0,30.6 5.11,59.3 15.12,85.7 10.23,26.5 24.35,49.5 42.92,68.7 18.62,19.3 40.69,34.5 66.39,45.7 25.71,11.1 54.06,16.7 85.46,16.7 34.66,0 65.03,-6.7 91.04,-20.3 25.94,-13.4 47.2,-31.6 63.91,-54.3 16.7,-22.7 28.58,-48.7 36.01,-77.8 7.37,-29 9.95,-59.4 7.83,-91.2 h -295.69 c 0,-32.4 10.96,-63.1 27.88,-79.5" /><path
         id="path122"
         style="fill:#ffffff;fill-opacity:1;fill-rule:nonzero;stroke:none"
         d="m 8392.24,1633.8 v -55.9 h 229.38 v 55.9 h -229.38" /><path
         id="path124"
         style="fill:#010201;fill-opacity:1;fill-rule:nonzero;stroke:none"
         d="m 4433.35,5314.49 c 0,-372.79 -302.21,-675 -675,-675 -372.79,0 -675,302.21 -675,675 0,372.8 302.21,675 675,675 372.79,0 675,-302.2 675,-675" /><path
         id="path126"
         style="fill:#ffffff;fill-opacity:1;fill-rule:nonzero;stroke:none"
         d="m 4194.45,5525.94 c -4.06,-88.57 -65.92,-209.84 -185.59,-363.79 -123.72,-160.75 -228.41,-241.16 -314.01,-241.16 -53.06,0 -97.95,48.93 -134.62,146.86 -24.48,89.78 -48.95,179.54 -73.44,269.32 -27.24,97.88 -56.43,146.87 -87.68,146.87 -6.82,0 -30.63,-14.32 -71.42,-42.85 l -42.8,55.14 c 44.91,39.45 89.21,78.9 132.79,118.42 59.9,51.72 104.89,78.95 134.86,81.7 70.8,6.81 114.39,-41.6 130.75,-145.2 17.68,-111.8 29.93,-181.32 36.79,-208.53 20.44,-92.75 42.91,-139.09 67.42,-139.09 19.03,0 47.66,30.08 85.82,90.28 38.08,60.14 58.5,105.91 61.25,137.38 5.45,51.91 -14.98,77.94 -61.25,77.94 -21.79,0 -44.26,-5.02 -67.37,-14.92 44.74,146.46 130.18,217.59 256.29,213.53 93.51,-2.74 137.61,-63.37 132.21,-181.9" /><path
         id="path128"
         style="fill:#010201;fill-opacity:1;fill-rule:evenodd;stroke:none"
         d="m 6675,1383.4 c 0,-372.7 -302.21,-675.002 -675,-675.002 -372.79,0 -675,302.302 -675,675.002 0,372.8 302.21,675.05 675,675.05 372.79,0 675,-302.25 675,-675.05" /><path
         id="path130"
         style="fill:#ffffff;fill-opacity:1;fill-rule:nonzero;stroke:none"
         d="m 6039.28,1660.6 c -10.25,-3.4 -13.66,-6.9 -13.66,-17.1 v -433.8 c 0,-6.8 6.82,-13.6 13.66,-17 h 379.11 c 75.14,0 136.61,61.4 136.61,136.6 0,75.1 -61.47,136.6 -136.61,136.6 -17.08,0 -37.58,-3.4 -51.23,-10.3 -10.26,123 -112.72,218.6 -239.08,218.6 -6.83,0 -10.25,0 -17.08,0 -23.91,0 -47.82,-6.8 -71.72,-13.6 m -54.65,-30.8 -6.83,-307.3 6.83,-112.8 c 0,-6.8 6.83,-13.6 13.66,-13.6 6.83,0 13.66,6.8 13.66,13.6 l 6.84,112.8 -6.84,307.3 c 0,6.9 -6.83,13.7 -13.66,13.7 h -3.41 c -6.83,0 -10.25,-6.8 -10.25,-13.7 m -47.81,-23.9 -6.84,-283.4 6.84,-112.8 c 0,-6.8 6.83,-13.6 13.66,-13.6 6.83,0 13.66,6.8 13.66,13.6 l 6.83,112.8 -6.83,283.4 c 0,6.9 -6.83,13.7 -13.66,13.7 -6.83,0 -13.66,-6.8 -13.66,-13.7 m -136.62,-30.7 -6.83,-252.7 6.83,-116.2 c 0,-6.8 3.41,-10.2 10.24,-10.2 6.83,0 10.25,3.4 10.25,10.2 l 6.83,116.2 -6.83,252.7 c 0,6.8 -6.83,10.2 -10.25,10.2 -3.41,0 -10.24,-3.4 -10.24,-10.2 m 44.4,-6.8 -6.83,-245.9 6.83,-116.2 c 0,-6.8 6.83,-13.6 13.66,-13.6 6.83,0 13.66,6.8 13.66,13.6 l 6.83,116.2 -6.83,245.9 c 0,6.8 -6.83,13.6 -13.66,13.6 -6.83,0 -13.66,-6.8 -13.66,-13.6 m -88.8,0 -6.83,-245.9 6.83,-116.2 c 0,-6.8 3.41,-10.2 10.24,-10.2 6.84,0 10.25,3.4 10.25,10.2 l 6.83,116.2 -6.83,245.9 c 0,6.8 -3.41,10.2 -10.25,10.2 -6.83,0 -10.24,-6.8 -10.24,-10.2 m 136.62,-10.3 -6.83,-235.6 6.83,-112.8 c 0,-6.8 6.83,-13.6 13.66,-13.6 6.83,0 13.66,6.8 13.66,13.6 l 6.83,112.8 -6.83,239 c 0,6.9 -6.83,13.7 -13.66,13.7 -10.25,-3.4 -13.66,-6.8 -13.66,-17.1 m -181.02,-10.2 -6.83,-225.4 6.83,-119.6 c 0,-6.8 3.41,-10.2 10.24,-10.2 3.42,0 10.25,3.4 10.25,10.2 l 10.25,119.6 -10.25,225.4 c 0,6.8 -3.41,10.2 -10.25,10.2 -6.83,0 -10.24,-3.4 -10.24,-10.2 m -44.4,-41 -10.25,-184.4 10.25,-119.6 c 0,-3.4 3.41,-6.8 6.83,-6.8 6.83,0 10.25,3.4 10.25,6.8 l 10.24,119.6 -10.24,184.4 c 0,3.4 -3.42,6.8 -6.83,6.8 -6.84,0 -10.25,-3.4 -10.25,-6.8 m -88.8,-61.5 -10.25,-122.9 10.25,-116.2 c 0,-3.4 3.42,-6.8 6.83,-6.8 3.42,0 6.83,3.4 6.83,6.8 l 10.25,116.2 -10.25,122.9 c 0,3.4 -3.41,6.8 -6.83,6.8 -3.41,0 -3.41,-3.4 -6.83,-6.8 m -40.98,-3.4 -10.25,-119.5 10.25,-112.8 c 0,-3.4 3.41,-6.8 6.83,-6.8 0,0 3.41,3.4 3.41,6.8 l 10.25,112.8 -10.25,119.5 c 0,3.4 -3.41,6.8 -6.83,6.8 0,-3.4 -3.41,-3.4 -3.41,-6.8 m 85.38,-6.8 -6.83,-112.7 6.83,-119.6 c 0,-3.4 3.42,-6.8 6.83,-6.8 3.42,0 6.83,3.4 6.83,6.8 l 13.66,119.6 -10.24,112.7 c 0,3.4 -3.42,6.8 -6.83,6.8 -6.83,0 -10.25,-3.4 -10.25,-6.8 m -129.79,-13.7 -10.24,-99 10.24,-99.1 c 0,-3.4 3.42,-3.4 3.42,-3.4 3.41,0 3.41,3.4 3.41,3.4 l 13.67,99.1 -13.67,99 c 0,3.4 -3.41,3.4 -3.41,3.4 v 0 l -3.42,-3.4 m -40.98,-37.6 -6.83,-61.4 6.83,-61.5 c 0,-3.4 3.41,-3.4 3.41,-3.4 3.42,0 3.42,3.4 3.42,3.4 l 10.25,61.5 -10.25,61.4 c 0,3.4 -3.42,3.4 -3.42,3.4 0,0 -3.41,0 -3.41,-3.4" /><path
         id="path132"
         style="fill:#010201;fill-opacity:1;fill-rule:evenodd;stroke:none"
         d="m 11158.3,1383.4 c 0,-372.7 -302.2,-675.002 -675,-675.002 -372.8,0 -675,302.302 -675,675.002 0,372.8 302.2,675.05 675,675.05 372.8,0 675,-302.25 675,-675.05" /><path
         id="path134"
         style="fill:#ffffff;fill-opacity:1;fill-rule:nonzero;stroke:none"
         d="m 10489.7,1038.8 c -28.6,-0.2 -57.1,1.1 -85.4,5.2 -4.3,0.6 -7.7,-0.3 -11.3,-2.8 -56.2,-39.4 -112.3,-78.899 -170.3,-115.7 -7.1,-4.398 -14.4,-8.398 -21.7,-12.5 -2.6,-1.5 -5.3,-2.5 -8.3,-2.898 -9.3,-1.2 -14.7,4.199 -12.7,13.5 3.4,16.097 8.2,31.898 12.8,47.8 11.4,40.098 22.8,80.298 34.4,120.298 1,3.6 0.7,5.2 -3,7.1 -54.7,27.7 -102.9,63.8 -142.3,111.1 -39,46.8 -65.2,99.6 -74.6,160.1 -10.69,69 1.5,134.3 34.8,195.6 32.7,60.1 79.7,106.6 136.5,143.5 60.7,39.5 127.3,64 198.3,76.8 52.9,9.5 106.2,11.9 159.7,7 100.7,-9.1 193.6,-40.2 275.5,-100.6 54.4,-40.1 98.1,-89.5 124.8,-152.2 42.5,-100.3 33.6,-197.3 -23,-289.8 -36.4,-59.4 -87.3,-103.8 -147.1,-138.5 -57.2,-33.1 -118.6,-54 -183.7,-64.8 -30.9,-5.2 -62.1,-7.9 -93.4,-8.2" /><path
         id="path136"
         style="fill:#010201;fill-opacity:1;fill-rule:nonzero;stroke:none"
         d="m 10712.5,1443.1 c 1,1.5 1.9,3.1 3.2,4.4 23.6,23.7 47.2,47.3 70.9,71 8.9,8.9 19.8,10.2 30.4,3.8 10.7,-6.4 16,-18.9 12.8,-29.9 -1.3,-4.2 -3.9,-7.5 -6.9,-10.5 -19.4,-19.4 -38.7,-38.8 -58.2,-58 -2.7,-2.7 -2.6,-4.3 -0.4,-7.1 21.6,-28.5 43.1,-57 64.6,-85.6 9.4,-12.5 8.1,-28.4 -2.9,-38.1 -12.3,-11 -30.5,-9.2 -40.7,4.2 -19.3,25.3 -38.4,50.7 -57.6,76.1 -0.5,0.7 -0.9,1.4 -1.4,2 -2.3,2.1 -2.9,6.4 -6.4,6.6 -2.7,0.2 -9.1,-9.6 -9.1,-12.8 0,-19.1 0.2,-38.1 -0.1,-57.1 -0.1,-13.3 -9.5,-23.8 -22.8,-26.4 -12,-2.3 -24.6,4.4 -29.8,15.9 -1.8,3.7 -2.6,7.7 -2.6,11.9 0.1,62.8 0,125.6 0.1,188.4 0,15.8 12.2,28.1 27.5,28.1 15.3,0.1 27.5,-12.1 27.7,-27.9 0.2,-18 0,-36.1 0,-54.1 0,-1.3 0,-2.5 0,-3.8 0.6,-0.4 1.1,-0.7 1.7,-1.1" /><path
         id="path138"
         style="fill:#010201;fill-opacity:1;fill-rule:nonzero;stroke:none"
         d="m 10190.3,1391.8 c 0,26.2 -0.1,52.5 0.1,78.7 0,4.1 -0.7,5.7 -5.3,5.5 -12.3,-0.3 -24.6,-0.2 -36.9,-0.1 -16.1,0.1 -28,11.4 -28.1,26.6 -0.1,15.5 11.7,27.5 27.9,27.5 46.7,0.2 93.4,0.2 140.1,0 14.8,0 26.4,-10.3 27.8,-24 1.5,-13.5 -6.9,-25.7 -20.2,-29.3 -2.7,-0.8 -5.5,-0.8 -8.2,-0.8 -12.4,0 -24.6,-0.2 -36.9,0.1 -4.1,0.1 -4.9,-1.3 -4.9,-5 0.1,-52.3 0.1,-104.6 0.1,-156.9 0,-13.9 -6.9,-24 -19,-27.8 -18.4,-5.8 -36.3,7 -36.4,26.3 -0.2,26.4 -0.1,52.8 -0.1,79.2" /><path
         id="path140"
         style="fill:#010201;fill-opacity:1;fill-rule:nonzero;stroke:none"
         d="m 10503,1408.7 c 0,31.2 -0.1,62.3 0,93.5 0.1,14.6 10.5,25.8 25.4,27.7 13.3,1.7 26.5,-7.5 30.1,-20.8 1,-3.4 0.9,-6.8 0.9,-10.3 0,-51.3 0,-102.6 -0.1,-153.9 -0.1,-4.4 1.1,-5.5 5.4,-5.4 18,0.2 36.1,0.2 54.1,0 14.1,-0.1 25.4,-10.7 25.9,-23.8 0.6,-13.8 -10.2,-26.3 -24.2,-26.5 -31.1,-0.3 -62.3,-0.3 -93.4,0 -13.5,0.2 -24.1,11.9 -24.1,25.6 -0.1,31.3 0,62.6 0,93.9" /><path
         id="path142"
         style="fill:#010201;fill-opacity:1;fill-rule:nonzero;stroke:none"
         d="m 10374.6,1382.5 c -5.4,0 -10.8,0.2 -16.3,-0.1 -3.5,-0.2 -4,0.7 -2.8,4 7.1,19.9 14.1,39.8 21.1,59.7 1.6,4.4 3.2,8.9 5.2,14.8 9.5,-26.8 18.5,-52.3 27.7,-78.4 -12,0 -23.5,0 -34.9,0 z m 109.4,-51.6 c -11.5,30.5 -23.2,60.9 -34.7,91.3 -10.3,27.1 -20.5,54.2 -30.9,81.2 -7,18.1 -25.3,29.3 -42.7,25.8 -15.3,-3.1 -25.5,-12.8 -31,-27.3 -18.8,-49.3 -37.6,-98.7 -56.3,-148.1 -4.4,-11.8 -9.8,-23.3 -12.4,-35.7 -4.1,-19.8 2.6,-29.7 22,-32.5 14.9,-2.3 24.6,3.3 29.9,17.2 3.5,9 7.1,18 10.3,27.1 1,2.8 2.4,3.6 5.3,3.6 12.8,-0.2 25.6,-0.1 38.4,-0.1 12.6,0 25.3,-0.1 37.9,0.1 3.4,0.1 4.8,-1.1 5.8,-4.2 3.3,-9.2 7.5,-18.2 10.4,-27.5 3.6,-11.6 11.9,-15.8 22.9,-16.5 6,-0.3 11.7,0.9 17.3,2.9 7.7,2.8 11.4,8.4 12.2,16.3 0.8,9.2 -1.2,18 -4.4,26.4" /><path
         id="path144"
         style="fill:#010201;fill-opacity:1;fill-rule:evenodd;stroke:none"
         d="m 11158.3,5314.49 c 0,-372.79 -302.2,-675 -675,-675 -372.8,0 -675,302.21 -675,675 0,372.8 302.2,675 675,675 372.8,0 675,-302.2 675,-675" /><path
         id="path146"
         style="fill:#ffffff;fill-opacity:1;fill-rule:nonzero;stroke:none"
         d="m 10941.1,5379.49 c 0,205.84 -206.3,373.3 -460,373.3 -253.6,0 -460,-167.46 -460,-373.3 0,-184.53 163.7,-339.07 384.7,-368.29 15,-3.23 35.4,-9.87 40.5,-22.68 4.7,-11.63 3.1,-29.85 1.5,-41.6 0,0 -5.4,-32.45 -6.5,-39.37 -2,-11.62 -9.3,-45.49 39.8,-24.8 49.1,20.69 264.9,155.99 361.4,267.07 v 0 c 66.7,73.11 98.6,147.3 98.6,229.67" /><path
         id="path148"
         style="fill:#010201;fill-opacity:1;fill-rule:nonzero;stroke:none"
         d="m 10387.6,5478.96 h -32.2 c -5,0 -9,-4.01 -9,-8.94 v -200.44 c 0,-4.93 4,-8.94 9,-8.94 h 32.2 c 5,0 9,4.01 9,8.94 v 200.44 c 0,4.93 -4,8.94 -9,8.94" /><path
         id="path150"
         style="fill:#010201;fill-opacity:1;fill-rule:nonzero;stroke:none"
         d="m 10609.7,5478.96 h -32.2 c -5,0 -9,-4.01 -9,-8.94 v -119.08 l -91.8,124.04 c -0.3,0.32 -0.5,0.63 -0.7,0.91 -0.1,0.03 -0.1,0.05 -0.1,0.06 -0.2,0.19 -0.4,0.38 -0.5,0.55 -0.1,0.05 -0.1,0.1 -0.2,0.15 -0.2,0.15 -0.3,0.28 -0.5,0.4 -0.1,0.07 -0.1,0.13 -0.2,0.19 -0.2,0.1 -0.3,0.21 -0.5,0.32 -0.1,0.06 -0.2,0.11 -0.2,0.15 -0.2,0.1 -0.4,0.19 -0.5,0.27 -0.1,0.05 -0.2,0.1 -0.3,0.14 -0.2,0.07 -0.3,0.15 -0.5,0.22 -0.1,0.04 -0.2,0.07 -0.3,0.1 -0.2,0.07 -0.4,0.12 -0.5,0.17 -0.1,0.03 -0.3,0.05 -0.4,0.08 -0.1,0.05 -0.3,0.09 -0.5,0.12 -0.1,0.02 -0.2,0.04 -0.4,0.05 -0.1,0.03 -0.3,0.05 -0.4,0.06 -0.2,0.02 -0.3,0.03 -0.5,0.03 -0.1,0 -0.2,0.01 -0.3,0.01 h -32.3 c -4.9,0 -8.9,-4.01 -8.9,-8.94 v -200.44 c 0,-4.93 4,-8.94 8.9,-8.94 h 32.3 c 5,0 9,4.01 9,8.94 v 119.04 l 91.9,-124.2 c 0.7,-0.89 1.4,-1.63 2.3,-2.2 0,-0.03 0.1,-0.05 0.1,-0.08 0.2,-0.12 0.4,-0.24 0.5,-0.33 0.1,-0.05 0.2,-0.1 0.3,-0.14 0.1,-0.08 0.3,-0.15 0.4,-0.21 0.2,-0.06 0.3,-0.12 0.5,-0.18 0.1,-0.04 0.1,-0.08 0.2,-0.11 0.2,-0.07 0.4,-0.13 0.6,-0.19 0.1,0 0.1,-0.02 0.2,-0.03 0.7,-0.2 1.5,-0.31 2.3,-0.31 h 32.2 c 5,0 9,4.01 9,8.94 v 200.44 c 0,4.93 -4,8.94 -9,8.94" /><path
         id="path152"
         style="fill:#010201;fill-opacity:1;fill-rule:nonzero;stroke:none"
         d="m 10309.9,5310.83 h -87.7 v 159.18 c 0,4.95 -4,8.95 -9,8.95 h -32.2 c -5,0 -9,-4 -9,-8.95 v -200.41 -0.01 c 0,-2.4 1,-4.58 2.5,-6.19 0.1,-0.04 0.1,-0.09 0.1,-0.14 0.1,-0.04 0.1,-0.08 0.2,-0.13 1.6,-1.54 3.8,-2.49 6.2,-2.49 v 0 h 128.9 c 4.9,0 8.9,4.02 8.9,8.96 v 32.27 c 0,4.95 -4,8.96 -8.9,8.96" /><path
         id="path154"
         style="fill:#010201;fill-opacity:1;fill-rule:nonzero;stroke:none"
         d="m 10787.9,5428.78 c 5,0 9,4 9,8.95 V 5470 c 0,4.95 -4,8.96 -9,8.96 H 10659 v 0 c -2.4,0 -4.6,-0.96 -6.2,-2.52 0,-0.03 -0.1,-0.06 -0.1,-0.09 -0.1,-0.06 -0.1,-0.12 -0.2,-0.17 -1.5,-1.6 -2.4,-3.77 -2.4,-6.17 v -0.01 -200.4 -0.01 c 0,-2.41 0.9,-4.59 2.5,-6.19 0,-0.04 0,-0.1 0.1,-0.14 0,-0.04 0.1,-0.08 0.1,-0.12 1.6,-1.54 3.8,-2.51 6.2,-2.51 v 0 h 128.9 c 5,0 9,4.03 9,8.97 v 32.27 c 0,4.95 -4,8.96 -9,8.96 h -87.6 v 33.88 h 87.6 c 5,0 9,4.01 9,8.96 v 32.27 c 0,4.95 -4,8.96 -9,8.96 h -87.6 v 33.88 h 87.6" /><path
         id="path156"
         style="fill:#010201;fill-opacity:1;fill-rule:nonzero;stroke:none"
         d="m 2191.7,9245.54 c 0,372.8 -302.21,675 -675,675 -372.79,0 -675.001,-302.2 -675.001,-675 0,-336.91 246.841,-616.16 569.531,-666.79 v 471.68 h -171.39 v 195.11 h 171.39 v 148.71 c 0,169.17 100.78,262.62 254.96,262.62 73.85,0 151.1,-13.18 151.1,-13.18 v -166.12 h -85.12 c -83.85,0 -110,-52.03 -110,-105.41 v -126.62 h 187.21 l -29.93,-195.11 h -157.28 v -471.68 c 322.69,50.63 569.53,329.88 569.53,666.79" /><path
         id="path158"
         style="fill:#ffffff;fill-opacity:1;fill-rule:nonzero;stroke:none"
         d="m 1779.45,9050.43 29.93,195.11 h -187.21 v 126.62 c 0,53.38 26.15,105.41 110,105.41 h 85.12 v 166.12 c 0,0 -77.25,13.18 -151.1,13.18 -154.18,0 -254.96,-93.45 -254.96,-262.62 v -148.71 h -171.39 v -195.11 h 171.39 v -471.68 c 34.37,-5.4 69.59,-8.21 105.47,-8.21 35.88,0 71.1,2.81 105.47,8.21 v 471.68 h 157.28" /><path
         id="path160"
         style="fill:#010201;fill-opacity:1;fill-rule:nonzero;stroke:none"
         d="m 1918.03,5391.09 c -217.58,129.22 -576.48,141.1 -784.19,78.06 -33.35,-10.12 -68.63,8.71 -78.73,42.06 -10.11,33.38 8.7,68.62 42.08,78.76 238.44,72.38 634.8,58.4 885.29,-90.29 30,-17.81 39.84,-56.56 22.06,-86.51 -17.81,-30 -56.58,-39.89 -86.51,-22.08 z m -7.12,-191.38 c -15.27,-24.77 -47.65,-32.53 -72.39,-17.33 -181.4,111.51 -458.01,143.8 -672.61,78.66 -27.83,-8.41 -57.23,7.28 -65.68,35.06 -8.39,27.83 7.31,57.17 35.09,65.64 245.16,74.38 549.92,38.36 758.27,-89.68 24.74,-15.23 32.52,-47.64 17.32,-72.35 z m -82.6,-183.8 c -12.13,-19.89 -38.03,-26.12 -57.85,-14.01 -158.51,96.89 -358.01,118.76 -592.97,65.09 -22.65,-5.18 -45.21,9.01 -50.38,31.64 -5.18,22.64 8.95,45.21 31.64,50.37 257.13,58.78 477.69,33.49 655.61,-75.23 19.83,-12.12 26.07,-38.03 13.95,-57.86 z m -309.56,973.58 c -372.79,0 -675,-302.2 -675,-674.99 0,-372.81 302.21,-675.01 675,-675.01 372.8,0 675,302.2 675,675.01 0,372.79 -302.2,674.99 -675,674.99" /><path
         id="path162"
         style="fill:#ffffff;fill-opacity:1;fill-rule:nonzero;stroke:none"
         d="m 1828.31,5015.91 c -12.13,-19.89 -38.03,-26.12 -57.85,-14.01 -158.51,96.89 -358.01,118.76 -592.97,65.09 -22.65,-5.18 -45.21,9.01 -50.38,31.64 -5.18,22.64 8.95,45.21 31.64,50.37 257.13,58.78 477.69,33.49 655.61,-75.23 19.83,-12.12 26.07,-38.03 13.95,-57.86" /><path
         id="path164"
         style="fill:#ffffff;fill-opacity:1;fill-rule:nonzero;stroke:none"
         d="m 1910.91,5199.71 c -15.27,-24.77 -47.65,-32.53 -72.39,-17.33 -181.4,111.51 -458.01,143.8 -672.61,78.66 -27.83,-8.41 -57.23,7.28 -65.68,35.06 -8.39,27.83 7.31,57.17 35.09,65.64 245.16,74.38 549.92,38.36 758.27,-89.68 24.74,-15.23 32.52,-47.64 17.32,-72.35" /><path
         id="path166"
         style="fill:#ffffff;fill-opacity:1;fill-rule:nonzero;stroke:none"
         d="m 1918.03,5391.09 c -217.58,129.22 -576.48,141.1 -784.19,78.06 -33.35,-10.12 -68.63,8.71 -78.73,42.06 -10.11,33.38 8.7,68.62 42.08,78.76 238.44,72.38 634.8,58.4 885.29,-90.29 30,-17.81 39.84,-56.56 22.06,-86.51 -17.81,-30 -56.58,-39.89 -86.51,-22.08" /><path
         id="path168"
         style="fill:#010201;fill-opacity:1;fill-rule:nonzero;stroke:none"
         d="m 4433.35,7275.36 c 0,-372.79 -302.21,-675 -675,-675 -372.79,0 -675,302.21 -675,675 0,372.79 302.21,675 675,675 372.79,0 675,-302.21 675,-675" /><path
         id="path170"
         style="fill:#ffffff;fill-opacity:1;fill-rule:nonzero;stroke:none"
         d="m 4136.58,7498.43 c 0.01,3.92 -0.11,4.07 -4.21,4.03 -9.89,-0.09 -19.67,1.09 -29.39,2.56 -35.32,5.33 -149.87,65.42 -169.25,163.72 -0.39,1.92 -4.71,26.31 -4.66,36.7 0.03,4.65 -0.06,4.66 -4.64,4.73 -1.06,0.02 -2.12,0 -3.18,0 -44.82,0 -89.65,0.03 -134.48,-0.01 -9.03,-0.01 -7.76,1.12 -7.76,-7.94 -0.03,-194.4 -0.03,-388.81 0.01,-583.22 0,-7.25 -0.21,-14.49 -1.48,-21.6 -6.76,-37.61 -26.03,-67.06 -58.64,-87.17 -28.25,-17.42 -58.92,-22.39 -91.48,-15.95 -10.26,2.03 -19.89,5.9 -29.53,9.72 -0.79,0.72 -1.57,1.43 -2.35,2.14 -3.24,2.72 -6.81,4.96 -10.29,7.37 -41.5,28.74 -61.18,68.63 -55.19,118.52 6.08,50.61 35.2,84.97 83.17,102.67 14.31,5.28 29.39,7.46 44.69,6.64 9.85,-0.52 19.66,-1.77 29.21,-4.49 3.3,-0.94 5.09,0.23 5.26,3.73 0.06,1.24 0.09,2.47 0.09,3.7 0.01,34.9 -1.3,111.13 -1.48,111.3 0.07,10.05 0.07,20.1 0.25,30.14 0.06,2.9 -1.38,3.4 -3.82,3.69 -18.08,2.15 -36.16,2.55 -54.35,1.22 -25.13,-1.84 -49.48,-6.99 -73.15,-15.51 -37.76,-13.58 -70.9,-34.57 -99.51,-62.6 -24.57,-24.07 -43.88,-51.9 -58.04,-83.27 -13.56,-30.02 -21.32,-61.54 -23.46,-94.34 -0.94,-14.23 -0.76,-28.51 0.56,-42.79 1.82,-19.73 5.56,-39.03 11.56,-57.88 17.25,-54.17 48.59,-98.61 93.07,-133.86 4.52,-3.59 8.86,-7.52 14.28,-9.85 v 0 c 2.27,-2.01 4.54,-4.03 6.81,-6.04 7.2,-5.43 14.91,-10.07 22.97,-14.05 49.82,-24.61 102.3,-34.61 157.62,-27.86 71.77,8.77 131.57,40.57 178.64,95.37 44.31,51.58 65.84,112.13 66.23,179.81 0.56,96.82 0.13,193.64 0.19,290.46 0,2.31 -1.33,5.59 1.22,6.75 1.99,0.91 3.99,-1.73 5.86,-2.96 36.04,-23.67 74.89,-40.78 116.97,-50.41 24.49,-5.6 49.23,-9 74.42,-8.96 7.95,0.01 9,0.41 9.01,8.28 0.05,34.39 -1.76,128.38 -1.75,137.51" /><path
         id="path172"
         style="fill:#010201;fill-opacity:1;fill-rule:evenodd;stroke:none"
         d="m 4433.35,3353.63 c 0,-372.79 -302.21,-675 -675,-675 -372.79,0 -675,302.21 -675,675 0,372.8 302.21,675 675,675 372.79,0 675,-302.2 675,-675" /><path
         id="path174"
         style="fill:#ffffff;fill-opacity:1;fill-rule:nonzero;stroke:none"
         d="m 4091.68,3336.96 -133.33,-133.33 h -133.34 l -116.66,-116.67 v 116.67 h -150 v 500 h 533.33 z m -566.67,433.33 -166.66,-166.66 v -600 h 200 v -166.67 l 166.66,166.67 h 133.34 l 300,300 v 466.66 h -633.34" /><path
         id="path176"
         style="fill:#ffffff;fill-opacity:1;fill-rule:nonzero;stroke:none"
         d="m 3925.01,3586.96 h 66.67 v -200 h -66.67 v 200" /><path
         id="path178"
         style="fill:#ffffff;fill-opacity:1;fill-rule:nonzero;stroke:none"
         d="m 3741.68,3586.96 h 66.67 v -200 h -66.67 v 200" /><path
         id="path180"
         style="fill:#010201;fill-opacity:1;fill-rule:evenodd;stroke:none"
         d="m 6675,3353.63 c 0,-372.79 -302.21,-675 -675,-675 -372.79,0 -675,302.21 -675,675 0,372.8 302.21,675 675,675 372.79,0 675,-302.2 675,-675" /><g
         id="g182"><g
           clip-path="url(#clipPath188)"
           id="g184"><path
             id="path196"
             style="fill:url(#linearGradient194);fill-opacity:1;fill-rule:nonzero;stroke:none"
             d="m 6454.3,3181 v 0 c 0,-0.01 0,-0.02 0,-0.03 v 0.03" /></g></g><path
         id="path198"
         style="fill:#ffffff;fill-opacity:1;fill-rule:evenodd;stroke:none"
         d="m 6142.3,3171.97 c -15.6,-21.19 -37.19,-37.21 -61.99,-46.01 -29.88,-10.69 -61.45,-15.82 -93.18,-15.19 -43.61,-1.52 -86.99,6.68 -127.02,24.03 -10.23,4.56 -19.21,11.54 -26.15,20.33 -5.76,8.06 -8.74,17.77 -8.51,27.67 -0.58,10.58 3.51,20.87 11.18,28.17 7.94,6.96 18.25,10.59 28.8,10.16 11.76,-0.15 23.31,-3.12 33.68,-8.66 12.9,-6.44 23.07,-11.29 30.52,-14.51 8.51,-3.57 17.32,-6.35 26.33,-8.33 11.11,-2.43 22.46,-3.6 33.83,-3.49 20.11,-1.43 40.12,3.9 56.85,15.16 12.71,9.94 19.83,25.39 19.16,41.51 0.02,11.26 -4.27,22.11 -11.99,30.31 -10.22,10.53 -22.17,19.23 -35.33,25.71 -15.57,8.21 -37.47,18.21 -65.7,30.01 -25.25,10.06 -49.42,22.62 -72.16,37.5 -17.16,11.3 -31.48,26.4 -41.85,44.14 -10.01,18.75 -14.94,39.77 -14.33,61.01 -0.75,26.96 8.45,53.25 25.84,73.84 18.08,20.7 41.32,36.22 67.35,45.01 28.31,10 58.15,15.02 88.17,14.85 19.65,0.18 39.27,-1.32 58.65,-4.51 13.88,-2.14 27.51,-5.65 40.7,-10.49 12.1,-4.11 23.02,-11.08 31.83,-20.34 6.5,-7.6 9.98,-17.33 9.83,-27.33 0.47,-10.5 -3.26,-20.75 -10.35,-28.51 -6.72,-7.14 -16.18,-11.09 -25.99,-10.83 -6.67,0.05 -13.26,1.54 -19.32,4.35 -14.92,6.68 -30.3,12.3 -46.01,16.84 -14.47,3.81 -29.37,5.66 -44.33,5.5 -19.49,0.73 -38.78,-4.21 -55.53,-14.2 -14.4,-8.75 -22.9,-24.64 -22.17,-41.48 -0.1,-10.85 4.03,-21.32 11.51,-29.18 8.9,-9.23 19.41,-16.75 31.01,-22.19 13.01,-6.45 32.39,-15 58.17,-25.65 2.86,-0.91 5.64,-2.02 8.33,-3.34 25.16,-9.95 49.28,-22.35 72,-37.01 17.96,-11.71 33.1,-27.25 44.34,-45.5 11.05,-19.18 16.6,-41.05 16,-63.19 0.93,-27.09 -6.83,-53.78 -22.17,-76.16 z m 311.94,8.9 c 0.02,0.04 0.04,0.08 0.06,0.13 -0.08,1.12 -0.23,2.23 -0.33,3.36 -0.2,2.43 -0.41,4.86 -0.68,7.27 -0.32,2.99 -0.71,5.95 -1.13,8.9 -0.15,1 -0.28,2 -0.44,3.01 -4.98,32.48 -15.67,62.9 -31.02,90.25 2.6,18.92 4.06,38.21 4.06,57.85 0,233.78 -190.15,423.3 -424.72,423.3 -15.3,0 -30.41,-0.85 -45.29,-2.42 -0.61,0.37 -1.21,0.78 -1.82,1.15 v 0 c -1.18,0.72 -2.38,1.4 -3.57,2.1 -0.89,0.52 -1.79,1.03 -2.69,1.54 -3.25,1.87 -6.54,3.67 -9.88,5.4 -1.03,0.54 -2.06,1.07 -3.1,1.6 -0.4,0.19 -0.78,0.45 -1.18,0.64 -0.03,0 -0.05,-0.01 -0.08,-0.01 -2.91,1.45 -5.86,2.81 -8.83,4.16 -1.09,0.49 -2.16,0.99 -3.25,1.47 -2.09,0.9 -4.19,1.77 -6.31,2.63 -0.09,0.04 -0.17,0.07 -0.26,0.11 -1.42,0.57 -2.84,1.12 -4.27,1.67 -0.69,0.27 -1.35,0.58 -2.04,0.84 -0.02,-0.01 -0.03,-0.01 -0.05,-0.01 -11.92,4.46 -24.26,8.09 -36.92,10.84 -0.37,0.08 -0.73,0.18 -1.11,0.25 -6.89,1.47 -13.88,2.63 -20.95,3.56 -0.65,0.09 -1.27,0.24 -1.92,0.33 -0.06,-0.02 -0.11,-0.05 -0.17,-0.07 -10.89,1.35 -21.95,2.12 -33.2,2.12 -148.1,0 -268.15,-119.66 -268.15,-267.26 0,-7.67 0.4,-15.23 1.03,-22.74 -0.01,-0.04 -0.03,-0.09 -0.05,-0.13 0.05,-0.69 0.16,-1.36 0.22,-2.06 0.2,-2.11 0.44,-4.2 0.68,-6.3 0.33,-2.89 0.68,-5.77 1.1,-8.62 0.12,-0.75 0.24,-1.49 0.36,-2.23 5.06,-32.72 15.92,-63.28 31.47,-90.73 -2.9,-19.96 -4.47,-40.36 -4.47,-61.13 0,-233.78 190.15,-423.3 424.7,-423.3 17.13,0 33.98,1.13 50.59,3.1 0.16,-0.1 0.33,-0.19 0.49,-0.29 0.66,-0.39 1.32,-0.76 1.99,-1.14 0.57,-0.33 1.14,-0.66 1.72,-0.99 0.72,-0.41 1.42,-0.83 2.14,-1.23 5.25,-2.89 10.59,-5.6 16.04,-8.15 0.21,-0.1 0.42,-0.23 0.63,-0.33 0.02,0.01 0.05,0.01 0.07,0.02 3.4,-1.59 6.83,-3.11 10.3,-4.55 0.92,-0.39 1.86,-0.73 2.79,-1.1 3.57,-1.43 7.18,-2.8 10.85,-4.08 0.61,-0.23 1.21,-0.49 1.83,-0.69 0.04,0.01 0.08,0.02 0.13,0.03 4.69,-1.62 9.43,-3.09 14.24,-4.44 0.47,-0.13 0.94,-0.27 1.42,-0.4 3.26,-0.9 6.55,-1.73 9.85,-2.5 0.83,-0.19 1.66,-0.39 2.49,-0.57 3.07,-0.7 6.16,-1.33 9.27,-1.92 1.13,-0.21 2.26,-0.41 3.38,-0.6 2.9,-0.51 5.8,-0.99 8.73,-1.4 1.48,-0.21 2.95,-0.37 4.43,-0.56 2.63,-0.32 5.27,-0.65 7.93,-0.9 0.37,-0.03 0.73,-0.09 1.1,-0.12 0.03,0.01 0.06,0.02 0.09,0.03 7.99,-0.72 16.05,-1.14 24.22,-1.14 148.14,0 268.24,119.7 268.24,267.36 0,6.42 -0.31,12.78 -0.76,19.09" /><path
         id="path200"
         style="fill:#010201;fill-opacity:1;fill-rule:nonzero;stroke:none"
         d="m 3758.35,2058.45 c -372.79,0 -675,-302.25 -675,-675.05 0,-372.7 302.21,-675.002 675,-675.002 372.79,0 675,302.302 675,675.002 0,372.8 -302.21,675.05 -675,675.05" /><path
         id="path202"
         style="fill:#ffffff;fill-opacity:1;fill-rule:nonzero;stroke:none"
         d="m 4086.93,1657.6 c -2.58,7.6 -5.66,9.6 -10.47,11.5 -10.52,3.9 -28.34,-2 -28.34,-2 0,0 -630.85,-226.8 -666.89,-251.9 -7.76,-5.4 -10.36,-8.6 -11.65,-12.3 -6.23,-17.8 13.18,-25.7 13.18,-25.7 l 162.6,-53 c 0,0 6.06,-0.9 8.22,0.5 36.99,23.4 372.16,235 391.49,242.1 3.05,0.9 5.31,-0.1 4.71,-2.2 -7.74,-27.2 -298.85,-285.9 -298.85,-285.9 0,0 -1.11,-1.4 -1.81,-3 l -0.38,0.2 -15.17,-161.3 c 0,0 -6.36,-49.4 43.05,0 34.86,34.9 68.59,64.1 85.47,78.2 55.91,-38.6 116.08,-81.3 142.05,-103.6 13.04,-11.2 23.95,-13 32.93,-12.7 24.65,0.9 31.53,28 31.53,28 0,0 114.96,462.7 118.8,524.7 0.38,6.1 0.9,9.9 0.94,14.1 0.07,5.8 -0.47,11.6 -1.41,14.3" /></g></g></svg>