<svg id="Слой_1" data-name="Слой 1" xmlns="http://www.w3.org/2000/svg" viewBox="0 0 180 180"><defs><style>.cls-1{fill:#b3b3b3;}.cls-2{fill-rule:evenodd;}</style></defs><g id="g10"><g id="g12"><path id="path62" class="cls-1" d="M180,90A90,90,0,1,1,90,0a90,90,0,0,1,90,90" transform="translate(-0.03 0.01)"/><path id="path64" class="cls-2" d="M119,100.09c-1.43-.72-8.44-4.17-9.75-4.64s-2.26-.72-3.21.71-3.68,4.64-4.51,5.59-1.67,1.07-3.09.36A38.83,38.83,0,0,1,86.92,95,42.78,42.78,0,0,1,79,85.15c-.83-1.43-.09-2.2.62-2.91s1.43-1.66,2.14-2.5a9.48,9.48,0,0,0,1.43-2.38,2.59,2.59,0,0,0-.12-2.49c-.36-.72-3.21-7.74-4.4-10.59s-2.33-2.41-3.21-2.45-1.78,0-2.73,0a5.28,5.28,0,0,0-3.81,1.78,16,16,0,0,0-5,11.9c0,7,5.11,13.8,5.83,14.75s10.06,15.36,24.37,21.54a82.18,82.18,0,0,0,8.13,3,19.59,19.59,0,0,0,9,.57c2.74-.41,8.44-3.45,9.63-6.79s1.19-6.18.84-6.78S120.39,100.8,119,100.09Zm-26,35.53h0A47.41,47.41,0,0,1,68.76,129L67,128l-18,4.71,4.79-17.51-1.13-1.79a47.46,47.46,0,1,1,40.2,22.23ZM133.32,47.8a57.1,57.1,0,0,0-89.86,68.87l-8.1,29.58,30.26-7.94a57.12,57.12,0,0,0,27.29,6.95h0A57.1,57.1,0,0,0,133.32,47.8" transform="translate(-0.03 0.01)"/></g></g></svg>