<?xml version="1.0" encoding="utf-8"?>
<svg viewBox="0 0 500 500" xmlns="http://www.w3.org/2000/svg">
  <g transform="matrix(1.333333, 0, 0, -1.333333, 1000, 899.999573)" id="g10">
    <g transform="scale(0.1)" id="g12">
      <path id="path62" style="fill-opacity: 1; fill-rule: nonzero; stroke: none; fill: rgb(98, 98, 98);" d="M -5250.001 5174.998 C -5250.001 4802.208 -5552.211 4499.998 -5925.001 4499.998 C -6297.791 4499.998 -6600.001 4802.208 -6600.001 5174.998 C -6600.001 5547.798 -6297.791 5849.998 -5925.001 5849.998 C -5552.211 5849.998 -5250.001 5547.798 -5250.001 5174.998"/>
      <path id="path64" style="fill-opacity: 1; fill-rule: evenodd; stroke: none;" d="M -5707.981 5099.258 C -5718.681 5104.608 -5771.281 5130.488 -5781.091 5134.058 C -5790.901 5137.618 -5798.031 5139.408 -5805.171 5128.698 C -5812.291 5117.998 -5832.801 5093.898 -5839.041 5086.758 C -5845.281 5079.628 -5851.521 5078.728 -5862.221 5084.088 C -5872.921 5089.438 -5907.391 5100.728 -5948.261 5137.178 C -5980.071 5165.528 -6001.541 5200.558 -6007.781 5211.268 C -6014.021 5221.978 -6008.451 5227.768 -6003.091 5233.098 C -5998.281 5237.888 -5992.391 5245.588 -5987.041 5251.838 C -5981.691 5258.078 -5979.911 5262.548 -5976.351 5269.678 C -5972.771 5276.818 -5974.561 5283.068 -5977.241 5288.418 C -5979.911 5293.778 -6001.311 5346.418 -6010.221 5367.838 C -6018.911 5388.688 -6027.721 5385.868 -6034.301 5386.198 C -6040.531 5386.508 -6047.671 5386.568 -6054.801 5386.568 C -6061.931 5386.568 -6073.521 5383.898 -6083.331 5373.188 C -6093.141 5362.478 -6120.781 5336.608 -6120.781 5283.958 C -6120.781 5231.318 -6082.441 5180.458 -6077.091 5173.318 C -6071.741 5166.178 -6001.651 5058.138 -5894.321 5011.808 C -5868.791 5000.788 -5848.861 4994.208 -5833.321 4989.278 C -5807.691 4981.138 -5784.361 4982.288 -5765.931 4985.038 C -5745.381 4988.108 -5702.631 5010.918 -5693.711 5035.908 C -5684.791 5060.888 -5684.791 5082.298 -5687.471 5086.758 C -5690.151 5091.218 -5697.281 5093.898 -5707.981 5099.258 Z M -5903.201 4832.788 L -5903.351 4832.788 C -5967.211 4832.808 -6029.841 4849.958 -6084.491 4882.378 L -6097.491 4890.098 L -6232.191 4854.768 L -6196.231 4986.058 L -6204.701 4999.518 C -6240.321 5056.168 -6259.141 5121.638 -6259.111 5188.868 C -6259.031 5385.038 -6099.371 5544.638 -5903.061 5544.638 C -5808.001 5544.598 -5718.631 5507.538 -5651.441 5440.298 C -5584.251 5373.038 -5547.271 5283.648 -5547.291 5188.578 C -5547.381 4992.388 -5707.041 4832.788 -5903.201 4832.788 Z M -5600.301 5491.388 C -5681.141 5572.308 -5788.661 5616.888 -5903.201 5616.938 C -6139.231 5616.938 -6331.321 5424.918 -6331.411 5188.888 C -6331.441 5113.448 -6311.721 5039.808 -6274.251 4974.888 L -6335.001 4753.068 L -6108.011 4812.598 C -6045.461 4778.488 -5975.041 4760.518 -5903.381 4760.488 L -5903.201 4760.488 C -5903.181 4760.488 -5903.211 4760.488 -5903.201 4760.488 C -5667.211 4760.488 -5475.101 4952.528 -5475.001 5188.548 C -5474.961 5302.928 -5519.451 5410.488 -5600.301 5491.388"/>
    </g>
  </g>
</svg>