<?xml version="1.0" standalone="no"?>
<!DOCTYPE svg PUBLIC "-//W3C//DTD SVG 20010904//EN"
 "http://www.w3.org/TR/2001/REC-SVG-20010904/DTD/svg10.dtd">
<svg version="1.0" xmlns="http://www.w3.org/2000/svg"
 width="1120.000000pt" height="1280.000000pt" viewBox="0 0 1120.000000 1280.000000"
 preserveAspectRatio="xMidYMid meet">
<metadata>
Created by potrace 1.15, written by Peter Selinger 2001-2017
</metadata>
<g transform="translate(0.000000,1280.000000) scale(0.100000,-0.100000)"
fill="#000000" stroke="none">
<path d="M2895 11975 c-257 -47 -500 -183 -797 -446 -35 -31 -146 -114 -248
-184 -276 -191 -374 -268 -486 -379 -106 -106 -185 -211 -236 -311 -153 -300
-255 -851 -246 -1322 2 -106 1 -193 -2 -193 -3 1 -16 7 -30 15 -14 8 -32 14
-40 14 -8 0 6 -11 32 -24 44 -23 47 -28 53 -72 14 -123 49 -284 81 -376 35
-99 120 -273 153 -311 69 -79 268 -86 551 -19 79 19 287 80 302 89 5 3 30 -13
54 -37 35 -35 44 -50 44 -79 1 -106 64 -261 159 -387 206 -273 536 -520 1301
-973 217 -128 279 -160 337 -174 l72 -18 26 -67 c48 -127 88 -280 110 -430 13
-84 13 -100 -1 -149 -22 -76 -14 -310 15 -441 129 -582 482 -1139 905 -1430
65 -45 57 -32 -11 20 -162 121 -379 367 -517 584 -279 441 -421 988 -313 1207
l25 50 -59 199 c-32 110 -76 254 -98 319 -21 66 -38 120 -37 120 27 0 329
-144 481 -229 576 -323 1106 -753 1310 -1063 42 -65 59 -78 25 -21 -116 198
-349 433 -662 668 -318 239 -732 490 -1048 636 l-125 57 -55 129 c-64 146
-143 288 -227 406 -78 110 -248 278 -360 356 l-91 64 36 20 c35 19 85 20 147
3 30 -7 150 -53 171 -64 11 -6 47 -16 82 -22 35 -7 78 -23 95 -36 18 -13 47
-31 65 -41 32 -17 35 -17 75 5 23 12 60 22 82 23 53 2 181 -9 225 -19 19 -4
48 -6 64 -4 l28 4 -23 27 c-13 15 11 -9 54 -53 43 -45 129 -153 190 -241 461
-662 1056 -1462 1314 -1765 51 -61 160 -167 258 -254 1092 -958 1706 -1532
1850 -1730 158 -219 285 -442 413 -731 49 -110 115 -255 147 -323 60 -126 85
-160 42 -56 -14 33 -51 138 -82 234 -103 311 -189 486 -365 744 -69 101 -121
159 -309 346 -362 361 -931 888 -1466 1360 -121 106 -246 218 -278 249 -233
223 -990 1207 -1436 1866 -107 159 -172 241 -295 375 l-51 55 52 -50 c49 -46
57 -49 105 -50 29 0 78 5 108 13 30 8 62 16 70 17 78 18 120 31 120 37 0 4 15
15 33 24 17 9 48 32 67 50 19 19 55 54 80 78 65 63 100 103 100 115 0 6 7 11
15 11 8 0 15 5 15 10 0 11 28 54 69 105 l23 29 -28 24 -29 25 35 -21 c87 -52
247 -181 340 -275 214 -214 379 -482 475 -770 32 -96 36 -116 30 -170 -23
-220 165 -678 416 -1009 228 -302 491 -528 789 -678 87 -44 87 -36 1 11 -379
206 -736 575 -959 991 -138 258 -203 526 -157 653 l15 40 -150 300 c-82 165
-179 347 -215 405 -140 222 -300 409 -455 531 -79 61 -104 87 -55 55 32 -21
32 -21 40 14 4 16 10 30 13 30 4 0 15 18 26 39 21 46 52 56 86 29 33 -26 72
-23 102 10 38 40 59 77 51 88 -19 23 224 -192 315 -280 216 -207 810 -992
1279 -1691 179 -266 585 -665 1078 -1059 189 -152 336 -264 450 -345 99 -70
21 -6 -201 166 -397 307 -626 505 -889 768 -229 228 -284 295 -484 589 -400
586 -945 1325 -1094 1484 -24 26 -130 125 -235 220 -171 154 -215 198 -182
177 20 -12 9 31 -14 56 -13 14 -36 45 -51 70 -15 24 -41 59 -59 77 -33 35 -32
25 -27 192 2 79 -2 120 -11 114 -4 -3 -12 15 -19 38 -6 24 -15 52 -20 63 -40
97 -55 190 -32 200 14 5 13 8 -3 27 l-19 22 30 -21 c41 -28 122 -108 236 -233
94 -103 96 -106 103 -165 16 -142 74 -268 185 -406 182 -226 512 -477 1061
-808 l206 -124 109 -151 c357 -494 788 -1054 924 -1200 20 -21 144 -133 276
-249 976 -858 1616 -1455 1743 -1627 164 -221 298 -457 446 -787 151 -334 186
-407 192 -401 3 4 -1 20 -10 36 -8 16 -46 124 -84 238 -111 336 -205 522 -398
793 -75 105 -129 162 -359 385 -443 431 -859 814 -1460 1347 -250 222 -338
316 -569 604 -236 293 -726 941 -726 959 0 3 40 -19 90 -49 50 -30 117 -61
150 -70 127 -33 379 -135 392 -160 33 -58 185 -242 287 -347 205 -213 375
-339 615 -459 77 -38 144 -69 150 -69 6 0 -47 31 -119 68 -211 110 -358 217
-548 402 -128 124 -344 380 -321 380 4 0 61 -30 128 -67 408 -225 812 -516
1086 -782 78 -76 90 -91 68 -87 -75 16 -78 14 -23 -6 33 -13 66 -26 72 -31 11
-7 110 -127 146 -177 l18 -25 -12 25 c-6 14 -35 57 -65 97 l-53 71 62 -25 c99
-40 305 -140 392 -190 341 -198 560 -399 836 -766 154 -204 174 -225 70 -70
-357 527 -777 866 -1296 1048 -76 26 -86 33 -205 149 -205 201 -407 360 -700
551 -159 105 -427 265 -513 306 -39 19 -56 37 -91 94 -68 109 -124 227 -163
343 -29 87 -36 122 -36 192 -1 47 4 94 10 106 10 17 -5 48 -109 230 -149 259
-219 370 -313 499 -323 443 -712 682 -1215 745 -111 14 -107 12 -313 147 -175
114 -243 176 -280 255 -27 56 -49 125 -26 81 12 -23 61 -35 95 -23 12 5 37 30
57 57 19 27 45 57 56 67 12 11 21 29 21 40 0 27 -34 79 -45 69 -4 -5 -5 -3 -2
4 4 6 60 39 125 73 200 107 301 185 364 283 30 47 33 59 33 127 0 59 -5 84
-24 120 -33 62 -130 160 -232 235 -59 44 -90 73 -97 94 -41 118 -226 297 -477
460 -179 117 -306 174 -665 297 -313 106 -624 144 -1025 124 -179 -9 -223 -9
-299 5 -105 18 -254 18 -351 0z m3162 -1317 c-3 -8 -6 -5 -6 6 -1 11 2 17 5
13 3 -3 4 -12 1 -19z m0 -50 c-3 -8 -6 -5 -6 6 -1 11 2 17 5 13 3 -3 4 -12 1
-19z m-703 -812 c89 -152 298 -287 556 -361 743 -213 1202 -553 1494 -1106 91
-174 118 -250 121 -354 5 -149 78 -354 199 -560 31 -53 56 -98 56 -99 0 -2
-42 17 -92 41 -108 52 -222 99 -293 120 -27 8 -97 39 -155 69 l-105 54 -127
183 c-70 100 -167 239 -215 309 -230 332 -801 864 -1466 1367 -127 97 -172
134 -111 95 l25 -17 -4 59 c-2 32 1 77 8 99 7 22 19 60 26 84 7 24 19 50 27
58 11 10 11 20 3 45 -6 17 -11 38 -11 47 1 9 9 -8 20 -37 10 -30 30 -73 44
-96z m-163 -263 c13 -16 12 -17 -3 -4 -10 7 -18 15 -18 17 0 8 8 3 21 -13z
m199 -148 c517 -395 926 -766 1221 -1105 31 -36 107 -139 169 -230 63 -91 153
-220 202 -287 48 -68 85 -123 83 -123 -13 0 -291 167 -417 252 -489 326 -791
661 -943 1043 -53 134 -177 283 -328 396 -43 33 -75 59 -70 59 5 0 14 -5 21
-12 6 -6 14 -9 17 -6 12 12 -11 41 -71 89 -35 28 -64 53 -64 56 0 3 6 1 13 -4
6 -6 82 -63 167 -128z m-60 -710 c19 -19 32 -35 29 -35 -3 0 -20 16 -39 35
-19 19 -32 35 -29 35 3 0 20 -16 39 -35z m-20 -40 c19 -19 32 -35 29 -35 -3 0
-20 16 -39 35 -19 19 -32 35 -29 35 3 0 20 -16 39 -35z m-2943 -127 c-2 -18
-4 -6 -4 27 0 33 2 48 4 33 2 -15 2 -42 0 -60z m86 -30 c11 9 64 17 77 12 3
-1 16 -4 30 -6 13 -2 33 -13 45 -24 11 -10 25 -19 30 -20 20 -2 176 -128 209
-168 10 -13 29 -34 41 -45 13 -12 39 -44 60 -72 20 -27 52 -67 71 -87 19 -21
40 -49 46 -64 11 -24 9 -29 -24 -59 -27 -25 -33 -36 -24 -46 8 -9 7 -10 -9 -5
-11 5 -57 22 -103 38 -82 31 -84 33 -219 172 -149 155 -204 225 -175 222 10 0
18 7 20 21 2 16 -5 26 -26 37 -17 9 -33 21 -36 28 -3 7 -3 2 -1 -12 l6 -25
-15 25 c-8 14 -16 45 -19 70 -2 25 -2 35 0 22 3 -16 8 -20 16 -14z m-313 22
c-8 -5 -19 -10 -25 -10 -5 0 -3 5 5 10 8 5 20 10 25 10 6 0 3 -5 -5 -10z m96
-25 c11 -28 -6 -60 -50 -94 -41 -32 -43 -36 -34 -63 6 -15 14 -28 19 -28 4 0
37 -18 71 -40 76 -48 116 -51 165 -14 18 14 31 30 28 35 -4 5 -4 9 -1 9 3 0
19 -20 35 -44 77 -111 231 -241 406 -340 243 -138 444 -287 619 -456 125 -121
204 -216 292 -350 54 -83 134 -228 134 -244 0 -17 -210 72 -360 153 -457 247
-774 473 -1025 733 -190 197 -307 367 -385 565 -24 59 -51 119 -60 133 -34 50
-36 57 -15 40 17 -13 18 -13 13 0 -5 13 7 16 68 18 60 2 75 0 80 -13z m1999
-735 c10 -11 16 -20 13 -20 -3 0 -13 9 -23 20 -10 11 -16 20 -13 20 3 0 13 -9
23 -20z"/>
<path d="M5655 8038 c-31 -17 -85 -71 -85 -85 0 -15 46 -60 83 -79 32 -17 52
-9 91 37 35 41 33 62 -9 104 -38 37 -49 41 -80 23z"/>
<path d="M9450 5911 c0 -25 89 -203 142 -280 146 -217 402 -465 718 -698 167
-123 490 -340 490 -329 0 3 -55 43 -122 88 -540 361 -845 637 -1069 966 -39
56 -90 139 -114 185 -25 45 -45 76 -45 68z"/>
<path d="M5890 5270 c140 -355 494 -711 1138 -1143 163 -110 230 -152 207
-130 -5 6 -91 65 -190 133 -338 231 -528 382 -710 565 -173 174 -315 361 -415
548 -23 42 -44 77 -46 77 -2 0 5 -23 16 -50z"/>
<path d="M7450 5136 c88 -36 277 -131 375 -187 220 -126 393 -257 561 -424
152 -152 224 -243 382 -481 163 -246 155 -235 136 -194 -29 61 -155 261 -232
370 -94 132 -150 199 -276 328 -253 260 -507 427 -858 566 -118 46 -190 65
-88 22z"/>
<path d="M5200 4148 c3 -3 56 -40 119 -82 195 -131 321 -235 487 -401 274
-273 417 -493 595 -910 39 -93 76 -174 81 -180 5 -5 4 4 -2 20 -107 286 -228
536 -340 709 -192 295 -416 520 -705 709 -88 57 -248 149 -235 135z"/>
</g>
</svg>
